<?xml version="1.0" standalone="no"?>
<!DOCTYPE svg PUBLIC "-//W3C//DTD SVG 1.1//EN" "http://www.w3.org/Graphics/SVG/1.1/DTD/svg11.dtd" >
<svg xmlns="http://www.w3.org/2000/svg" xmlns:xlink="http://www.w3.org/1999/xlink" version="1.1">
<metadata>
Created by FontForge 20201107 at Tue Aug 18 13:02:03 2020
 By www-data
Copyright (c) 2019 by www.fontiran.com All rights reserved.
</metadata>
<defs>
<font id="ArtinSharp" horiz-adv-x="0" >
  <font-face 
    font-family="Artin Sharp"
    font-weight="400"
    font-stretch="normal"
    units-per-em="2048"
    panose-1="0 0 0 0 0 0 0 0 0 0"
    ascent="1638"
    descent="-410"
    x-height="884"
    cap-height="1241"
    bbox="-497 -801 2398 2136"
    underline-thickness="100"
    underline-position="-770"
    unicode-range="U+001D-FEFC"
  />
<missing-glyph horiz-adv-x="644" 
d="M70 20v1325h504v-1325h-504zM98 48h448v1269h-448v-1269z" />
    <glyph glyph-name="uni0622" unicode="&#x627;&#x653;" horiz-adv-x="343" 
d="M-227 1435q94 78 201 78h558l-36 -178h-483q-90 0 -128 -35l-114 134zM70 3v1188l188 39v-1190z" />
    <glyph glyph-name="uni0623" unicode="&#x627;&#x654;" horiz-adv-x="328" 
d="M161 1433q0 -17 11.5 -28.5t29.5 -11.5q5 0 8 1l97 29l43 -68l-314 -95l1 80l68 22q-24 31 -24 64q0 43 19 72.5t58 40.5l79 23l37 -69l-86 -25q-12 -3 -19.5 -12.5t-7.5 -22.5zM70 3v1188l188 39v-1190z" />
    <glyph glyph-name="uni0624" unicode="&#x648;&#x654;" horiz-adv-x="860" 
d="M374 -269q94 0 161 66t67 161v447q0 33 -25 57t-57 24h-123q-61 0 -105 -44t-44 -104v-2q0 -60 44 -104t105 -44h186l-58 -190l-134 2q-95 0 -169.5 47t-117.5 122q-44 75 -44 168q0 96 47.5 172t119.5 119q78 46 170 46h124q113 0 188.5 -76t80.5 -191v-488
q0 -148 -116 -257q-59 -56 -137.5 -87.5t-162.5 -31.5h-307l38 188h269zM395 908q0 -17 11.5 -28.5t29.5 -11.5q5 0 8 1l97 29l43 -68l-314 -95l1 80l68 22q-24 31 -24 64q0 43 19 72.5t58 40.5l79 23l37 -69l-86 -25q-12 -3 -19.5 -12.5t-7.5 -22.5z" />
    <glyph glyph-name="uni0625" unicode="&#x627;&#x655;" horiz-adv-x="328" 
d="M174 -129q0 -17 11.5 -28.5t29.5 -11.5q5 0 8 1l97 29l43 -68l-314 -95l1 80l68 22q-24 31 -24 64q0 43 19 72.5t58 40.5l79 23l37 -69l-86 -25q-12 -3 -19.5 -12.5t-7.5 -22.5zM70 3v1188l188 39v-1190z" />
    <glyph glyph-name="uni0626" unicode="&#x64a;&#x654;" horiz-adv-x="1305" 
d="M845 52q-114 0 -191.5 76.5t-77.5 189.5v76q0 120 75 200t190 80h386l-42 -188h-340q-33 0 -57 -22.5t-24 -56.5v-86q0 -33 24 -57t58 -24h123q110 0 188 -78.5t78 -191.5v-51q0 -85 -54 -172q-59 -91 -151.5 -147.5t-210.5 -56.5h-167q-166 0 -297.5 81.5t-206.5 207.5
q-78 132 -78 293v316l188 36v-353q0 -114 54.5 -201t141.5 -139q89 -53 198 -53h167q94 0 161 66t67 161v12q0 34 -24 58t-57 24h-121zM158 653q0 -17 11.5 -28.5t29.5 -11.5q5 0 8 1l97 29l43 -68l-314 -95l1 80l68 22q-24 31 -24 64q0 43 19 72.5t58 40.5l79 23l37 -69
l-86 -25q-12 -3 -19.5 -12.5t-7.5 -22.5z" />
    <glyph glyph-name="uniFBA5" unicode="&#xfeea;&#x654;" horiz-adv-x="1043" arabic-form="final" 
d="M362 895q0 -17 11.5 -28.5t29.5 -11.5q5 0 8 1l97 29l43 -68l-314 -95l1 80l68 22q-24 31 -24 64q0 43 19 72.5t58 40.5l79 23l37 -69l-86 -25q-12 -3 -19.5 -12.5t-7.5 -22.5zM258 336q0 -62 44 -105t105 -43h242l-60 -188h-182q-97 0 -172 47t-120 121t-45 168
q0 97 47 172.5t120 119.5q75 45 170 45h57q112 0 194 -61.5t123 -162.5l66 -166q38 -95 140 -95h56v-188h-56q-111 0 -194.5 62.5t-121.5 155.5l-70 179q-43 89 -137 89h-57q-61 0 -105 -44t-44 -106z" />
    <glyph glyph-name="uniFDF2" unicode="&#x627;&#xfedf;&#xfee0;&#xfeea;" horiz-adv-x="2202" arabic-form="isolated" 
d="M1944 0v1185l188 42v-1189zM1342 270q0 -33 24 -57t57 -24h149q35 0 58.5 25t23.5 59v923l188 39v-968q-4 -111 -81 -187t-188 -79h-150q-90 2 -175 63q-85 -61 -175 -63h-86q-111 0 -195.5 63t-120.5 155l-70 179q-41 84 -136 89h-58q-61 0 -105 -44t-44 -106
q0 -61 43.5 -104.5t105.5 -43.5h238l-59 -190l-179 2q-97 0 -171.5 47t-119.5 121q-46 75 -46 168q0 97 47 172.5t120 119.5q75 45 170 45h57q109 0 194.5 -65t122.5 -159l66 -166q38 -95 140 -95h85q34 0 58 24t24 57v773l188 38v-811zM1132 1203q0 -16 12 -28
q11 -11 27 -12h1q16 0 28 12t12 28v61l53 19v-51q0 -17 12 -29q11 -10 26 -11h4q17 0 27 12q11 11 11 28v80l54 19v-101q0 -33 -26.5 -62t-59.5 -29t-61 16q-34 -45 -76 -45q-41 0 -69 26t-28 65v16l53 19v-33z" />
    <glyph glyph-name="uniFEF5" unicode="&#xfedf;&#xfe82;" horiz-adv-x="909" arabic-form="isolated" 
d="M-229 1463l3 3q93 77 200 77h608l-36 -178h-533q-90 0 -128 -35zM258 268q0 -33 24 -57t57 -24h231q33 0 57.5 23.5t24.5 57.5v927l187 38v-969q0 -110 -78 -187t-191 -77h-231q-113 0 -191 77t-78 187v931l188 38v-965z" />
    <glyph glyph-name="uniFEF6" unicode="&#xfee0;&#xfe82;" horiz-adv-x="989" arabic-form="final" 
d="M-229 1463l3 3q93 77 200 77h608l-36 -178h-533q-90 0 -128 -35zM716 43q-65 -43 -146 -43h-231q-113 0 -188.5 76t-80.5 190v929l188 39v-965q0 -33 24 -57t57 -24h231q32 0 57 24t25 57v926l187 39v-967q0 -33 24 -56t58 -23h68v-188h-69q-88 0 -175 63z" />
    <glyph glyph-name="uniFEF7" unicode="&#xfedf;&#xfe84;" horiz-adv-x="909" arabic-form="isolated" 
d="M194 1485q0 -17 11.5 -28.5t29.5 -11.5q5 0 8 1l97 29l43 -68l-314 -95l1 80l68 22q-24 31 -24 64q0 43 19 72.5t58 40.5l79 23l37 -69l-86 -25q-12 -3 -19.5 -12.5t-7.5 -22.5zM258 268q0 -33 24 -57t57 -24h231q33 0 57.5 23.5t24.5 57.5v927l187 38v-969
q0 -110 -78 -187t-191 -77h-231q-113 0 -191 77t-78 187v931l188 38v-965z" />
    <glyph glyph-name="uniFEF8" unicode="&#xfee0;&#xfe84;" horiz-adv-x="989" arabic-form="final" 
d="M194 1485q0 -17 11.5 -28.5t29.5 -11.5q5 0 8 1l97 29l43 -68l-314 -95l1 80l68 22q-24 31 -24 64q0 43 19 72.5t58 40.5l79 23l37 -69l-86 -25q-12 -3 -19.5 -12.5t-7.5 -22.5zM716 43q-65 -43 -146 -43h-231q-113 0 -188.5 76t-80.5 190v929l188 39v-965q0 -33 24 -57
t57 -24h231q32 0 57 24t25 57v926l187 39v-967q0 -33 24 -56t58 -23h68v-188h-69q-88 0 -175 63z" />
    <glyph glyph-name="uniFEF9" unicode="&#xfedf;&#xfe88;" horiz-adv-x="909" arabic-form="isolated" 
d="M194 -222q0 -17 11.5 -28.5t29.5 -11.5q5 0 8 1l97 29l43 -68l-314 -95l1 80l68 22q-24 31 -24 64q0 43 19 72.5t58 40.5l79 23l37 -69l-86 -25q-12 -3 -19.5 -12.5t-7.5 -22.5zM258 268q0 -33 24 -57t57 -24h231q33 0 57.5 23.5t24.5 57.5v927l187 38v-969
q0 -110 -78 -187t-191 -77h-231q-113 0 -191 77t-78 187v931l188 38v-965z" />
    <glyph glyph-name="uniFEFA" unicode="&#xfee0;&#xfe88;" horiz-adv-x="989" arabic-form="final" 
d="M194 -222q0 -17 11.5 -28.5t29.5 -11.5q5 0 8 1l97 29l43 -68l-314 -95l1 80l68 22q-24 31 -24 64q0 43 19 72.5t58 40.5l79 23l37 -69l-86 -25q-12 -3 -19.5 -12.5t-7.5 -22.5zM716 43q-65 -43 -146 -43h-231q-113 0 -188.5 76t-80.5 190v929l188 39v-965q0 -33 24 -57
t57 -24h231q32 0 57 24t25 57v926l187 39v-967q0 -33 24 -56t58 -23h68v-188h-69q-88 0 -175 63z" />
    <glyph glyph-name="uniFEFB" unicode="&#xfedf;&#xfe8e;" horiz-adv-x="909" arabic-form="isolated" 
d="M258 268q0 -33 24 -57t57 -24h231q33 0 57.5 23.5t24.5 57.5v927l187 38v-969q0 -110 -78 -187t-191 -77h-231q-113 0 -191 77t-78 187v931l188 38v-965z" />
    <glyph glyph-name="uniFEFC" unicode="&#xfee0;&#xfe8e;" horiz-adv-x="989" arabic-form="final" 
d="M716 43q-65 -43 -146 -43h-231q-113 0 -188.5 76t-80.5 190v929l188 39v-965q0 -33 24 -57t57 -24h231q32 0 57 24t25 57v926l187 39v-967q0 -33 24 -56t58 -23h68v-188h-69q-88 0 -175 63z" />
    <glyph glyph-name="TF" unicode="&#x64e;&#x651;" 
d="M-96 1699q0 -12 9 -21t21 -9t21 9t9 21v68l73 26v-65q0 -13 9 -21.5t22 -8.5t21 8.5t8 21.5v87l74 26v-115q0 -37 -29.5 -69t-66.5 -32q-36 0 -58 13q-32 -42 -79 -42q-45 0 -76 29t-31 72v23l73 26v-47zM171 1908l-340 -120v72l340 119v-71z" />
    <glyph glyph-name="TK" unicode="&#x650;&#x651;" 
d="M-96 1878q0 -12 9 -21t21 -9t21 9t9 21v68l73 26v-65q0 -13 9 -21.5t22 -8.5t21 8.5t8 21.5v87l74 26v-115q0 -37 -29.5 -69t-66.5 -32q-36 0 -58 13q-32 -42 -79 -42q-45 0 -76 29t-31 72v23l73 26v-47zM171 1683l-340 -120v72l340 119v-71z" />
    <glyph glyph-name="uniA728" unicode="&#x64f;&#x651;" 
d="M-55 1909q0 45 33.5 78.5t79.5 33.5t79.5 -33.5t33.5 -79.5q0 -79 -79 -107l-261 -93v72l145 51q-31 31 -31 78zM58 1862q19 0 32.5 13.5t13.5 32.5t-13.5 32.5t-32.5 13.5t-32.5 -13.5t-13.5 -32.5t13.5 -32.5t32.5 -13.5zM-96 1599q0 -12 9 -21t21 -9t21 9t9 21v68
l73 26v-65q0 -13 9 -21.5t22 -8.5t21 8.5t8 21.5v87l74 26v-115q0 -37 -29.5 -69t-66.5 -32q-36 0 -58 13q-31 -42 -79 -42q-45 0 -76 29t-31 72v23l73 26v-47z" />
    <glyph glyph-name="TF2" unicode="&#x64b;&#x651;" 
d="M171 2061l-340 -120v72l340 119v-71zM-96 1689q0 -12 9 -21t21 -9t21 9t9 21v68l73 26v-65q0 -13 9 -21.5t22 -8.5t21 8.5t8 21.5v87l74 26v-115q0 -37 -29.5 -69t-66.5 -32q-36 0 -58 13q-32 -42 -79 -42q-45 0 -76 29t-31 72v23l73 26v-47zM171 1920l-340 -120v72
l340 119v-71z" />
    <glyph glyph-name="TK2" unicode="&#x64d;&#x651;" 
d="M171 1804l-340 -120v72l340 119v-71zM-96 1991q0 -12 9 -21t21 -9t21 9t9 21v68l73 26v-65q0 -13 9 -21.5t22 -8.5t21 8.5t8 21.5v87l74 26v-115q0 -37 -29.5 -69t-66.5 -32q-36 0 -58 13q-32 -42 -79 -42q-45 0 -76 29t-31 72v23l73 26v-47zM171 1663l-340 -120v72
l340 119v-71z" />
    <glyph glyph-name="TZ2" unicode="&#x64c;&#x651;" 
d="M-96 1679q0 -12 9 -21t21 -9t21 9t9 21v68l73 26v-65q0 -13 9 -21.5t22 -8.5t21 8.5t8 21.5v87l74 26v-115q0 -37 -29.5 -69t-66.5 -32q-36 0 -58 13q-32 -42 -79 -42q-45 0 -76 29t-31 72v23l73 26v-47zM-54 1979q0 45 33.5 78t78.5 33q46 0 79.5 -33t33.5 -79
q0 -79 -79 -107l-261 -93v66l49 17q18 6 18 22q0 28 -24 28q-3 0 -11 -2l-32 -11v66q27 9 44 9q33 0 57 -23.5t27 -55.5l18 7q-31 31 -31 78zM58 1932q19 0 32.5 13.5t13.5 32.5t-13 32q-14 13 -33 13v0q-19 0 -32 -13t-13 -32q0 -20 13 -33t32 -13z" />
    <glyph glyph-name="HF" unicode="&#x64e;&#x654;" 
d="M-31 1676q0 -17 11.5 -28.5t29.5 -11.5q5 0 8 1l97 29l43 -68l-314 -95l1 80l68 22q-24 31 -24 64q0 43 19 72.5t58 40.5l79 23l37 -69l-86 -25q-12 -3 -19.5 -12.5t-7.5 -22.5zM142 1917l-340 -120v72l340 119v-71z" />
    <glyph glyph-name="HZ" unicode="&#x64f;&#x654;" 
d="M-31 1646q0 -17 11.5 -28.5t29.5 -11.5q5 0 8 1l97 29l43 -68l-314 -95l1 80l68 22q-24 31 -24 64q0 43 19 72.5t58 40.5l79 23l37 -69l-86 -25q-12 -3 -19.5 -12.5t-7.5 -22.5zM-93 2024q0 46 33.5 79t79.5 33q47 0 80 -33t33 -80q0 -79 -79 -107l-261 -93v72l145 51
q-31 31 -31 78zM20 1977q19 0 32.5 13.5t13.5 32.5t-13.5 32.5t-32.5 13.5t-32.5 -13.5t-13.5 -32.5t13.5 -32.5t32.5 -13.5z" />
    <glyph glyph-name="uniFB57" unicode="&#x67e;" horiz-adv-x="1626" arabic-form="final" 
d="M800 -361l-124 -124l-124 124l124 125zM1049 -361l-124 -124l-124 124l124 125zM925 -532l-124 -124l-124 124l124 125zM70 593l188 38v-362q0 -33 24 -57t57 -24h890q34 0 58 24t24 57v324l188 38v-362q0 -33 24 -57t57 -24h46v-188h-46q-88 0 -175 63q-87 -63 -175 -63
h-891q-113 0 -191 77t-78 188v328z" />
    <glyph glyph-name="uniFB58" unicode="&#x67e;" horiz-adv-x="590" arabic-form="initial" 
d="M172 -361l-124 -124l-124 124l124 125zM421 -361l-124 -124l-124 124l124 125zM297 -532l-124 -124l-124 124l124 125zM-83 115q0 29 22 51t51 22h260q34 0 58 24t24 57v359l188 38v-400q-5 -113 -80.5 -188t-188.5 -78h-261q-31 0 -52 21t-21 52v42z" />
    <glyph glyph-name="uniFB59" unicode="&#x67e;" horiz-adv-x="651" arabic-form="medial" 
d="M172 -361l-124 -124l-124 124l124 125zM421 -361l-124 -124l-124 124l124 125zM297 -532l-124 -124l-124 124l124 125zM174 188q34 0 58 24t24 57v323l188 38v-361q0 -33 24 -57t57 -24h126v-188h-126q-88 0 -175 63q-87 -63 -175 -63h-185q-31 0 -52 21t-21 52v42
q0 29 22 51t51 22h184z" />
    <glyph glyph-name="uniFB7B" unicode="&#x686;" horiz-adv-x="1023" arabic-form="final" 
d="M640 -203l-106 -106l-105 106l105 105zM852 -203l-106 -106l-106 106l106 105zM746 -349l-105 -105l-106 105l106 106zM681 197q-297 -191 -374 -282q-43 -57 -49 -133q0 -115 55 -203.5t140 -138.5q94 -53 198 -53h355l-38 -188h-316q-168 0 -298.5 81.5t-205.5 207.5
q-78 132 -78 293q4 183 159 319q108 91 324 233l211 140l11 7q9 7 9 17q0 9 -6 15.5t-15 6.5h-608l38 188h571q64 0 112 -31.5t76 -81.5q13 -23 18 -53q3 -14 3 -30v-21q0 -15 -3 -32q-4 -20 -13 -39q-33 -71 -141 -135q5 -51 28 -73.5t56 -22.5h123v-188h-137
q-87 0 -138 52q-44 43 -67 145z" />
    <glyph glyph-name="uniFB7C" unicode="&#x686;" horiz-adv-x="1065" arabic-form="initial" 
d="M443 -382l-124 -124l-124 124l124 125zM692 -382l-124 -124l-124 124l124 125zM568 -553l-124 -124l-124 124l124 125zM156 512l38 187h595q64 0 112 -31t76 -80q17 -43 18 -83v-15q-3 -113 -128 -198l-181 -116q-286 -183 -482 -183h-211q-31 0 -52 21t-21 52v42
q0 31 21 52t52 21h185q89 0 212 52q117 51 216 115l198 127q7 6 7 15t-6 15.5t-15 6.5h-634z" />
    <glyph glyph-name="uniFB7D" unicode="&#x686;" horiz-adv-x="1044" arabic-form="medial" 
d="M443 -384l-124 -124l-124 124l124 125zM692 -384l-124 -124l-124 124l124 125zM568 -555l-124 -124l-124 124l124 125zM795 474q9 7 9 17q0 9 -6 15.5t-15 6.5h-625l38 187h557q64 0 112 -31t76 -81q29 -52 29 -91q0 -138 -108 -204l-24 -16q4 -51 26 -72.5t57 -21.5h123
v-189h-138q-87 0 -138 52q-44 43 -67 144l-20 -13q-283 -183 -483 -183h-215q-31 0 -52 21t-21 52v42q0 35 24.5 54t69.5 19h168q172 0 428 167l184 118z" />
    <glyph glyph-name="uniFB8B" unicode="&#x698;" horiz-adv-x="523" arabic-form="final" 
d="M251 856l-124 -124l-124 124l124 125zM500 856l-124 -124l-124 124l124 125zM376 1027l-124 -124l-124 124l124 125zM-150 -457l38 188h80q92 0 159.5 67.5t67.5 159.5v638l188 38v-368q0 -33 24.5 -55.5t57.5 -22.5h58v-188h-59q-17 0 -81 10v-91q0 -111 -79 -203
q-56 -78 -141.5 -125.5t-194.5 -47.5h-118z" />
    <glyph glyph-name="uniFB8F" unicode="&#x6a9;" horiz-adv-x="1752" arabic-form="final" 
d="M258 269q0 -33 24 -57t57 -24h920q52 0 52 52q0 21 -16 37l-372 373q-36 38 -36 116q0 124 107 185l484 281l62 -181l-477 -277l547 -546q40 -40 104 -40h38v-188h-90q-92 0 -151 62l-47 49q-96 -111 -205 -111h-920q-114 0 -191.5 77t-77.5 188v328l188 38v-362z" />
    <glyph glyph-name="uniFB90" unicode="&#x6a9;" horiz-adv-x="828" arabic-form="initial" 
d="M-10 0q-31 0 -52 21t-21 52v42q0 29 22 51t51 22h483q53 0 53 52q0 21 -16 37l-373 373q-36 36 -36 115q0 125 107 186l479 277l71 -179l-480 -274l366 -366q69 -69 69 -168q0 -98 -71 -169.5t-168 -71.5h-484z" />
    <glyph glyph-name="uniFB91" unicode="&#x6a9;" horiz-adv-x="940" arabic-form="medial" 
d="M-10 0q-31 0 -52 21t-21 52v42q0 29 22 51t51 22h483q53 0 53 52q0 21 -16 37l-373 373q-36 36 -36 115q0 121 107 186l479 276l70 -177l-479 -276l546 -546q40 -40 116 -40v-188h-64q-84 0 -152 63l-47 46q-93 -109 -203 -109h-484z" />
    <glyph glyph-name="uniFB93" unicode="&#x6af;" horiz-adv-x="1752" arabic-form="final" 
d="M1508 1324l-476 -274l-32 90l482 278zM258 269q0 -33 24 -57t57 -24h920q52 0 52 52q0 21 -16 37l-372 373q-36 38 -36 116q0 124 107 185l484 281l62 -181l-477 -277l547 -546q40 -40 104 -40h38v-188h-90q-92 0 -151 62l-47 49q-96 -111 -205 -111h-920
q-114 0 -191.5 77t-77.5 188v328l188 38v-362z" />
    <glyph glyph-name="uniFB94" unicode="&#x6af;" horiz-adv-x="828" arabic-form="initial" 
d="M659 1288l-425 -244l-18 80l431 248zM-10 0q-31 0 -52 21t-21 52v42q0 29 22 51t51 22h483q53 0 53 52q0 21 -16 37l-373 373q-36 36 -36 115q0 125 107 186l479 277l71 -179l-480 -274l366 -366q69 -69 69 -168q0 -98 -71 -169.5t-168 -71.5h-484z" />
    <glyph glyph-name="uniFB95" unicode="&#x6af;" horiz-adv-x="940" arabic-form="medial" 
d="M659 1288l-425 -244l-18 80l431 248zM-10 0q-31 0 -52 21t-21 52v42q0 29 22 51t51 22h483q53 0 53 52q0 21 -16 37l-373 373q-36 36 -36 115q0 121 107 186l479 276l70 -177l-479 -276l546 -546q40 -40 116 -40v-188h-64q-84 0 -152 63l-47 46q-93 -109 -203 -109h-484z
" />
    <glyph glyph-name="uniFBE8" unicode="&#x649;" horiz-adv-x="590" arabic-form="initial" 
d="M-83 115q0 29 22 51t51 22h260q34 0 58 24t24 57v359l188 38v-400q-5 -113 -80.5 -188t-188.5 -78h-261q-31 0 -52 21t-21 52v42z" />
    <glyph glyph-name="uniFBE9" unicode="&#x649;" horiz-adv-x="651" arabic-form="medial" 
d="M174 188q34 0 58 24t24 57v323l188 38v-361q0 -33 24 -57t57 -24h126v-188h-126q-88 0 -175 63q-87 -63 -175 -63h-185q-31 0 -52 21t-21 52v42q0 29 22 51t51 22h184z" />
    <glyph glyph-name="uniFBFD" unicode="&#x6cc;" horiz-adv-x="1391" arabic-form="final" 
d="M258 124q0 -165 114.5 -279t279.5 -114h167q93 0 160.5 66.5t67.5 160.5v42h-347l40 188h651v-188h-156v-81q0 -139 -108 -247q-60 -60 -140.5 -94.5t-167.5 -34.5h-167q-168 1 -297.5 82t-205.5 207q-79 133 -79 293v316l188 37v-354z" />
    <glyph glyph-name="uniFBFE" unicode="&#x6cc;" horiz-adv-x="590" arabic-form="initial" 
d="M193 -354l-124 -124l-124 124l124 125zM442 -354l-124 -124l-124 124l124 125zM-83 115q0 29 22 51t51 22h260q34 0 58 24t24 57v359l188 38v-400q-5 -113 -80.5 -188t-188.5 -78h-261q-31 0 -52 21t-21 52v42z" />
    <glyph glyph-name="uniFBFF" unicode="&#x6cc;" horiz-adv-x="651" arabic-form="medial" 
d="M193 -354l-124 -124l-124 124l124 125zM442 -354l-124 -124l-124 124l124 125zM174 188q34 0 58 24t24 57v323l188 38v-361q0 -33 24 -57t57 -24h126v-188h-126q-88 0 -175 63q-87 -63 -175 -63h-185q-31 0 -52 21t-21 52v42q0 29 22 51t51 22h184z" />
    <glyph glyph-name="uniFE82" unicode="&#x622;" horiz-adv-x="364" arabic-form="final" 
d="M248 269q0 -33 24 -57t57 -24h35v-188h-35q-113 3 -188.5 78.5t-80.5 187.5v930l188 38v-965zM-239 1450q85 61 181 61h614l-38 -188h-537q-88 0 -128 -37l-122 141z" />
    <glyph glyph-name="uniFE84" unicode="&#x623;" horiz-adv-x="374" arabic-form="final" 
d="M258 269q0 -33 24 -57t57 -24h35v-188h-35q-113 3 -188.5 78.5t-80.5 187.5v929l188 38v-964zM162 1435q0 -17 11.5 -28.5t29.5 -11.5q5 0 8 1l97 29l43 -68l-314 -95l1 80l68 22q-24 31 -24 64q0 43 19 72.5t58 40.5l79 23l37 -69l-86 -25q-12 -3 -19.5 -12.5
t-7.5 -22.5z" />
    <glyph glyph-name="uniFE86" unicode="&#x624;" horiz-adv-x="947" arabic-form="final" 
d="M412 925q0 -17 11.5 -28.5t29.5 -11.5q5 0 8 1l97 29l43 -68l-314 -95l1 80l68 22q-24 31 -24 64q0 43 19 72.5t58 40.5l79 23l37 -69l-86 -25q-12 -3 -19.5 -12.5t-7.5 -22.5zM76 -457l38 188h270q93 0 160.5 66.5t67.5 160.5v447q0 33 -25 57t-57 24h-123
q-61 0 -105 -44t-44 -105v-2q1 -60 44 -103q44 -44 105 -44h186l-56 -188h-145q-89 0 -162.5 48t-115.5 121q-44 75 -44 169q0 96 47.5 172t119.5 118q79 46 170 46h123q113 -5 189.5 -80t80.5 -186v-141q0 -33 24 -56t57 -23h66v-188h-66q-17 0 -81 10v-91q0 -107 -80 -204
q-54 -76 -140.5 -124t-195.5 -48h-308z" />
    <glyph glyph-name="uniFE88" unicode="&#x625;" horiz-adv-x="374" arabic-form="final" 
d="M258 269q0 -33 24 -57t57 -24h35v-188h-35q-113 3 -188.5 78.5t-80.5 187.5v929l188 38v-964zM202 -165q0 -17 11.5 -28.5t29.5 -11.5q5 0 8 1l97 29l43 -68l-314 -95l1 80l68 22q-24 31 -24 64q0 43 19 72.5t58 40.5l79 23l37 -69l-86 -25q-12 -3 -19.5 -12.5
t-7.5 -22.5z" />
    <glyph glyph-name="uniFE8A" unicode="&#x626;" horiz-adv-x="1111" arabic-form="final" 
d="M258 -138q0 -54 38.5 -92.5t92.5 -38.5h573l-38 -188h-536q-134 0 -226 94t-92 233q0 133 92 225.5t223 92.5h726v-188h-722q-53 0 -92 -38t-39 -93v-7zM324 391q0 -17 11.5 -28.5t29.5 -11.5q5 0 8 1l97 29l43 -68l-314 -95l1 80l68 22q-24 31 -24 64q0 43 19 72.5
t58 40.5l79 23l37 -69l-86 -25q-12 -3 -19.5 -12.5t-7.5 -22.5z" />
    <glyph glyph-name="uniFE8B" unicode="&#x626;" horiz-adv-x="590" arabic-form="initial" 
d="M-83 115q0 29 22 51t51 22h260q34 0 58 24t24 57v359l188 38v-400q-5 -113 -80.5 -188t-188.5 -78h-261q-31 0 -52 21t-21 52v42zM314 855q0 -17 11.5 -28.5t29.5 -11.5q5 0 8 1l97 29l43 -68l-314 -95l1 80l68 22q-24 31 -24 64q0 43 19 72.5t58 40.5l79 23l37 -69
l-86 -25q-12 -3 -19.5 -12.5t-7.5 -22.5z" />
    <glyph glyph-name="uniFE8C" unicode="&#x626;" horiz-adv-x="651" arabic-form="medial" 
d="M174 188q34 0 58 24t24 57v323l188 38v-361q0 -33 24 -57t57 -24h126v-188h-126q-88 0 -175 63q-87 -63 -175 -63h-185q-31 0 -52 21t-21 52v42q0 29 22 51t51 22h184zM264 835q0 -17 11.5 -28.5t29.5 -11.5q5 0 8 1l97 29l43 -68l-314 -95l1 80l68 22q-24 31 -24 64
q0 43 19 72.5t58 40.5l79 23l37 -69l-86 -25q-12 -3 -19.5 -12.5t-7.5 -22.5z" />
    <glyph glyph-name="uniFE8E" unicode="&#x627;" horiz-adv-x="374" arabic-form="final" 
d="M258 269q0 -33 24 -57t57 -24h35v-188h-35q-113 3 -188.5 78.5t-80.5 187.5v929l188 38v-964z" />
    <glyph glyph-name="uniFE90" unicode="&#x628;" horiz-adv-x="1626" arabic-form="final" 
d="M942 -347l-131 -131l-131 131l131 132zM70 593l188 38v-362q0 -33 24 -57t57 -24h890q34 0 58 24t24 57v324l188 38v-362q0 -33 24 -57t57 -24h46v-188h-46q-88 0 -175 63q-87 -63 -175 -63h-891q-113 0 -191 77t-78 188v328z" />
    <glyph glyph-name="uniFE91" unicode="&#x628;" horiz-adv-x="590" arabic-form="initial" 
d="M332 -349l-131 -131l-131 131l131 132zM-83 115q0 29 22 51t51 22h260q34 0 58 24t24 57v359l188 38v-400q-5 -113 -80.5 -188t-188.5 -78h-261q-31 0 -52 21t-21 52v42z" />
    <glyph glyph-name="uniFE92" unicode="&#x628;" horiz-adv-x="651" arabic-form="medial" 
d="M332 -349l-131 -131l-131 131l131 132zM174 188q34 0 58 24t24 57v323l188 38v-361q0 -33 24 -57t57 -24h126v-188h-126q-88 0 -175 63q-87 -63 -175 -63h-185q-31 0 -52 21t-21 52v42q0 29 22 51t51 22h184z" />
    <glyph glyph-name="uniFE94" unicode="&#x629;" horiz-adv-x="1043" arabic-form="final" 
d="M454 863l-124 -124l-124 124l124 125zM703 863l-124 -124l-124 124l124 125zM258 336q0 -62 44 -105t105 -43h242l-60 -188h-182q-97 0 -172 47t-120 121t-45 168q0 97 47 172.5t120 119.5q75 45 170 45h57q112 0 194 -61.5t123 -162.5l66 -166q38 -95 140 -95h56v-188
h-56q-111 0 -194.5 62.5t-121.5 155.5l-70 179q-43 89 -137 89h-57q-61 0 -105 -44t-44 -106z" />
    <glyph glyph-name="uniFE96" unicode="&#x62a;" horiz-adv-x="1626" arabic-form="final" 
d="M810 644l-124 -124l-124 124l124 125zM1059 644l-124 -124l-124 124l124 125zM70 593l188 38v-362q0 -33 24 -57t57 -24h890q34 0 58 24t24 57v324l188 38v-362q0 -33 24 -57t57 -24h46v-188h-46q-88 0 -175 63q-87 -63 -175 -63h-891q-113 0 -191 77t-78 188v328z" />
    <glyph glyph-name="uniFE97" unicode="&#x62a;" horiz-adv-x="590" arabic-form="initial" 
d="M394 873l-124 -124l-124 124l124 125zM643 873l-124 -124l-124 124l124 125zM-83 115q0 29 22 51t51 22h260q34 0 58 24t24 57v359l188 38v-400q-5 -113 -80.5 -188t-188.5 -78h-261q-31 0 -52 21t-21 52v42z" />
    <glyph glyph-name="uniFE98" unicode="&#x62a;" horiz-adv-x="651" arabic-form="medial" 
d="M338 853l-124 -124l-124 124l124 125zM587 853l-124 -124l-124 124l124 125zM174 188q34 0 58 24t24 57v323l188 38v-361q0 -33 24 -57t57 -24h126v-188h-126q-88 0 -175 63q-87 -63 -175 -63h-185q-31 0 -52 21t-21 52v42q0 29 22 51t51 22h184z" />
    <glyph glyph-name="uniFE9A" unicode="&#x62b;" horiz-adv-x="1626" arabic-form="final" 
d="M800 597l-124 -124l-124 124l124 125zM1049 597l-124 -124l-124 124l124 125zM925 768l-124 -124l-124 124l124 125zM70 593l188 38v-362q0 -33 24 -57t57 -24h890q34 0 58 24t24 57v324l188 38v-362q0 -33 24 -57t57 -24h46v-188h-46q-88 0 -175 63q-87 -63 -175 -63
h-891q-113 0 -191 77t-78 188v328z" />
    <glyph glyph-name="uniFE9B" unicode="&#x62b;" horiz-adv-x="590" arabic-form="initial" 
d="M394 866l-124 -124l-124 124l124 125zM643 866l-124 -124l-124 124l124 125zM519 1037l-124 -124l-124 124l124 125zM-83 115q0 29 22 51t51 22h260q34 0 58 24t24 57v359l188 38v-400q-5 -113 -80.5 -188t-188.5 -78h-261q-31 0 -52 21t-21 52v42z" />
    <glyph glyph-name="uniFE9C" unicode="&#x62b;" horiz-adv-x="651" arabic-form="medial" 
d="M358 836l-124 -124l-124 124l124 125zM607 836l-124 -124l-124 124l124 125zM483 1007l-124 -124l-124 124l124 125zM174 188q34 0 58 24t24 57v323l188 38v-361q0 -33 24 -57t57 -24h126v-188h-126q-88 0 -175 63q-87 -63 -175 -63h-185q-31 0 -52 21t-21 52v42
q0 29 22 51t51 22h184z" />
    <glyph glyph-name="uniFE9E" unicode="&#x62c;" horiz-adv-x="1023" arabic-form="final" 
d="M787 -229l-131 -131l-131 131l131 132zM681 197q-297 -191 -374 -282q-43 -57 -49 -133q0 -115 55 -203.5t140 -138.5q94 -53 198 -53h355l-38 -188h-316q-168 0 -298.5 81.5t-205.5 207.5q-78 132 -78 293q4 183 159 319q108 91 324 233l211 140l11 7q9 7 9 17
q0 9 -6 15.5t-15 6.5h-608l38 188h571q64 0 112 -31.5t76 -81.5q13 -23 18 -53q3 -14 3 -30v-21q0 -15 -3 -32q-4 -20 -13 -39q-33 -71 -141 -135q5 -51 28 -73.5t56 -22.5h123v-188h-137q-87 0 -138 52q-44 43 -67 145z" />
    <glyph glyph-name="uniFE9F" unicode="&#x62c;" horiz-adv-x="1065" arabic-form="initial" 
d="M506 -349l-131 -131l-131 131l131 132zM156 510l38 187h595q64 0 112 -31t76 -80q17 -43 18 -83v-15q-3 -113 -128 -198l-181 -116q-286 -183 -482 -183h-211q-31 0 -52 21t-21 52v42q0 31 21 52t52 21h185q89 0 212 52q117 51 216 115l198 127q7 6 7 15t-6 15.5t-15 6.5
h-634z" />
    <glyph glyph-name="uniFEA0" unicode="&#x62c;" horiz-adv-x="1044" arabic-form="medial" 
d="M566 -353l-131 -131l-131 131l131 132zM795 473q9 7 9 17q0 9 -6 15.5t-15 6.5h-625l38 187h557q64 0 112 -31t76 -81q29 -52 29 -91q0 -138 -108 -204l-24 -16q4 -51 26 -72.5t57 -21.5h123v-189h-138q-87 0 -138 52q-44 43 -67 144l-20 -13q-283 -183 -483 -183h-215
q-31 0 -52 21t-21 52v42q0 35 24.5 54t69.5 19h168q172 0 428 167l184 118z" />
    <glyph glyph-name="uniFEA2" unicode="&#x62d;" horiz-adv-x="1023" arabic-form="final" 
d="M681 197q-297 -191 -374 -282q-43 -57 -49 -133q0 -115 55 -203.5t140 -138.5q94 -53 198 -53h355l-38 -188h-316q-168 0 -298.5 81.5t-205.5 207.5q-78 132 -78 293q4 183 159 319q108 91 324 233l211 140l11 7q9 7 9 17q0 9 -6 15.5t-15 6.5h-608l38 188h571
q64 0 112 -31.5t76 -81.5q13 -23 18 -53q3 -14 3 -30v-21q0 -15 -3 -32q-4 -20 -13 -39q-33 -71 -141 -135q5 -51 28 -73.5t56 -22.5h123v-188h-137q-87 0 -138 52q-44 43 -67 145z" />
    <glyph glyph-name="uniFEA3" unicode="&#x62d;" horiz-adv-x="1065" arabic-form="initial" 
d="M156 519l38 187h595q64 0 112 -31t76 -80q17 -43 18 -83v-15q-3 -113 -128 -198l-181 -116q-286 -183 -482 -183h-211q-31 0 -52 21t-21 52v42q0 31 21 52t52 21h185q89 0 212 52q117 51 216 115l198 127q7 6 7 15t-6 15.5t-15 6.5h-634z" />
    <glyph glyph-name="uniFEA4" unicode="&#x62d;" horiz-adv-x="1044" arabic-form="medial" 
d="M795 480q9 7 9 17q0 9 -6 15.5t-15 6.5h-625l38 187h557q64 0 112 -31t76 -81q29 -52 29 -91q0 -138 -108 -204l-24 -16q4 -51 26 -72.5t57 -21.5h123v-189h-138q-87 0 -138 52q-44 43 -67 144l-20 -13q-283 -183 -483 -183h-215q-31 0 -52 21t-21 52v42q0 35 24.5 54
t69.5 19h168q172 0 428 167l184 118z" />
    <glyph glyph-name="uniFEA6" unicode="&#x62e;" horiz-adv-x="1023" arabic-form="final" 
d="M726 940l-131 -131l-131 131l131 132zM681 197q-297 -191 -374 -282q-43 -57 -49 -133q0 -115 55 -203.5t140 -138.5q94 -53 198 -53h355l-38 -188h-316q-168 0 -298.5 81.5t-205.5 207.5q-78 132 -78 293q4 183 159 319q108 91 324 233l211 140l11 7q9 7 9 17
q0 9 -6 15.5t-15 6.5h-608l38 188h571q64 0 112 -31.5t76 -81.5q13 -23 18 -53q3 -14 3 -30v-21q0 -15 -3 -32q-4 -20 -13 -39q-33 -71 -141 -135q5 -51 28 -73.5t56 -22.5h123v-188h-137q-87 0 -138 52q-44 43 -67 145z" />
    <glyph glyph-name="uniFEA7" unicode="&#x62e;" horiz-adv-x="1065" arabic-form="initial" 
d="M686 980l-131 -131l-131 131l131 132zM156 519l38 187h595q64 0 112 -31t76 -80q17 -43 18 -83v-15q-3 -113 -128 -198l-181 -116q-286 -183 -482 -183h-211q-31 0 -52 21t-21 52v42q0 31 21 52t52 21h185q89 0 212 52q117 51 216 115l198 127q7 6 7 15t-6 15.5t-15 6.5
h-634z" />
    <glyph glyph-name="uniFEA8" unicode="&#x62e;" horiz-adv-x="1044" arabic-form="medial" 
d="M696 970l-131 -131l-131 131l131 132zM795 480q9 7 9 17q0 9 -6 15.5t-15 6.5h-625l38 187h557q64 0 112 -31t76 -81q29 -52 29 -91q0 -138 -108 -204l-24 -16q4 -51 26 -72.5t57 -21.5h123v-189h-138q-87 0 -138 52q-44 43 -67 144l-20 -13q-283 -183 -483 -183h-215
q-31 0 -52 21t-21 52v42q0 35 24.5 54t69.5 19h168q172 0 428 167l184 118z" />
    <glyph glyph-name="uniFEAA" unicode="&#x62f;" horiz-adv-x="1053" arabic-form="final" 
d="M20 0l40 188h538q21 0 37 15q8 9 12 19q3 9 3 18q0 21 -16 37l-395 395l114 152l596 -595q41 -41 104 -41v-188h-52q-86 0 -153 63l-47 47q-93 -110 -203 -110h-578z" />
    <glyph glyph-name="uniFEAC" unicode="&#x630;" horiz-adv-x="1090" arabic-form="final" 
d="M434 1073l-131 -131l-131 131l131 132zM20 0l40 188h538q21 0 37 15q8 9 12 19q3 9 3 18q0 21 -16 37l-395 395l114 152l596 -595q41 -41 104 -41v-188h-52q-86 0 -153 63l-47 47q-93 -110 -203 -110h-578z" />
    <glyph glyph-name="uniFEAE" unicode="&#x631;" horiz-adv-x="523" arabic-form="final" 
d="M-150 -457l38 188h80q92 0 159.5 67.5t67.5 159.5v638l188 38v-368q0 -33 24.5 -55.5t57.5 -22.5h58v-188h-59q-17 0 -81 10v-91q0 -111 -79 -203q-56 -78 -141.5 -125.5t-194.5 -47.5h-118z" />
    <glyph glyph-name="uniFEB0" unicode="&#x632;" horiz-adv-x="523" arabic-form="final" 
d="M422 901l-131 -131l-131 131l131 132zM-150 -457l38 188h80q92 0 159.5 67.5t67.5 159.5v638l188 38v-368q0 -33 24.5 -55.5t57.5 -22.5h58v-188h-59q-17 0 -81 10v-91q0 -111 -79 -203q-56 -78 -141.5 -125.5t-194.5 -47.5h-118z" />
    <glyph glyph-name="uniFEB2" unicode="&#x633;" horiz-adv-x="2243" arabic-form="final" 
d="M1665 268q0 -35 23.5 -57.5t58.5 -22.5h79q32 0 57 24t25 57v325l187 38v-366q0 -32 25 -55t57 -23h66v-188h-67q-90 2 -175 63q-87 -63 -175 -63h-79q-86 0 -176 64q-87 -64 -175 -64h-80q-17 0 -81 10v-91q0 -107 -80 -204q-54 -76 -140.5 -124t-195.5 -48h-167
q-168 0 -298.5 81.5t-205.5 207.5q-78 132 -78 293v316l188 38v-355q0 -114 54.5 -201.5t141.5 -138.5q89 -53 198 -53h167q92 0 160 67t68 160v636l188 38v-364q0 -33 23.5 -56.5t57.5 -23.5h80q34 0 57.5 23.5t23.5 56.5v326l188 38v-364z" />
    <glyph glyph-name="uniFEB3" unicode="&#x633;" horiz-adv-x="1299" arabic-form="initial" 
d="M798 268q0 -34 24 -57t58 -23h79q34 0 58 24t24 57v360l188 37v-401q0 -110 -78 -187.5t-191 -77.5h-80q-86 0 -175 63q-87 -63 -175 -63h-80q-84 0 -177 63q-86 -63 -174 -63h-106q-31 0 -52 21t-21 52v42q0 31 21 52t52 21h106q33 0 57 24t24 56v326l188 37v-363
q0 -34 24 -57t58 -23h79q35 0 58.5 22.5t23.5 57.5v326l187 37v-363z" />
    <glyph glyph-name="uniFEB4" unicode="&#x633;" horiz-adv-x="1368" arabic-form="medial" 
d="M959 188q33 0 57 24t24 56v325l188 38v-363q0 -34 24 -57t58 -23h58v-188h-59q-88 0 -175 63q-87 -63 -175 -63h-80q-83 0 -176 63q-86 -63 -174 -63h-80q-86 0 -175 63q-87 -63 -175 -63h-106q-31 0 -52 21t-21 52v42q0 31 21 52t52 21h105q34 0 58 23t24 57v325l187 38
v-363q0 -35 23.5 -57.5t58.5 -22.5h79q34 0 58 23t24 57v325l188 38v-363q0 -32 24 -56t57 -24h80z" />
    <glyph glyph-name="uniFEB6" unicode="&#x634;" horiz-adv-x="2243" arabic-form="final" 
d="M1585 827l-124 -124l-124 124l124 125zM1834 827l-124 -124l-124 124l124 125zM1710 998l-124 -124l-124 124l124 125zM1665 268q0 -35 23.5 -57.5t58.5 -22.5h79q32 0 57 24t25 57v325l187 38v-366q0 -32 25 -55t57 -23h66v-188h-67q-90 2 -175 63q-87 -63 -175 -63h-79
q-86 0 -176 64q-87 -64 -175 -64h-80q-17 0 -81 10v-91q0 -107 -80 -204q-54 -76 -140.5 -124t-195.5 -48h-167q-168 0 -298.5 81.5t-205.5 207.5q-78 132 -78 293v316l188 38v-355q0 -114 54.5 -201.5t141.5 -138.5q89 -53 198 -53h167q92 0 160 67t68 160v636l188 38v-364
q0 -33 23.5 -56.5t57.5 -23.5h80q34 0 57.5 23.5t23.5 56.5v326l188 38v-364z" />
    <glyph glyph-name="uniFEB7" unicode="&#x634;" horiz-adv-x="1299" arabic-form="initial" 
d="M717 847l-124 -124l-124 124l124 125zM966 847l-124 -124l-124 124l124 125zM842 1018l-124 -124l-124 124l124 125zM798 268q0 -34 24 -57t58 -23h79q34 0 58 24t24 57v360l188 37v-401q0 -110 -78 -187.5t-191 -77.5h-80q-86 0 -175 63q-87 -63 -175 -63h-80
q-84 0 -177 63q-86 -63 -174 -63h-106q-31 0 -52 21t-21 52v42q0 31 21 52t52 21h106q33 0 57 24t24 56v326l188 37v-363q0 -34 24 -57t58 -23h79q35 0 58.5 22.5t23.5 57.5v326l187 37v-363z" />
    <glyph glyph-name="uniFEB8" unicode="&#x634;" horiz-adv-x="1368" arabic-form="medial" 
d="M726 847l-124 -124l-124 124l124 125zM975 847l-124 -124l-124 124l124 125zM851 1018l-124 -124l-124 124l124 125zM959 188q33 0 57 24t24 56v325l188 38v-363q0 -34 24 -57t58 -23h58v-188h-59q-88 0 -175 63q-87 -63 -175 -63h-80q-83 0 -176 63q-86 -63 -174 -63
h-80q-86 0 -175 63q-87 -63 -175 -63h-106q-31 0 -52 21t-21 52v42q0 31 21 52t52 21h105q34 0 58 23t24 57v325l187 38v-363q0 -35 23.5 -57.5t58.5 -22.5h79q34 0 58 23t24 57v325l188 38v-363q0 -32 24 -56t57 -24h80z" />
    <glyph glyph-name="uniFEBA" unicode="&#x635;" horiz-adv-x="2398" arabic-form="final" 
d="M2144 335q-1 59 -44 102q-44 45 -105 45l-348 -1q-35 0 -58 -24q-24 -24 -24 -57v-138l-187 -57v199q0 56 20.5 102.5t58.5 84.5q76 75 189 77h349q98 0 172 -46q76 -47 119 -121q44 -75 44 -169q0 -57 -25 -133q40 -14 57 -14h36v-188h-36q-87 0 -172 62
q-99 -62 -195 -62h-682q-24 0 -82 10v-89q0 -54 -20 -104t-59 -99q-57 -76 -142 -125q-85 -47 -194 -47h-166q-166 0 -296 81q-131 81 -207 207q-77 132 -77 292v316l187 39v-356q0 -113 55 -201q54 -86 140 -138q89 -53 198 -53h166q94 0 161 66q67 67 67 161v632l187 40
v-364q2 -33 25 -56q24 -24 57 -24h682q62 0 105 43q42 41 44 100v7z" />
    <glyph glyph-name="uniFEBB" unicode="&#x635;" horiz-adv-x="1517" arabic-form="initial" 
d="M1260 342q-3 56 -44 98q-44 45 -105 45l-348 -1q-35 0 -59 -24t-24 -57v-138l-187 -58v200q0 56 21 102.5t59 84.5q75 75 189 77h350q97 0 172 -46q76 -47 118 -120q45 -75 45 -170q0 -97 -46 -170q-50 -77 -124 -121t-165 -44h-663q-89 0 -175 63q-86 -63 -175 -63h-105
q-31 0 -52 21t-21 52v42q0 30 21 51q21 22 52 22h104q32 0 57 23q25 25 25 57v325l187 38v-363q0 -33 25 -57q24 -23 57 -23h663q61 0 104 43q42 41 44 99v12z" />
    <glyph glyph-name="uniFEBC" unicode="&#x635;" horiz-adv-x="1544" arabic-form="medial" 
d="M1260 341q-2 57 -44 99q-44 45 -105 45l-348 -1q-35 0 -59 -24t-24 -57v-138l-187 -58v200q0 56 21 102.5t59 84.5q75 75 189 77h350q97 0 172 -46q76 -47 118 -120q45 -75 45 -170q0 -57 -25 -133q40 -14 56 -14h66v-188h-66q-87 0 -172 62q-98 -62 -194 -62h-663
q-89 0 -175 63q-86 -63 -175 -63h-104q-31 0 -52 21t-21 52v42q0 30 21 51q21 22 52 22h103q32 0 57 23q25 25 25 57v325l187 38v-363q0 -33 25 -57q24 -23 57 -23h663q61 0 104 43q43 41 44 100v10z" />
    <glyph glyph-name="uniFEBE" unicode="&#x636;" horiz-adv-x="2398" arabic-form="final" 
d="M1990 915l-131 -131l-131 131l131 132zM2144 335q-1 59 -44 102q-44 45 -105 45l-348 -1q-35 0 -58 -24q-24 -24 -24 -57v-138l-187 -57v199q0 56 20.5 102.5t58.5 84.5q76 75 189 77h349q98 0 172 -46q76 -47 119 -121q44 -75 44 -169q0 -57 -25 -133q40 -14 57 -14h36
v-188h-36q-87 0 -172 62q-99 -62 -195 -62h-682q-24 0 -82 10v-89q0 -54 -20 -104t-59 -99q-57 -76 -142 -125q-85 -47 -194 -47h-166q-166 0 -296 81q-131 81 -207 207q-77 132 -77 292v316l187 39v-356q0 -113 55 -201q54 -86 140 -138q89 -53 198 -53h166q94 0 161 66
q67 67 67 161v632l187 40v-364q2 -33 25 -56q24 -24 57 -24h682q62 0 105 43q42 41 44 100v7z" />
    <glyph glyph-name="uniFEBF" unicode="&#x636;" horiz-adv-x="1517" arabic-form="initial" 
d="M1065 915l-131 -131l-131 131l131 132zM1260 342q-3 56 -44 98q-44 45 -105 45l-348 -1q-35 0 -59 -24t-24 -57v-138l-187 -58v200q0 56 21 102.5t59 84.5q75 75 189 77h350q97 0 172 -46q76 -47 118 -120q45 -75 45 -170q0 -97 -46 -170q-50 -77 -124 -121t-165 -44
h-663q-89 0 -175 63q-86 -63 -175 -63h-105q-31 0 -52 21t-21 52v42q0 30 21 51q21 22 52 22h104q32 0 57 23q25 25 25 57v325l187 38v-363q0 -33 25 -57q24 -23 57 -23h663q61 0 104 43q42 41 44 99v12z" />
    <glyph glyph-name="uniFEC0" unicode="&#x636;" horiz-adv-x="1544" arabic-form="medial" 
d="M1075 915l-131 -131l-131 131l131 132zM1260 341q-2 57 -44 99q-44 45 -105 45l-348 -1q-35 0 -59 -24t-24 -57v-138l-187 -58v200q0 56 21 102.5t59 84.5q75 75 189 77h350q97 0 172 -46q76 -47 118 -120q45 -75 45 -170q0 -57 -25 -133q40 -14 56 -14h66v-188h-66
q-87 0 -172 62q-98 -62 -194 -62h-663q-89 0 -175 63q-86 -63 -175 -63h-104q-31 0 -52 21t-21 52v42q0 30 21 51q21 22 52 22h103q32 0 57 23q25 25 25 57v325l187 38v-363q0 -33 25 -57q24 -23 57 -23h663q61 0 104 43q43 41 44 100v10z" />
    <glyph glyph-name="uniFEC2" unicode="&#x637;" horiz-adv-x="1521" arabic-form="final" 
d="M582 673h504q97 0 172.5 -47t119.5 -120q45 -75 45 -148q0 -78 -26 -151q38 -19 58 -19h66v-188h-66q-87 0 -173 62q-99 -62 -196 -62h-1016l37 188h125q34 0 58 24t24 57v928l188 37v-965q0 -33 24 -57t57 -24h503q61 0 105 43t44 105q0 60 -44 105t-105 45h-562z" />
    <glyph glyph-name="uniFEC3" unicode="&#x637;" horiz-adv-x="1311" arabic-form="initial" 
d="M-80 115q0 29 22 51t51 22h57q34 0 58 24t24 57v927l188 38v-965q0 -33 24 -57t57 -24h503q61 0 105 44q44 43 44 104v2q0 61 -44 104q-44 44 -105 44h-563l58 187h505q97 0 172.5 -47.5t118.5 -119.5q46 -76 46 -169q0 -97 -47 -172t-121 -120t-169 -45h-911
q-31 0 -52 21t-21 52v42z" />
    <glyph glyph-name="uniFEC4" unicode="&#x637;" horiz-adv-x="1340" arabic-form="medial" 
d="M-81 115q0 29 22 51t51 22h58q34 0 58 24t24 57v927l188 38v-965q0 -33 24 -57t57 -24h503q61 0 105 43t44 105q0 60 -44 105t-105 45h-561l58 187h503q97 0 172.5 -47t119.5 -120q45 -75 45 -148q0 -75 -24 -151q37 -19 58 -19h65v-188h-66q-90 2 -174 62
q-99 -62 -196 -62h-912q-31 0 -52 21t-21 52v42z" />
    <glyph glyph-name="uniFEC6" unicode="&#x638;" horiz-adv-x="1521" arabic-form="final" 
d="M1051 955l-131 -131l-131 131l131 132zM582 673h504q97 0 172.5 -47t119.5 -120q45 -75 45 -148q0 -78 -26 -151q38 -19 58 -19h66v-188h-66q-87 0 -173 62q-99 -62 -196 -62h-1016l37 188h125q34 0 58 24t24 57v928l188 37v-965q0 -33 24 -57t57 -24h503q61 0 105 43
t44 105q0 60 -44 105t-105 45h-562z" />
    <glyph glyph-name="uniFEC7" unicode="&#x638;" horiz-adv-x="1311" arabic-form="initial" 
d="M856 945l-131 -131l-131 131l131 132zM-80 115q0 29 22 51t51 22h57q34 0 58 24t24 57v927l188 38v-965q0 -33 24 -57t57 -24h503q61 0 105 44q44 43 44 104v2q0 61 -44 104q-44 44 -105 44h-563l58 187h505q97 0 172.5 -47.5t118.5 -119.5q46 -76 46 -169
q0 -97 -47 -172t-121 -120t-169 -45h-911q-31 0 -52 21t-21 52v42z" />
    <glyph glyph-name="uniFEC8" unicode="&#x638;" horiz-adv-x="1340" arabic-form="medial" 
d="M856 945l-131 -131l-131 131l131 132zM-81 115q0 29 22 51t51 22h58q34 0 58 24t24 57v927l188 38v-965q0 -33 24 -57t57 -24h503q61 0 105 43t44 105q0 60 -44 105t-105 45h-561l58 187h503q97 0 172.5 -47t119.5 -120q45 -75 45 -148q0 -75 -24 -151q37 -19 58 -19h65
v-188h-66q-90 2 -174 62q-99 -62 -196 -62h-912q-31 0 -52 21t-21 52v42z" />
    <glyph glyph-name="uniFECA" unicode="&#x639;" horiz-adv-x="1026" arabic-form="final" 
d="M452 484q-17 0 -27 -10q-10 -9 -10 -27l2 -6q4 -14 15 -21l264 -202q41 -30 74 -30h256v-188h-546q-93 0 -157.5 -68t-64.5 -163q0 -106 57.5 -194t137.5 -135q94 -53 198 -53h355l-38 -188h-316q-168 0 -298.5 81.5t-205.5 207.5q-78 132 -78 293q3 105 49.5 189
t121.5 138q56 45 126 68l30 30l-211 162q-12 7 -21.5 24.5t-9.5 33.5q0 14 9 41l66 158q11 28 27.5 38t49.5 10h396q111 0 186.5 -77t78.5 -191v-133l-187 -57v187q0 35 -25 58.5t-58 23.5h-246z" />
    <glyph glyph-name="uniFECB" unicode="&#x639;" horiz-adv-x="958" arabic-form="initial" 
d="M-10 0q-31 0 -52 21t-21 52v42q0 29 22 51t51 22h224q-32 93 -32 168q0 83 50 157t118 115q75 46 169 46h236l-37 -187h-199q-61 0 -105.5 -44.5t-44.5 -106.5t44 -105t106 -43h369l-37 -188h-861z" />
    <glyph glyph-name="uniFECC" unicode="&#x639;" horiz-adv-x="1049" arabic-form="medial" 
d="M409 484q-13 0 -22 -6q-15 -9 -15 -27t16 -30l265 -203q39 -30 68 -30h328v-188h-351q-51 0 -82 14t-89 60q-119 -74 -224 -74h-323q-31 0 -52 21t-21 52v42q0 29 22 51t51 22h398l-234 178q-32 22 -32 57q0 23 9 43l66 158q12 30 28 39.5t58 9.5h387q111 0 186.5 -77
t78.5 -191v-123l-187 -57v177q0 35 -25 58.5t-58 23.5h-246z" />
    <glyph glyph-name="uniFECE" unicode="&#x63a;" horiz-adv-x="1026" arabic-form="final" 
d="M702 945l-131 -131l-131 131l131 132zM452 484q-17 0 -27 -10q-10 -9 -10 -27l2 -6q4 -14 15 -21l264 -202q41 -30 74 -30h256v-188h-546q-93 0 -157.5 -68t-64.5 -163q0 -106 57.5 -194t137.5 -135q94 -53 198 -53h355l-38 -188h-316q-168 0 -298.5 81.5t-205.5 207.5
q-78 132 -78 293q3 105 49.5 189t121.5 138q56 45 126 68l30 30l-211 162q-12 7 -21.5 24.5t-9.5 33.5q0 14 9 41l66 158q11 28 27.5 38t49.5 10h396q111 0 186.5 -77t78.5 -191v-133l-187 -57v187q0 35 -25 58.5t-58 23.5h-246z" />
    <glyph glyph-name="uniFECF" unicode="&#x63a;" horiz-adv-x="958" arabic-form="initial" 
d="M667 945l-131 -131l-131 131l131 132zM-10 0q-31 0 -52 21t-21 52v42q0 29 22 51t51 22h224q-32 93 -32 168q0 83 50 157t118 115q75 46 169 46h236l-37 -187h-199q-61 0 -105.5 -44.5t-44.5 -106.5t44 -105t106 -43h369l-37 -188h-861z" />
    <glyph glyph-name="uniFED0" unicode="&#x63a;" horiz-adv-x="1049" arabic-form="medial" 
d="M666 945l-131 -131l-131 131l131 132zM409 484q-13 0 -22 -6q-15 -9 -15 -27t16 -30l265 -203q39 -30 68 -30h328v-188h-351q-51 0 -82 14t-89 60q-119 -74 -224 -74h-323q-31 0 -52 21t-21 52v42q0 29 22 51t51 22h398l-234 178q-32 22 -32 57q0 23 9 43l66 158
q12 30 28 39.5t58 9.5h387q111 0 186.5 -77t78.5 -191v-123l-187 -57v177q0 35 -25 58.5t-58 23.5h-246z" />
    <glyph glyph-name="uniFED2" unicode="&#x641;" horiz-adv-x="1690" arabic-form="final" 
d="M1344 1164l-131 -131l-131 131l131 132zM1290 914q111 0 188 -77.5t77 -191.5v-380q0 -32 24.5 -54.5t57.5 -22.5h53v-188h-54q-88 0 -175 63q-87 -63 -175 -63h-947q-113 0 -188.5 76.5t-80.5 189.5v327l188 38v-362q0 -33 24 -57t57 -24h947q31 0 56.5 22t25.5 55v380
q0 34 -24 58t-58 24h-136q-48 0 -82.5 -35.5t-34.5 -82.5q0 -49 35 -83t82 -34h202l-59 -188h-143q-122 0 -213.5 90.5t-91.5 215.5q0 124 90.5 214t214.5 90h140z" />
    <glyph glyph-name="uniFED3" unicode="&#x641;" horiz-adv-x="879" arabic-form="initial" 
d="M594 1164l-131 -131l-131 131l131 132zM543 934q112 0 189 -77.5t77 -191.5v-400q0 -111 -77.5 -188t-191.5 -77h-550q-31 0 -52 21t-21 52v42q0 29 22 51t51 22h549q34 0 58 24t24 57v396q0 33 -23.5 57.5t-57.5 24.5h-134q-48 0 -83 -35q-33 -33 -35 -78v-6
q0 -48 35 -82t82 -34h199l-57 -188h-142q-121 0 -212.5 90t-91.5 216q0 124 90.5 214t214.5 90h137z" />
    <glyph glyph-name="uniFED4" unicode="&#x641;" horiz-adv-x="981" arabic-form="medial" 
d="M594 1164l-131 -131l-131 131l131 132zM543 914q111 0 186 -77.5t80 -192.5v-376q0 -34 24 -57t57 -23h91v-188h-91q-88 0 -175 63q-85 -61 -175 -63h-550q-31 0 -52 21t-21 52v42q0 29 22 51t51 22h549q34 0 58 24t24 57v376q0 33 -23.5 57.5t-57.5 24.5h-134
q-48 0 -83 -35q-34 -33 -35 -80v-4q0 -48 35 -82t82 -34h199l-57 -188h-142q-123 0 -213.5 90t-90.5 216q0 124 90.5 214t214.5 90h137z" />
    <glyph glyph-name="uniFED6" unicode="&#x642;" horiz-adv-x="1352" arabic-form="final" 
d="M915 901l-124 -124l-124 124l124 125zM1164 901l-124 -124l-124 124l124 125zM527 368q0 125 90.5 215.5t214.5 90.5h137q112 0 189 -77.5t77 -191.5v-137q0 -33 23.5 -56.5t57.5 -23.5h36v-188h-36q-17 0 -81 10v-91q0 -107 -80 -204q-54 -76 -140.5 -124t-195.5 -48
h-167q-168 0 -298.5 81.5t-205.5 207.5q-78 132 -78 293v317l188 40v-358q0 -114 54.5 -201.5t141.5 -138.5q89 -53 198 -53h167q95 0 161.5 66.5t66.5 159.5v447q0 34 -24 58t-57 24h-134q-48 0 -83 -35q-33 -32 -35 -78v-8q1 -47 35 -80q35 -34 82 -34h199l-57 -187h-142
q-123 0 -213.5 89.5t-90.5 214.5z" />
    <glyph glyph-name="uniFED7" unicode="&#x642;" horiz-adv-x="879" arabic-form="initial" 
d="M543 934q112 0 189 -77.5t77 -191.5v-400q0 -111 -77.5 -188t-191.5 -77h-550q-31 0 -52 21t-21 52v42q0 29 22 51t51 22h549q34 0 58 24t24 57v396q0 33 -23.5 57.5t-57.5 24.5h-134q-48 0 -83 -35q-33 -33 -35 -78v-6q0 -48 35 -82t82 -34h199l-57 -188h-142
q-121 0 -212.5 90t-91.5 216q0 124 90.5 214t214.5 90h137zM472 1176l-124 -124l-124 124l124 125zM721 1176l-124 -124l-124 124l124 125z" />
    <glyph glyph-name="uniFED8" unicode="&#x642;" horiz-adv-x="981" arabic-form="medial" 
d="M472 1176l-124 -124l-124 124l124 125zM721 1176l-124 -124l-124 124l124 125zM543 914q111 0 186 -77.5t80 -192.5v-376q0 -34 24 -57t57 -23h91v-188h-91q-88 0 -175 63q-85 -61 -175 -63h-550q-31 0 -52 21t-21 52v42q0 29 22 51t51 22h549q34 0 58 24t24 57v376
q0 33 -23.5 57.5t-57.5 24.5h-134q-48 0 -83 -35q-34 -33 -35 -80v-4q0 -48 35 -82t82 -34h199l-57 -188h-142q-123 0 -213.5 90t-90.5 216q0 124 90.5 214t214.5 90h137z" />
    <glyph glyph-name="uniFEDA" unicode="&#x643;" horiz-adv-x="1562" arabic-form="final" 
d="M339 0q-114 0 -191.5 77t-77.5 188v328l188 37v-361q0 -33 24 -57t57 -24h779q35 0 58 24.5t23 59.5v925l188 38v-966q0 -33 24 -57t58 -24h93v-188h-94q-88 0 -175 63q-87 -63 -175 -63h-779zM688 621q0 -24 15.5 -40t39.5 -16q7 0 12 1l100 31l37 -61l-322 -101l1 71
l81 28q-32 43 -32 78q0 47 19 78.5t58 43.5l80 24l32 -62l-84 -25q-16 -5 -26.5 -18.5t-10.5 -31.5z" />
    <glyph glyph-name="uniFEDB" unicode="&#x643;" horiz-adv-x="828" arabic-form="initial" 
d="M-10 0q-31 0 -52 21t-21 52v42q0 29 22 51t51 22h483q53 0 53 52q0 21 -16 37l-373 373q-36 36 -36 115q0 125 107 186l479 277l71 -179l-480 -274l366 -366q69 -69 69 -168q0 -98 -71 -169.5t-168 -71.5h-484z" />
    <glyph glyph-name="uniFEDC" unicode="&#x643;" horiz-adv-x="940" arabic-form="medial" 
d="M-10 0q-31 0 -52 21t-21 52v42q0 29 22 51t51 22h483q53 0 53 52q0 21 -16 37l-373 373q-36 36 -36 115q0 121 107 186l479 276l70 -177l-479 -276l546 -546q40 -40 116 -40v-188h-64q-84 0 -152 63l-47 46q-93 -109 -203 -109h-484z" />
    <glyph glyph-name="uniFEDE" unicode="&#x644;" horiz-adv-x="1382" arabic-form="final" 
d="M258 124q0 -164 115 -278.5t279 -114.5h167q93 0 159 65t69 158v1241l188 38v-966q0 -32 23.5 -55.5t57.5 -23.5h66v-188h-66q-17 0 -81 10v-91q0 -107 -80 -204q-54 -76 -140.5 -124t-195.5 -48h-167q-168 0 -298.5 81.5t-205.5 207.5q-78 132 -78 293v317l188 38v-356z
" />
    <glyph glyph-name="uniFEDF" unicode="&#x644;" horiz-adv-x="400" arabic-form="initial" 
d="M-78 115q0 31 21 52t52 21h66q35 0 58.5 25t23.5 59v924l187 38v-969q0 -111 -77.5 -188t-191.5 -77h-66q-31 0 -52 21t-21 52v42z" />
    <glyph glyph-name="uniFEE0" unicode="&#x644;" horiz-adv-x="491" arabic-form="medial" 
d="M-80 115q0 31 21 52t52 21h64q35 0 58 24.5t23 59.5v923l188 38v-964q0 -33 24 -57t58 -24h83v-188h-84q-88 0 -175 63q-87 -63 -175 -63h-64q-31 0 -52 21t-21 52v42z" />
    <glyph glyph-name="uniFEE2" unicode="&#x645;" horiz-adv-x="1264" arabic-form="final" 
d="M856 673q110 0 187.5 -78t77.5 -191v-139q0 -32 24.5 -54.5t57.5 -22.5h61v-188h-62q-48 0 -109 23q-56 -99 -132.5 -148.5t-176.5 -49.5q-97 0 -172 47t-118 121q-46 79 -46 169v240l187 60v-300q0 -61 44 -105q42 -43 102 -44h5q60 1 103 44q44 44 44 105v241
q0 33 -23.5 58t-57.5 25h-513q-33 0 -57 -24t-24 -58v-827l-188 -37v867q5 113 81 189.5t188 76.5h517z" />
    <glyph glyph-name="uniFEE3" unicode="&#x645;" horiz-adv-x="1095" arabic-form="initial" 
d="M688 188q61 0 105 43t44 105t-44 106t-105 44h-142q-103 -6 -136 -90l-70 -178q-37 -92 -121 -155t-195 -63h-34q-31 0 -52 21t-21 52v42q0 29 22 51t51 22h34q98 0 139 94l67 167q38 93 123.5 158.5t193.5 65.5h141q97 0 172.5 -47t119.5 -120q45 -75 45 -170
q0 -97 -47 -172t-121 -118q-79 -46 -169 -46h-265l-58 188h323z" />
    <glyph glyph-name="uniFEE4" unicode="&#x645;" horiz-adv-x="1152" arabic-form="medial" 
d="M688 188q61 0 105 43t44 105t-44 106t-105 44h-142q-103 -6 -136 -90l-70 -178q-37 -92 -121 -155t-195 -63h-34q-31 0 -52 21t-21 52v42q0 29 22 51t51 22h34q98 0 139 94l67 167q38 93 123.5 158.5t193.5 65.5h141q97 0 172.5 -47t119.5 -120q45 -75 45 -170
q0 -33 -6 -64q0 -37 24.5 -60.5t57.5 -23.5h51v-188h-51q-98 0 -195 80q-29 -21 -50 -34q-78 -46 -168 -46h-265l-58 188h323z" />
    <glyph glyph-name="uniFEE6" unicode="&#x646;" horiz-adv-x="1382" arabic-form="final" 
d="M1235 -81q0 -108 -80 -204q-55 -77 -141.5 -124.5t-194.5 -47.5h-167q-166 0 -297.5 81.5t-206.5 207.5q-78 132 -78 293v316l188 37v-354q0 -114 54.5 -201t141.5 -139q89 -53 198 -53h167q94 0 161 66t67 161v637l188 38v-368q0 -32 24.5 -54.5t56.5 -22.5h66v-188h-66
q-19 0 -81 10v-91zM828 370l-131 -131l-131 131l131 132z" />
    <glyph glyph-name="uniFEE7" unicode="&#x646;" horiz-adv-x="590" arabic-form="initial" 
d="M509 910l-131 -131l-131 131l131 132zM-83 115q0 29 22 51t51 22h260q34 0 58 24t24 57v359l188 38v-400q-5 -113 -80.5 -188t-188.5 -78h-261q-31 0 -52 21t-21 52v42z" />
    <glyph glyph-name="uniFEE8" unicode="&#x646;" horiz-adv-x="651" arabic-form="medial" 
d="M429 910l-131 -131l-131 131l131 132zM174 188q34 0 58 24t24 57v323l188 38v-361q0 -33 24 -57t57 -24h126v-188h-126q-88 0 -175 63q-87 -63 -175 -63h-185q-31 0 -52 21t-21 52v42q0 29 22 51t51 22h184z" />
    <glyph glyph-name="uniFEEA" unicode="&#x647;" horiz-adv-x="1043" arabic-form="final" 
d="M258 336q0 -62 44 -105t105 -43h242l-60 -188h-182q-97 0 -172 47t-120 121t-45 168q0 97 47 172.5t120 119.5q75 45 170 45h57q112 0 194 -61.5t123 -162.5l66 -166q38 -95 140 -95h56v-188h-56q-111 0 -194.5 62.5t-121.5 155.5l-70 179q-43 89 -137 89h-57
q-61 0 -105 -44t-44 -106z" />
    <glyph glyph-name="uniFEEB" unicode="&#x647;" horiz-adv-x="1338" arabic-form="initial" 
d="M931 188q59 0 104 43t45 102q0 65 -36 101l-444 384l117 157l439 -388q112 -111 112 -250q0 -141 -93.5 -239t-227.5 -98h-72q-88 0 -175 63q-87 -63 -175 -63h-535q-31 0 -52 21t-21 52v42q0 29 22 51t51 22h534q34 0 58 22t24 55v186q0 61 -44 105q-42 42 -101 44h-5
q-61 0 -104 -44q-44 -44 -44 -105v-242l-187 59l-1 185q0 97 46.5 171.5t121.5 117.5q76 46 169 46q97 0 173 -47t118 -120q46 -79 46 -170v-186q0 -32 24.5 -54.5t56.5 -22.5h56z" />
    <glyph glyph-name="uniFEEC" unicode="&#x647;" horiz-adv-x="1398" arabic-form="medial" 
d="M1150 73q-98 -73 -203 -73h-72q-88 0 -175 63q-87 -63 -175 -63h-535q-31 0 -52 21t-21 52v42q0 29 22 51t51 22h534q34 0 58 22t24 55v186q0 61 -44 105q-42 43 -101 44h-5q-60 0 -104 -44t-44 -105v-242l-187 58l-1 186q0 97 46.5 171.5t121.5 117.5q76 46 169 46
q97 0 173 -47t118 -120q46 -79 46 -170v-186q0 -32 24.5 -54.5t56.5 -22.5h56q59 0 104 43t45 102q0 65 -36 101l-444 384l117 157l439 -388q112 -111 112 -250q0 -43 -10 -90q8 -24 21 -36q24 -23 58 -23h61v-188h-62q-88 0 -157 50z" />
    <glyph glyph-name="uniFEEE" unicode="&#x648;" horiz-adv-x="947" arabic-form="final" 
d="M76 -457l38 188h270q93 0 160.5 66.5t67.5 160.5v447q0 33 -25 57t-57 24h-123q-61 0 -105 -44t-44 -105v-2q1 -60 44 -103q44 -44 105 -44h186l-56 -188h-145q-89 0 -162.5 48t-115.5 121q-44 75 -44 169q0 96 47.5 172t119.5 118q79 46 170 46h123q113 -5 189.5 -80
t80.5 -186v-141q0 -33 24 -56t57 -23h66v-188h-66q-17 0 -81 10v-91q0 -107 -80 -204q-54 -76 -140.5 -124t-195.5 -48h-308z" />
    <glyph glyph-name="uniFEF2" unicode="&#x64a;" horiz-adv-x="1391" arabic-form="final" 
d="M258 124q0 -165 114.5 -279t279.5 -114h167q93 0 160.5 66.5t67.5 160.5v42h-347l40 188h651v-188h-156v-81q0 -139 -108 -247q-60 -60 -140.5 -94.5t-167.5 -34.5h-167q-168 1 -297.5 82t-205.5 207q-79 133 -79 293v316l188 37v-354z" />
    <glyph glyph-name="uniFEF3" unicode="&#x64a;" horiz-adv-x="590" arabic-form="initial" 
d="M173 -355l-124 -124l-124 124l124 125zM422 -355l-124 -124l-124 124l124 125zM-83 115q0 29 22 51t51 22h260q34 0 58 24t24 57v359l188 38v-400q-5 -113 -80.5 -188t-188.5 -78h-261q-31 0 -52 21t-21 52v42z" />
    <glyph glyph-name="uniFEF4" unicode="&#x64a;" horiz-adv-x="651" arabic-form="medial" 
d="M153 -354l-124 -124l-124 124l124 125zM402 -354l-124 -124l-124 124l124 125zM174 188q34 0 58 24t24 57v323l188 38v-361q0 -33 24 -57t57 -24h126v-188h-126q-88 0 -175 63q-87 -63 -175 -63h-185q-31 0 -52 21t-21 52v42q0 29 22 51t51 22h184z" />
    <glyph glyph-name=".notdef" horiz-adv-x="644" 
d="M70 20v1325h504v-1325h-504zM98 48h448v1269h-448v-1269z" />
    <glyph glyph-name="uni0000" 
 />
    <glyph glyph-name="uni0000" 
 />
    <glyph glyph-name="nonmarkingreturn" horiz-adv-x="682" 
 />
    <glyph glyph-name="space" unicode=" " horiz-adv-x="400" 
 />
    <glyph glyph-name="exclam" unicode="!" horiz-adv-x="312" 
d="M235 1163v-728l-155 -35v730zM86.5 58q-26.5 28 -26.5 68q0 43 26.5 71t67.5 28q43 0 70.5 -28t27.5 -71q0 -40 -28 -68t-70 -28q-41 0 -67.5 28z" />
    <glyph glyph-name="quotedbl" unicode="&#x22;" horiz-adv-x="413" 
d="M146 850h-62l-29 208l-5 130h130l-5 -130zM329 850h-62l-30 208l-3 130h129l-5 -130z" />
    <glyph glyph-name="numbersign" unicode="#" horiz-adv-x="815" 
d="M141 -10l38 317h-129v95h140l30 245h-137v98h151l33 280h82l-35 -280h234l36 280h81l-34 -280h134v-98h-146l-30 -245h143v-95h-154l-39 -317h-84l40 317h-232l-38 -317h-84zM273 417h231l32 245h-234z" />
    <glyph glyph-name="dollar" unicode="$" horiz-adv-x="849" 
d="M397 888v152h56v-152h343l-48 -188h-413q-30 0 -54 -24t-24 -56t23.5 -54.5t53.5 -22.5h181q76 0 141 -36.5t104 -97.5t39 -138q0 -76 -39 -137.5t-104 -97.5t-141 -36h-62v-151h-56v151h-341l49 187h410q32 0 54.5 27t22.5 57t-21.5 56t-54.5 26h-180q-77 1 -142 35
t-104.5 93t-39.5 136q0 76 39 137.5t104 97.5t141 36h63z" />
    <glyph glyph-name="percent" unicode="%" horiz-adv-x="912" 
d="M70 1150q0 49 35.5 84.5t84.5 35.5t84.5 -35.5t35.5 -84.5t-35.5 -84.5t-84.5 -35.5t-84.5 35.5t-35.5 84.5zM602 250q0 49 35.5 84.5t84.5 35.5t84.5 -35.5t35.5 -84.5t-35.5 -84.5t-84.5 -35.5t-84.5 35.5t-35.5 84.5zM773 1370l-602 -1340h-94l602 1340h94z" />
    <glyph glyph-name="ampersand" unicode="&#x26;" horiz-adv-x="983" 
d="M371 897q-38 6 -71 -17q-33 -25 -39 -63t17 -72q10 -12 24 -25t27 -24q9 -7 21 -18l7 5q6 4 14 10q15 10 31.5 22.5t27.5 24.5q21 26 22 58t-21 62.5t-60 36.5zM895 5l-215 198l-110 -106q-72 -76 -179 -91q-13 -2 -52 -2q-113 5 -193 79t-95 185l-1 56q11 160 154 246
l44 32q-15 14 -21 19q-27 23 -49 52q-35 50 -41 105q-1 9 -1 23q-1 15 3 35q13 87 88 144q59 41 125 42q19 0 39 -3q86 -14 143 -88q25 -35 35 -73q13 -58 -2 -119q-14 -47 -49 -86q-25 -26 -76 -61l235 -216l65 63l125 -53l-98 -95l164 -150zM339 518q-21 -16 -54.5 -37.5
t-72.5 -64.5q-31 -34 -38 -86l2 -52q15 -89 93 -130q7 -4 15 -7q19 -8 37 -11q11 -2 22 -3q12 0 23 1q24 2 48 11q15 6 31 15q18 12 47.5 40.5t56.5 56.5l38 38z" />
    <glyph glyph-name="quotesingle" unicode="'" horiz-adv-x="230" 
d="M146 880h-62l-29 208l-5 130h130l-5 -130z" />
    <glyph glyph-name="parenleft" unicode="(" horiz-adv-x="473" 
d="M235 590q0 -350 82 -617.5t206 -454.5l-150 17l-53 68q-137 191 -194 418q-51 204 -56 497v161q6 283 56 481q57 227 195 419l52 78l147 9l-3 -5q-282 -429 -282 -1071z" />
    <glyph glyph-name="parenright" unicode=")" horiz-adv-x="473" 
d="M238 610q0 642 -280 1064l-8 12l150 -9l52 -78q138 -192 195 -419q51 -203 56 -496v-155q-6 -287 -56 -488q-57 -227 -194 -418l-53 -68l-150 -17q124 187 206 454.5t82 617.5z" />
    <glyph glyph-name="asterisk" unicode="*" horiz-adv-x="833" 
d="M517 450l181 -180l-59 -60l-180 181v-255h-84v256l-181 -182l-59 60l181 180h-256v84h256l-181 180l59 60l181 -181v256h84v-256l180 181l59 -60l-181 -180h256v-84h-256z" />
    <glyph glyph-name="plus" unicode="+" horiz-adv-x="895" 
d="M395 505h-325v126h325v322h105v-322h325v-126h-325v-327h-105v327z" />
    <glyph glyph-name="comma" unicode="," horiz-adv-x="370" 
d="M103 94q-33 33 -33 79t33 78t78 32q59 0 89 -36.5t30 -99.5q0 -69 -27.5 -137t-97.5 -145l-58 60q57 64 83 136h-19q-45 0 -78 33z" />
    <glyph glyph-name="hyphen" unicode="-" horiz-adv-x="958" 
d="M858 447h-758v101h758v-101z" />
    <glyph glyph-name="period" unicode="." horiz-adv-x="380" 
d="M70 129q0 49 35 84t84 35q50 0 85.5 -34.5t35.5 -84.5q0 -49 -35.5 -84t-84.5 -35t-84.5 35t-35.5 84z" />
    <glyph glyph-name="slash" unicode="/" horiz-adv-x="616" 
d="M138 -68l-88 9l425 1419l91 -11z" />
    <glyph glyph-name="zero" unicode="0" horiz-adv-x="763" 
d="M521 450q9 28 9 46q0 58 -43 102t-102 44q-60 0 -103 -44t-43 -102.5t44 -101.5t102 -43t103 44q24 27 33 55zM572 271q-84 -71 -191 -71q-122 0 -211.5 90t-89.5 212q0 123 89 212t212 89q122 0 212 -89.5t90 -211.5q0 -93 -53 -169q-13 -17 -30.5 -35t-27.5 -27z" />
    <glyph glyph-name="one" unicode="1" horiz-adv-x="512" 
d="M311 38l-188 -38v927q0 72 -17 160l-15 64l-11 39l182 38l10 -36l18 -74q14 -51 22 -162z" />
    <glyph glyph-name="two" unicode="2" horiz-adv-x="805" 
d="M269 896q5 -42 39 -75q39 -40 91 -40h7q55 0 93 39t38 93v275l188 38v-313q-5 -133 -95 -224t-221 -95h-12q-48 0 -129 26v-582l-188 -38v927q0 72 -17 160l-15 64l-11 39l182 38l10 -36l18 -74q14 -51 22 -162v-60z" />
    <glyph glyph-name="three" unicode="3" horiz-adv-x="1262" 
d="M269 897q5 -42 39 -75q39 -40 91 -40h7q55 0 93 39t38 93v275l188 37v-312q0 -54 38 -93t93 -39h7q52 0 91.5 39.5t39.5 92.5v274l188 38v-312q-5 -133 -95 -224t-221 -95h-12q-121 3 -223 92q-102 -89 -222 -92h-12q-48 0 -129 26v-583l-188 -38v927q0 72 -17 160
l-15 64l-11 39l182 38l10 -36l18 -74q14 -51 22 -162v-59z" />
    <glyph glyph-name="four" unicode="4" horiz-adv-x="1070" 
d="M269 776h138q-26 83 -26 107v35q4 131 95 220.5t224 94.5h252l-39 -187h-213q-54 0 -93 -39t-39 -93v-6q0 -54 39 -93t93 -39h337l-38 -187h-731v-551l-188 -38v927q0 72 -17 160l-15 64l-11 39l182 38l10 -36l18 -74q14 -51 22 -162v-180z" />
    <glyph glyph-name="five" unicode="5" horiz-adv-x="1296" 
d="M431 912l189 -67l-341 -431q-21 -37 -21 -77q0 -60 42 -104t100 -45h8q58 1 100 40q45 39 47 116v137l187 38v-185q4 -74 48 -110t101 -36h2q59 0 103 45q43 45 43 104q0 49 -24 81v2l-570 650l108 156q269 -306 383 -432q213 -240 216 -245q74 -92 74 -199
q0 -205 -167 -304q-76 -46 -169 -46q-128 0 -242 101q-114 -101 -223 -101q-158 0 -256.5 98t-98.5 256q0 109 83 204z" />
    <glyph glyph-name="six" unicode="6" horiz-adv-x="1043" 
d="M326 651.5q58 -56.5 133 -56.5q74 1 133 57l195 197l186 -78l-752 -762l-106 160l245 248q-109 45 -167 100q-112 116 -113 262v7q2 155 126 281l158 156l175 -89l-217 -216q-53 -58 -54 -129v-5q0 -76 58 -132.5z" />
    <glyph glyph-name="seven" unicode="7" horiz-adv-x="937" 
d="M464 0q-100 0 -174 64.5t-93 152.5q0 15 -3 18l-164 946l180 51l168 -960q16 -84 86 -84q66 0 83 69l6 32l156 890l198 50l-175 -1006q-17 -91 -92 -157t-176 -66z" />
    <glyph glyph-name="eight" unicode="8" horiz-adv-x="937" 
d="M473 1232q100 0 174 -64.5t93 -152.5q0 -15 3 -18l164 -946l-180 -51l-168 960q-16 84 -86 84q-62 0 -81 -60q-3 -11 -9 -44l-155 -887l-198 -50l175 1006q17 91 92 157t176 66z" />
    <glyph glyph-name="nine" unicode="9" horiz-adv-x="918" 
d="M388 565q-90 0 -160.5 48t-106.5 118q-41 79 -41 170q0 98 47 173t120 119q76 46 170 46h163q109 -4 182 -80t76 -189v-932l-188 -38v969q0 34 -24 58t-57 24h-152q-61 0 -105 -44q-43 -42 -44 -103v-2q0 -61 44 -105t105 -44h214l-65 -188h-178z" />
    <glyph glyph-name="colon" unicode=":" horiz-adv-x="391" 
d="M105 36q-35 36 -35 89q0 56 35 92.5t89 36.5q56 0 91.5 -36.5t35.5 -92.5q0 -52 -36.5 -88.5t-90.5 -36.5t-89 36zM105 496q-35 36 -35 89q0 56 35 92.5t89 36.5q56 0 91.5 -36.5t35.5 -92.5q0 -52 -36.5 -88.5t-90.5 -36.5t-89 36z" />
    <glyph glyph-name="semicolon" unicode=";" horiz-adv-x="375" 
d="M89 289q-39 39 -39 94q0 53 39 91.5t92 38.5q70 0 105 -43.5t35 -116.5q0 -82 -32 -161.5t-115 -171.5l-70 73q68 75 98 157h-21q-53 0 -92 39zM287 953.5q38 -39.5 38 -95.5q0 -60 -38 -99.5t-96 -39.5q-60 0 -98.5 39.5t-38.5 99.5q0 56 39.5 95.5t97.5 39.5t96 -39.5z
" />
    <glyph glyph-name="less" unicode="&#x3c;" horiz-adv-x="868" 
d="M818 261v-147l-768 298v139l768 295v-147l-309 -103l-262 -91v-47l262 -93z" />
    <glyph glyph-name="equal" unicode="=" horiz-adv-x="920" 
d="M850 500h-780v101h780v-101zM850 201h-780v101h780v-101z" />
    <glyph glyph-name="greater" unicode="&#x3e;" horiz-adv-x="868" 
d="M50 261l309 104l262 93v47l-262 91l-309 103v147l768 -295v-139l-768 -298v147z" />
    <glyph glyph-name="question" unicode="?" horiz-adv-x="697" 
d="M209 878v-234l-159 38v206q10 115 94 197t204 82q119 0 204 -81.5t95 -196.5v-129q-13 -131 -119 -214l-322 -256l-5 201l237 187q39 31 48 84l2 112q-4 56 -43.5 95t-96.5 39q-55 0 -94 -38t-45 -92zM231.5 31q-32.5 34 -32.5 83q0 52 32.5 85.5t82.5 33.5
q51 0 84.5 -33.5t33.5 -85.5q0 -49 -34 -83t-84 -34t-82.5 34z" />
    <glyph glyph-name="at" unicode="@" horiz-adv-x="1510" 
d="M1116 365q203 42 217 294q0 106 -29 198.5t-92 160.5q-138 151 -391 151q-120 0 -236 -50t-202 -141q-92 -91 -144.5 -220t-52.5 -281q0 -132 43 -236t121 -176q74 -68 172 -102.5t209 -34.5q73 0 149 20.5t123 45.5l42 -107q-142 -77 -332 -77q-134 0 -254.5 41
t-207.5 122q-97 87 -149 211t-52 285q0 181 61.5 332.5t174.5 263.5q108 107 251 165.5t305 58.5q140 0 254.5 -44.5t197.5 -126.5q81 -85 123.5 -200t42.5 -252q0 -114 -34.5 -205t-94.5 -153q-56 -59 -115.5 -87.5t-120.5 -31.5q-94 0 -158 65q-32 32 -49.5 71t-17.5 87
l1 276q0 21 -15 36q-15 14 -37 14h-100q-78 0 -132 -54.5t-54 -131.5q0 -78 55 -133t132 -55h108l-55 -175h-53q-99 0 -181.5 49t-131.5 131.5t-49 182.5q0 99 49 181.5t131.5 131.5t181.5 49h100q95 0 159 -65q32 -32 49 -71t17 -86l1 -278q0 -20 14 -34q3 -4 10.5 -9
t14.5 -6t12 -1z" />
    <glyph glyph-name="A" unicode="A" horiz-adv-x="1043" 
d="M738 463l-88 489q-15 63 -71.5 83.5t-113 0t-72.5 -83.5l-172 -952h-191l172 949q5 20 20 74q31 93 109 154q83 63 190 63q108 0 190.5 -63.5t112.5 -163.5l17 -65l172 -948h-191l-50 273h-386l-69 190h421z" />
    <glyph glyph-name="B" unicode="B" horiz-adv-x="1072" 
d="M627 1240q99 -2 178.5 -50.5t127 -129t47.5 -179.5q0 -117 -92 -235q80 -65 112 -121.5t32 -165.5q0 -71 -41 -150t-110.5 -137t-154.5 -72h-399l-70 189h416q71 0 120.5 50t49.5 120t-49.5 120t-120.5 50h-346l-70 189h364q70 0 120 49.5t50 113.5q0 71 -50 120.5
t-120 49.5h-316q-26 -6 -42 -22q-24 -25 -24 -59v-970h-189v974q0 112 78 189t192 77h307z" />
    <glyph glyph-name="C" unicode="C" horiz-adv-x="1022" 
d="M660 1240h312l-43 -189h-269q-120 -2 -217.5 -60t-155.5 -156.5t-58 -217.5q0 -113 58 -211.5t155.5 -156.5t217.5 -60h312l-43 -189h-269q-173 3 -313 86t-223.5 224t-83.5 307q0 172 83.5 313t223.5 224t313 86z" />
    <glyph glyph-name="D" unicode="D" horiz-adv-x="1198" 
d="M305 1053q-26 -6 -42 -23q-24 -24 -24 -58v-972h-189v976q0 111 78 188q60 60 142 73q25 4 50 4h224q172 -4 310.5 -87.5t221 -223.5t82.5 -309q0 -172 -84 -313t-225.5 -224.5t-313.5 -83.5h-208l-70 188h303q116 8 208 66.5t146.5 154t54.5 212.5q0 116 -57 213
t-152.5 156t-214.5 63h-240z" />
    <glyph glyph-name="E" unicode="E" horiz-adv-x="872" 
d="M665 525l-426 -4v-251q0 -34 24 -58q16 -17 42 -23h527l-37 -189h-475q-114 0 -192 77t-78 189v709q1 111 78 187q60 60 142 73l4 1q22 3 46 3h512l-37 -189h-490q-26 -6 -42 -22q-24 -25 -24 -59v-258h464z" />
    <glyph glyph-name="F" unicode="F" horiz-adv-x="832" 
d="M795 1050h-490q-26 -6 -42 -22q-24 -25 -24 -59v-258h464l-38 -189h-426v-522h-189v978q2 109 78 184q78 77 192 77h512z" />
    <glyph glyph-name="G" unicode="G" horiz-adv-x="1235" 
d="M663 188h173q61 0 109.5 48.5t50.5 108.5q1 5 1 71q-1 33 -1 109h-324l40 188h473v-356q0 -98 -48.5 -179.5t-129.5 -129.5t-181 -48h-163q-174 2 -314.5 85t-224.5 223.5t-84 312.5q0 171 84 311.5t224.5 223.5t314.5 85h513l-52 -188h-461q-120 0 -218.5 -58.5
t-157 -156.5t-58.5 -217q0 -120 58.5 -218t156.5 -155.5t219 -59.5z" />
    <glyph glyph-name="H" unicode="H" horiz-adv-x="1071" 
d="M831 0v1203l190 38v-1241h-190zM309 711h506l-83 -189h-424q-68 0 -69 -66v-456h-189v1203l189 38v-461q0 -69 70 -69z" />
    <glyph glyph-name="I" unicode="I" horiz-adv-x="329" 
d="M259 1241v-1241h-189v1203z" />
    <glyph glyph-name="J" unicode="J" horiz-adv-x="723" 
d="M673 359q0 -99 -48.5 -180.5t-129.5 -129.5t-181 -49h-314l43 189h271q70 0 119 49q38 38 47 96l3 33v684h-385l38 190h537v-882z" />
    <glyph glyph-name="K" unicode="K" horiz-adv-x="1014" 
d="M239 1241v-492l491 491l268 1l-562 -563q66 -39 95 -73l483 -605h-242l-369 462v0l-4 6q-30 31 -69 31q-34 0 -59 -21.5t-32 -56.5v-421h-189v1203z" />
    <glyph glyph-name="L" unicode="L" horiz-adv-x="909" 
d="M318 0q-63 0 -124.5 25t-101.5 85t-42 168v963h188v-982q2 -37 28 -52.5t53 -15.5h590l-43 -191h-548z" />
    <glyph glyph-name="M" unicode="M" horiz-adv-x="1590" 
d="M883 295q76 473 118 716q21 116 98 172q77 57 173 57q62 0 123.5 -25t102 -85t41.5 -168l1 -962h-188v979q-2 38 -29 53.5t-52 15.5q-37 0 -55.5 -20.5t-25 -43.5t-8.5 -43q-1 -4 -1 -8l-117 -705q-18 -104 -91 -166t-177 -62q-107 0 -178 61t-93 167q-79 489 -120 727
q-4 31 -21 62t-65 31q-25 0 -52.5 -15.5t-29.5 -53.5l1 -979h-188v962q2 108 42 168t102 85t124 25q96 0 172 -57q76 -56 99 -172l93 -567q13 -77 26 -155q13 -84 84.5 -87t90.5 93z" />
    <glyph glyph-name="N" unicode="N" horiz-adv-x="1114" 
d="M854.5 211q21.5 19 22.5 52v977h187v-952q0 -88 -29 -152t-87 -100t-152 -36q-107 0 -178 61.5t-93 167.5q-19 114 -119 718q-2 20 -9 42t-25.5 40.5t-52.5 18.5q-26 0 -53 -15.5t-29 -53.5v-979h-187v957q0 85 30.5 148t89.5 99t147 36q108 0 179 -61.5t92 -166.5
l122 -736q6 -40 28.5 -62t56.5 -22q38 0 59.5 19z" />
    <glyph glyph-name="O" unicode="O" horiz-adv-x="1440" 
d="M663 1053q-121 -2 -219 -59.5t-156.5 -155.5t-58.5 -217q0 -120 58.5 -218t157 -156.5t218.5 -58.5h114q100 0 189.5 43.5t151.5 122.5q93 116 93 267q0 119 -59 217t-157.5 156.5t-217.5 58.5h-114zM1152 124q-69 -53 -167.5 -88.5t-207.5 -35.5h-114q-175 4 -315.5 86
t-224 221.5t-83.5 313.5q0 171 84 311.5t224.5 223.5t314.5 85h114q172 0 313 -83.5t225.5 -224.5t84.5 -312q0 -143 -62 -270t-176 -218z" />
    <glyph glyph-name="P" unicode="P" horiz-adv-x="1096" 
d="M1046 881v-124q0 -99 -48.5 -180.5t-130 -130t-180.5 -48.5h-360l-70 189h430q70 0 120 50t50 120v124q0 71 -50 120.5t-120 49.5h-382q-26 -6 -42 -22q-24 -25 -24 -59v-970h-189v974q0 112 78 189t192 77h372q99 -2 179 -50.5t127.5 -129t47.5 -179.5z" />
    <glyph glyph-name="Q" unicode="Q" horiz-adv-x="1440" 
d="M663 1051q-121 -1 -219 -59t-156.5 -156.5t-58.5 -218.5t58.5 -218.5t157 -157t218.5 -58.5h114q123 0 254 81l-118 148l103 175l330 -418l-117 -156l-81 103q-178 -122 -371 -122h-114q-174 2 -314.5 85t-224.5 224.5t-84 313.5t84 313.5t224.5 224.5t314.5 85h114
q172 0 313 -84t225.5 -225.5t84.5 -313.5q0 -144 -45 -235q-14 -25 -32 -44l-164 100q22 30 36 62q16 45 16 117q0 120 -59 218.5t-157.5 157t-217.5 58.5h-114z" />
    <glyph glyph-name="R" unicode="R" horiz-adv-x="1096" 
d="M454 398h-118l-69 189h420q70 0 120 50t50 120v124q0 70 -50 120t-120 50h-382q-25 -6 -42 -23q-24 -24 -24 -58v-970h-189v974q0 112 78 190q78 76 192 76h373q98 -3 178 -51t127.5 -128.5t47.5 -179.5v-124q0 -100 -48.5 -181t-130.5 -130q-55 -33 -169 -51l315 -395
h-243z" />
    <glyph glyph-name="S" unicode="S" horiz-adv-x="1053" 
d="M409 527q-99 0 -180.5 48.5t-130 129.5t-48.5 180q0 98 48.5 179t130 129t180.5 48l585 -1l-43 -189l-556 1q-67 -7 -111.5 -53t-44.5 -114q0 -69 49.5 -119t120.5 -50h235q100 0 181 -48.5t129.5 -129.5t48.5 -180t-48.5 -180t-130 -129.5t-180.5 -48.5l-586 1l43 189
l556 -1q68 7 112.5 54t44.5 115t-49.5 118.5t-120.5 50.5h-235z" />
    <glyph glyph-name="T" unicode="T" horiz-adv-x="1065" 
d="M42 1240h1023l-42 -191h-321q-26 0 -51.5 -16t-27.5 -53l1 -980h-182l1 981q-2 37 -27.5 52.5t-51.5 16.5h-364z" />
    <glyph glyph-name="U" unicode="U" horiz-adv-x="1097" 
d="M239 1241v-742q0 -129 90.5 -219.5t219.5 -90.5q128 0 218.5 90.5t90.5 219.5v689l189 53v-744q-2 -139 -68.5 -251t-179.5 -179t-250 -67q-138 0 -251 67t-179.5 179t-68.5 251v691z" />
    <glyph glyph-name="V" unicode="V" horiz-adv-x="1063" 
d="M528 0q-106 1 -187 63q-82 64 -113 165q-11 43 -16 63l-172 949h191l177 -976q11 -41 51.5 -58t72.5 -17q30 0 71 17.5t53 57.5l176 976h191l-172 -949q-3 -16 -8.5 -35t-8.5 -28q-30 -101 -113 -165q-80 -62 -187 -63h-6z" />
    <glyph glyph-name="W" unicode="W" horiz-adv-x="1762" 
d="M967 959q-22 94 -87 89.5t-86 -95.5l-119 -724q-24 -116 -99 -172q-77 -57 -173 -57q-62 0 -119 25t-97 85.5t-52 170.5l-95 959h188l95 -982q5 -35 30.5 -50.5t50.5 -15.5q49 0 66 31t21 62q100 604 120 728q22 106 93 167.5t179 61.5q103 0 176 -62t92 -167
q19 -117 69.5 -425.5t57 -331.5t25 -43.5t55.5 -20.5q25 0 50.5 15.5t30.5 50.5l95 982h188l-95 -959q-12 -110 -52 -170.5t-97 -85.5t-119 -25q-96 0 -173 57q-77 56 -99 172z" />
    <glyph glyph-name="X" unicode="X" horiz-adv-x="1104" 
d="M331 620q-58 74 -86 145l-205 476h192l196 -446q13 -36 54 -55q38 -16 69 -16q32 0 70 16q41 20 54 55l197 446h192l-205 -476q-28 -71 -86 -145q58 -75 86 -146l205 -474h-192l-197 444q-13 35 -54 55q-38 16 -70 16q-31 0 -69 -16q-41 -19 -54 -55l-196 -444h-192
l205 474q28 71 86 146z" />
    <glyph glyph-name="Y" unicode="Y" horiz-adv-x="1024" 
d="M606 1h-188v546q-61 23 -98 51q-79 66 -114 167l-186 476h193l175 -444q13 -37 55 -56q37 -16 68 -16q32 0 70 16q42 20 55 56l175 444h193l-186 -476q-35 -101 -114 -167q-37 -29 -98 -52v-545z" />
    <glyph glyph-name="Z" unicode="Z" horiz-adv-x="1348" 
d="M1065 905q35 20 35 65q0 25 -15 51.5t-52 28.5l-977 -1l41 192h913q130 -3 199.5 -66t84.5 -152q3 -16 4 -31v-32q-2 -56 -27 -111q-37 -82 -126 -125l-861 -388q-35 -20 -35 -65q0 -25 15 -51.5t52 -28.5l976 1l-43 -192h-910q-130 3 -200 66t-85 152q-3 19 -4 36v22
q0 9 1 18q5 50 27 98q37 82 126 125z" />
    <glyph glyph-name="bracketleft" unicode="[" horiz-adv-x="471" 
d="M521 1540l-56 -172h-218v-1795h218l56 -172h-451v2139h451z" />
    <glyph glyph-name="backslash" unicode="\" horiz-adv-x="616" 
d="M478 -68l-428 1417l91 11l425 -1419z" />
    <glyph glyph-name="bracketright" unicode="]" horiz-adv-x="471" 
d="M-50 -599l56 172h218v1795h-218l-56 172h451v-2139h-451z" />
    <glyph glyph-name="asciicircum" unicode="^" horiz-adv-x="796" 
d="M201 612h-151l264 676h168l264 -676h-151l-82 233l-92 267h-46l-92 -267z" />
    <glyph glyph-name="underscore" unicode="_" horiz-adv-x="952" 
d="M902 7h-852v110h852v-110z" />
    <glyph glyph-name="grave" unicode="`" horiz-adv-x="427" 
d="M377 1084h-111l-216 233h181z" />
    <glyph glyph-name="a" unicode="a" horiz-adv-x="1028" 
d="M673 188l-68 -188h-121q-122 0 -223 60t-161 161t-60 223q0 123 60 224t161 161t223 60h127q114 0 190 -78q39 -38 60 -85t21 -103v-354q0 -33 24 -57q6 -6 17.5 -12.5t22 -9t19.5 -2.5h43l-36 -188h-9q-114 0 -190 78q-38 38 -59 85t-21 103v352q0 34 -24 58t-58 24
h-128q-107 0 -181 -74.5t-74 -181.5q0 -106 75 -181t181 -75h189z" />
    <glyph glyph-name="b" unicode="b" horiz-adv-x="943" 
d="M458 701h-177l68 188h111q124 -2 223.5 -61.5t159.5 -160t60 -223.5q0 -122 -60 -222.5t-159.5 -160t-223.5 -61.5h-140q-114 0 -192 77t-78 189v930l188 43v-969q0 -34 25 -58q25 -23 58 -23h138q106 0 181 74.5t75 180.5q0 107 -75 182t-182 75z" />
    <glyph glyph-name="c" unicode="c" horiz-adv-x="808" 
d="M788 188l-39 -188h-265q-122 0 -223 60t-161 161t-60 223q0 123 60 224t161 161t223 60h304l-39 -188h-265q-106 0 -181 -75t-75 -182q0 -106 75 -181t181 -75h304z" />
    <glyph glyph-name="d" unicode="d" horiz-adv-x="943" 
d="M484 701q-106 0 -181 -75t-75 -182q0 -106 74.5 -180.5t181.5 -74.5h138q33 0 57 23q26 24 26 58v920l188 43v-967q0 -112 -78 -189t-192 -77h-140q-124 2 -224 61.5t-159.5 160t-59.5 222.5q0 123 59.5 223.5t159.5 160t224 61.5h130l69 -188h-198z" />
    <glyph glyph-name="e" unicode="e" horiz-adv-x="923" 
d="M819 0h-335q-123 0 -223 61q-97 56 -161 165q-60 99 -60 228t60 229q64 109 161 165q100 61 223 61h104q77 0 137 -35q66 -36 107 -99.5t41 -146.5t-41 -145t-102 -93q-69 -36 -143 -36l-255 1l-40 208h316q16 0 31.5 6.5t23.5 14.5q22 25 22 47q0 23 -20 45
q-10 11 -26 17.5t-32 6.5h-124q-110 -3 -181 -72q-74 -77 -74 -174q0 -96 72 -170q79 -76 184 -76h375z" />
    <glyph glyph-name="f" unicode="f" horiz-adv-x="601" 
d="M30 701l40 188h68v85q0 112 78 189t192 77h193l-43 -189h-149q-33 0 -57 -23q-26 -24 -26 -58v-81h219l-38 -188h-181v-701h-188v701h-108z" />
    <glyph glyph-name="g" unicode="g" horiz-adv-x="932" 
d="M673 188l-68 -188h-121q-122 0 -223 60t-161 161t-60 224q0 122 60 223t161 161t223 60h127q114 0 190 -78q39 -38 60 -85t21 -103v-735q0 -112 -78 -189t-192 -77h-490l35 189h454q33 0 57 23q26 24 26 58l-1 726q0 34 -24 58t-58 24h-128q-107 0 -181 -74.5t-74 -180.5
q0 -107 75 -182t181 -75h189z" />
    <glyph glyph-name="h" unicode="h" horiz-adv-x="848" 
d="M50 0v1193l189 40v-376q91 32 148 32h74q93 0 169.5 -45.5t122 -122t45.5 -169.5v-552h-189v552q0 61 -43.5 104.5t-104.5 43.5h-74q-61 0 -104.5 -43.5t-43.5 -104.5v-552h-189z" />
    <glyph glyph-name="i" unicode="i" horiz-adv-x="289" 
d="M50 0v842l189 40v-882h-189zM239 1052h-189v188h189v-188z" />
    <glyph glyph-name="j" unicode="j" horiz-adv-x="486" 
d="M436 901v-1013q0 -112 -77 -189q-78 -77 -192 -77h-167l34 189h131q34 0 58 23q26 24 26 58v966zM433 1052h-189v188h189v-188z" />
    <glyph glyph-name="k" unicode="k" horiz-adv-x="909" 
d="M50 0v1199l189 40v-739l395 395h267l-446 -447q113 -28 170 -92l284 -356h-242l-201 252q-11 12 -23 21q-35 26 -78 26q-51 0 -87 -33.5t-39 -84.5v-181h-189z" />
    <glyph glyph-name="l" unicode="l" horiz-adv-x="418" 
d="M50 1190l188 43v-963q0 -34 25 -58q25 -23 58 -23h77l-43 -189h-35q-114 0 -192 77t-78 189v924z" />
    <glyph glyph-name="m" unicode="m" horiz-adv-x="1406" 
d="M703 787q112 99 243 102h73q93 0 169.5 -45.5t122 -122t45.5 -169.5v-552h-189v552q0 61 -43.5 104.5t-104.5 43.5h-73q-62 0 -104.5 -42.5t-43.5 -105.5v-552h-189v552q0 61 -43.5 104.5t-104.5 43.5h-74q-61 0 -104.5 -43.5t-43.5 -104.5v-552h-189v552
q0 93 45.5 169.5t121.5 121.5t170 46h74q128 0 242 -102z" />
    <glyph glyph-name="n" unicode="n" horiz-adv-x="848" 
d="M50 0v552q0 93 45.5 169.5t121.5 121.5t170 46h74q93 0 169.5 -45.5t122 -122t45.5 -169.5v-552h-189v552q0 61 -43.5 104.5t-104.5 43.5h-74q-61 0 -104.5 -43.5t-43.5 -104.5v-552h-189z" />
    <glyph glyph-name="o" unicode="o" horiz-adv-x="1075" 
d="M581 188q105 0 180.5 74.5t75.5 181.5t-75 182t-181 75h-97q-106 0 -181 -75t-75 -182q0 -106 75 -181t181 -75h97zM1025 417q-6 -106 -59 -196q-60 -101 -159.5 -160t-223.5 -61h-99q-122 0 -223 60t-161 161t-60 223q0 123 60 224t161 161t223 60h99
q124 -2 223.5 -61.5t159.5 -160.5q54 -91 59 -199v-51z" />
    <glyph glyph-name="p" unicode="p" horiz-adv-x="943" 
d="M238 -300l-188 -43v966q0 112 78 189t192 77h140q124 -2 223.5 -61t159.5 -160t60 -223q0 -123 -60 -223.5t-159.5 -160t-223.5 -61.5h-141l-68 188h207q107 0 182 75.5t75 181.5t-75 180.5t-181 74.5h-138q-33 0 -58 -23q-25 -24 -25 -58v-919z" />
    <glyph glyph-name="q" unicode="q" horiz-adv-x="943" 
d="M484 188h204l-69 -188h-136q-124 2 -224 61.5t-159.5 160t-59.5 223.5q0 122 59.5 223t159.5 160t224 61h140q114 0 192 -77t78 -189v-923l-188 -43v962q0 34 -26 58q-24 23 -57 23h-138q-107 0 -181.5 -74.5t-74.5 -180.5t75 -181.5t181 -75.5z" />
    <glyph glyph-name="r" unicode="r" horiz-adv-x="469" 
d="M407 700h-86q-34 0 -58 -24t-24 -58v-618h-189v623q0 57 21 103.5t59 85.5q76 78 190 78h129z" />
    <glyph glyph-name="s" unicode="s" horiz-adv-x="849" 
d="M758 700h-423q-31 0 -54.5 -24t-23.5 -56q0 -31 23 -54t54 -23h181q76 0 141 -36t104 -97.5t39 -138.5t-39 -138t-104 -97t-141 -36h-459l39 187h420q32 0 54.5 27t22.5 57t-21.5 56t-54.5 26h-180q-78 1 -143 35t-104 93t-39 136t39 138t104 97t141 36h464z" />
    <glyph glyph-name="t" unicode="t" horiz-adv-x="582" 
d="M138 1054l189 43v-208h206l-38 -188h-168v-430q0 -32 24 -59q24 -24 59 -24h142l-45 -188h-99q-114 0 -190 78q-38 38 -59 85t-21 103v435h-108l40 188h68v165z" />
    <glyph glyph-name="u" unicode="u" horiz-adv-x="848" 
d="M50 853l189 31v-547q0 -61 43.5 -104.5t104.5 -43.5h74q61 0 104.5 43.5t43.5 104.5v516l189 31v-547q0 -93 -45.5 -169.5t-122 -122t-169.5 -45.5h-74q-94 1 -170 46t-121.5 121.5t-45.5 169.5v516z" />
    <glyph glyph-name="v" unicode="v" horiz-adv-x="836" 
d="M232 889l105 -639q27 -60 81 -61q54 1 80 61l105 639h193l-111 -664q-22 -113 -97 -169q-76 -57 -170 -57t-169.5 56.5t-97.5 169.5l-111 664h192z" />
    <glyph glyph-name="w" unicode="w" horiz-adv-x="1327" 
d="M40 889h189l43 -553q0 -60 43.5 -103.5t104.5 -43.5q62 0 105 43.5t43 104.5v552h190v-552q1 -63 43.5 -105.5t104.5 -42.5q61 0 104.5 43.5t43.5 103.5l43 553h190l-44 -551q-2 -96 -47 -171.5t-121 -121t-169 -45.5q-128 0 -243 102q-114 -102 -243 -102
q-93 0 -169.5 45.5t-122 122t-45.5 170.5z" />
    <glyph glyph-name="x" unicode="x" horiz-adv-x="905" 
d="M255 446q-57 74 -85 144l-129 299h191l120 -270q14 -34 37.5 -52t62.5 -18q76 0 101 71l119 269h192l-130 -299q-27 -70 -85 -144q58 -73 85 -144l131 -302h-191l-121 272q-25 71 -101 71q-39 0 -62.5 -18t-37.5 -52l-121 -273h-191l130 302q28 71 85 144z" />
    <glyph glyph-name="y" unicode="y" horiz-adv-x="970" 
d="M529 391l21 48l195 453h205l-451 -1052q-25 -59 -70.5 -108.5t-107.5 -79.5t-136 -30h-157l43 189h114q38 0 84 31q33 21 58 78l89 207q-117 28 -177 91t-82 144l-137 527h204l122 -488q22 -72 81 -77h18q52 7 84 67z" />
    <glyph glyph-name="z" unicode="z" horiz-adv-x="1026" 
d="M174 402l594 259q11 4 17 13q5 11 3.5 15.5t-6.5 6.5q-12 6 -22 6l-705 -1l39 188h658q78 -1 141 -43q54 -40 73 -103q9 -29 10 -58l-1 -15q-1 -39 -17 -77q-31 -71 -107 -106l-583 -253q-20 -9 -26 -27q8 -20 35 -20h696l-40 -187h-653q-10 0 -19 1q-70 3 -129 42
q-54 40 -73 103q-8 29 -9 57v10q0 42 18 82q30 72 106 107z" />
    <glyph glyph-name="braceleft" unicode="{" horiz-adv-x="718" 
d="M271 412q122 -46 181 -111t59 -176q0 -72 -18 -209q-18 -189 -18 -228q0 -137 51 -199.5t176 -76.5l31 -3l35 -88h-140q-222 14 -291 159q-27 60 -27 140q0 28 11.5 251.5t11.5 251.5q0 70 -6 102.5t-32 68.5q-58 81 -225 82l1 75q231 -2 257 165q6 38 6 112
q0 60 -11 196q-11 137 -13 277q0 89 40.5 155.5t108.5 104.5q70 39 168 39h141l-35 -89q-173 -17 -220 -101q-36 -62 -36 -134q0 -73 18 -247.5t18 -211.5q0 -229 -242 -302v-3z" />
    <glyph glyph-name="bar" unicode="|" horiz-adv-x="176" 
d="M126 -118h-76v1546h76v-1546z" />
    <glyph glyph-name="braceright" unicode="}" horiz-adv-x="718" 
d="M447 412v3q-242 73 -242 302q0 37 18 211.5t18 247.5q0 72 -36 134q-50 83 -220 101l-35 89h141q98 0 168 -39q68 -38 108.5 -104.5t40.5 -155.5q-2 -140 -13 -277q-11 -136 -11 -196q0 -74 6 -112q26 -167 257 -165l1 -75q-167 -1 -225 -82q-26 -36 -32 -68.5t-6 -102.5
q0 -28 11.5 -251.5t11.5 -251.5q0 -80 -27 -140q-69 -145 -291 -159h-140l35 88l31 3q125 14 176 76.5t51 199.5q0 39 -18 228q-18 137 -18 209q0 111 59 176t181 111z" />
    <glyph glyph-name="asciitilde" unicode="~" horiz-adv-x="824" 
d="M476.5 622.5q-34.5 15.5 -72.5 44.5q-11 7 -38 26.5t-50.5 30t-47.5 10.5q-75 0 -126 -90l-92 71q95 149 221 149q41 0 75 -15.5t76 -44.5q44 -35 72 -51.5t62 -16.5q75 0 125 88l93 -71q-95 -146 -221 -146q-42 0 -76.5 15.5z" />
    <glyph glyph-name="uni00A0" unicode="&#xa0;" horiz-adv-x="650" 
 />
    <glyph glyph-name="exclamdown" unicode="&#xa1;" horiz-adv-x="292" 
d="M225 -2l-155 33v730l155 -35v-728zM144 1030q42 0 70 -28t28 -68q0 -43 -27.5 -70.5t-70.5 -27.5q-41 0 -67.5 27.5t-26.5 70.5q0 41 26.5 68.5t67.5 27.5z" />
    <glyph glyph-name="cent" unicode="&#xa2;" horiz-adv-x="896" 
d="M549 0v-120h-66v119q-128 11 -212 61q-101 60 -161 160.5t-60 223.5t60 224t161 161q84 50 212 61v173h66v-174h297l-37 -178h-260v-523h297l-37 -188h-260zM483 186v527q-112 -19 -170 -77q-75 -76 -75 -162q0 -135 75 -211q58 -58 170 -77z" />
    <glyph glyph-name="sterling" unicode="&#xa3;" horiz-adv-x="739" 
d="M51 -10v104q66 32 113 97t47 150q0 17 -14 88h-147l19 71l105 2q-18 63 -24 90.5t-6 56.5q0 65 22 119t63 93q84 77 217 77q78 0 136 -28t101 -77l-93 -93q-46 59 -125 59q-69 0 -110 -41.5t-41 -119.5q0 -57 23 -136h211l-24 -73h-173q13 -65 13 -90q0 -53 -11 -103
t-51 -100h387l-30 -146h-608z" />
    <glyph glyph-name="currency" unicode="&#xa4;" horiz-adv-x="752" 
d="M50 307l91 94q-62 87 -62 175q0 91 61 176l-90 94l59 59l101 -102q88 49 167 49t165 -50l102 103l58 -59l-93 -95q65 -82 65 -175q0 -83 -64 -176l92 -93l-58 -60l-103 105q-84 -50 -164 -50q-81 0 -165 50l-103 -105zM503.5 438q49.5 56 49.5 138q0 85 -50 140.5
t-126 55.5q-77 0 -126.5 -55.5t-49.5 -140.5q0 -83 50 -138.5t126 -55.5q77 0 126.5 56z" />
    <glyph glyph-name="yen" unicode="&#xa5;" horiz-adv-x="887" 
d="M372 357h-227v60h227v14q-51 24 -82 56q-63 53 -92 134l-148 381h146l141 -359q12 -32 48 -48q32 -14 58 -14q27 0 60 14q35 18 46 49l142 358h146l-148 -381q-19 -73 -63 -118t-111 -73v-13h222v-60h-222v-107h222v-60h-222v-189h-143v189h-227v60h227v107z" />
    <glyph glyph-name="brokenbar" unicode="&#xa6;" horiz-adv-x="183" 
d="M133 846h-83v684h83v-684zM133 -112h-83v708h83v-708z" />
    <glyph glyph-name="section" unicode="&#xa7;" horiz-adv-x="820" 
d="M197 54q-83 33 -119 79l99 88q76 -78 194 -78q63 0 100 28.5t37 80.5q0 51 -53 86t-162 85q-9 4 -49 22q-93 43 -143.5 108t-50.5 152q0 57 32.5 109t118.5 105q-61 73 -61 151q0 104 72 167.5t201 63.5q156 0 269 -88l-77 -105q-24 21 -76 45t-102 24q-127 0 -127 -100
q0 -46 58 -83.5t162 -88.5l53 -26q104 -51 150.5 -107t46.5 -146q0 -66 -32 -116.5t-123 -105.5q54 -72 54 -141q0 -114 -81.5 -178t-216.5 -64q-91 0 -174 33zM622 607q0 91 -115 153q-34 20 -104 48q-16 8 -47.5 21t-49.5 20q-109 -47 -109 -128q0 -49 30.5 -85t85.5 -65
q24 -13 56 -27.5t62 -28.5l89 -38q102 41 102 130z" />
    <glyph glyph-name="dieresis" unicode="&#xa8;" horiz-adv-x="731" 
d="M296 1586.5q35 -36.5 35 -88.5q0 -56 -35 -92.5t-89 -36.5q-55 0 -91 36.5t-36 92.5q0 52 36.5 88.5t90.5 36.5t89 -36.5zM646 1586.5q35 -36.5 35 -88.5q0 -56 -35 -92.5t-89 -36.5q-55 0 -91 36.5t-36 92.5q0 52 36.5 88.5t90.5 36.5t89 -36.5z" />
    <glyph glyph-name="copyright" unicode="&#xa9;" horiz-adv-x="1209" 
d="M392 -10.5q-102 39.5 -176 112.5q-80 76 -123 180t-43 233t44 232.5t122 177.5q74 72 175.5 110.5t214.5 38.5t214 -38.5t175 -110.5q78 -74 121 -178.5t43 -231.5q0 -129 -43 -233.5t-121 -179.5q-75 -73 -176 -112.5t-213 -39.5t-214 39.5zM804.5 21.5
q92.5 37.5 163.5 109.5q71 73 109.5 170t38.5 214q0 114 -38.5 212.5t-110.5 170.5q-70 70 -162.5 107t-198.5 37t-199 -37t-163 -107q-72 -72 -110.5 -169.5t-38.5 -213.5q0 -117 38.5 -214.5t110.5 -169.5q70 -72 162.5 -109.5t199.5 -37.5q106 0 198.5 37.5zM823 322
l-27 -135h-153q-87 0 -158.5 42.5t-114 114t-42.5 158.5t42.5 158.5t114 114t158.5 42.5h180l-27 -135h-153q-74 0 -127 -52.5t-53 -127.5q0 -74 53 -127t127 -53h180z" />
    <glyph glyph-name="guillemotleft" unicode="&#xab;" horiz-adv-x="614" 
d="M489 604l55 -99l-169 -201l155 -196l-45 -100l-185 234q-18 21 -18 46q0 60 33 98zM277 604l55 -99l-169 -201l155 -196l-45 -100l-185 234q-18 21 -18 46q0 60 33 98z" />
    <glyph glyph-name="logicalnot" unicode="&#xac;" horiz-adv-x="720" 
d="M670 228h-105v270h-515v101h620v-371z" />
    <glyph glyph-name="uni00AD" unicode="&#xad;" horiz-adv-x="958" 
d="M858 6h-758v101h758v-101z" />
    <glyph glyph-name="registered" unicode="&#xae;" horiz-adv-x="690" 
d="M195.5 724.5q-67.5 40.5 -106.5 109.5t-39 152q0 85 39.5 154.5t107 109t148.5 39.5q83 0 151 -40.5t106 -109.5t38 -153q0 -86 -39 -155t-106.5 -108t-149.5 -39t-149.5 40.5zM521 799.5q68 71.5 68 186.5t-68 186.5t-176 71.5q-106 0 -174 -72.5t-68 -185.5
q0 -115 68 -186.5t174 -71.5q108 0 176 71.5zM332 924h-23l-12 57h92q13 0 22.5 9.5t9.5 23.5v28q0 14 -9.5 23.5t-22.5 9.5h-87q-3 -1 -6 -4q-4 -3 -4 -8v-231h-57v232q0 29 20 48q20 20 49 20h86q25 -1 45 -13t32 -32t12 -45v-28q0 -25 -12 -45.5t-33 -32.5
q-14 -8 -30 -11l75 -93h-74z" />
    <glyph glyph-name="degree" unicode="&#xb0;" horiz-adv-x="478" 
d="M106 975q-56 53 -56 135q0 81 56 137q55 52 134 52q39 0 73.5 -14t59.5 -38q55 -57 55 -137t-55 -135q-25 -26 -59.5 -39t-73.5 -13q-79 0 -134 52zM306 1037q25 28 25 73t-25 73t-66 28q-42 0 -68 -28t-26 -73t26 -73t68 -28q41 0 66 28z" />
    <glyph glyph-name="plusminus" unicode="&#xb1;" horiz-adv-x="858" 
d="M375 515h-325v106h325v322h105v-322h325v-106h-325v-327h-105v327zM808 6h-758v101h758v-101z" />
    <glyph glyph-name="paragraph" unicode="&#xb6;" horiz-adv-x="898" 
d="M744 0v1174h-219v-1174h-106v780h-117q-119 0 -185.5 69.5t-66.5 183.5q0 113 66 180t186 67h546v-1280h-104z" />
    <glyph glyph-name="periodcentered" unicode="&#xb7;" horiz-adv-x="340" 
d="M50 119q0 49 35 84t84 35q50 0 85.5 -34.5t35.5 -84.5q0 -49 -35.5 -84t-84.5 -35t-84.5 35t-35.5 84z" />
    <glyph glyph-name="guillemotright" unicode="&#xbb;" horiz-adv-x="614" 
d="M125 6l-55 99l169 201l-155 196l45 100l185 -234q18 -21 18 -46q0 -60 -33 -98zM337 6l-55 99l169 201l-155 196l45 100l185 -234q18 -21 18 -46q0 -60 -33 -98z" />
    <glyph glyph-name="onehalf" unicode="&#xbd;" horiz-adv-x="1228" 
d="M141 0h-91l1039 1360h89zM279 1258l-59 -40l-51 72l13 8l29 20q15 11 30 23l28 26l10 11h86v-605l-86 -18v503zM816 101h229l18 -81h-343v88l254 271q19 22 23 44t-5 47q-8 22 -27 39q-16 14 -36 19q-15 3 -19 3h-13q-12 -2 -19 -3q-25 -8 -43 -29q-17 -19 -19 -31
l-73 32q7 25 31 52q47 54 117 60h19q60 -1 107 -41q54 -47 60 -118q1 -8 1 -16q-2 -61 -42 -110z" />
    <glyph glyph-name="questiondown" unicode="&#xbf;" horiz-adv-x="697" 
d="M209 -79q6 -55 45 -93t94 -38q57 0 96.5 39t43.5 96l-2 111q-9 54 -48 85l-237 187l5 201l322 -256q106 -83 119 -215v-128q-10 -116 -95 -197.5t-204 -81.5q-120 0 -204 82t-94 198v166l159 38v-194zM314 791q50 0 84 -34t34 -82q0 -52 -33.5 -86t-84.5 -34
q-50 0 -82.5 34t-32.5 86q0 49 32.5 82.5t82.5 33.5z" />
    <glyph glyph-name="multiply" unicode="&#xd7;" horiz-adv-x="837" 
d="M760 210l1 -1l-71 -70l-271 269l-271 -269l-78 77l270 273l-269 270l76 77l271 -272l272 271l77 -76l-271 -270l271 -272z" />
    <glyph glyph-name="divide" unicode="&#xf7;" horiz-adv-x="920" 
d="M850 390h-780v91h780v-91zM458 906q58 0 98 -40t40 -98q0 -57 -40 -97.5t-97 -40.5q-56 0 -97.5 41t-41.5 97q0 58 40 98t98 40zM459 236q57 0 97 -40.5t40 -97.5q0 -58 -40 -98t-98 -40t-98 40t-40 98q0 56 41.5 97t97.5 41z" />
    <glyph glyph-name="uni060C" unicode="&#x60c;" horiz-adv-x="411" 
d="M302.5 223.5q38.5 -38.5 38.5 -93.5q0 -54 -38.5 -92t-92.5 -38q-70 0 -105 43t-35 117q0 82 32.5 161t114.5 171l70 -73q-67 -75 -97 -157h20q54 0 92.5 -38.5z" />
    <glyph glyph-name="uni061B" unicode="&#x61b;" horiz-adv-x="395" 
d="M289.5 676.5q35.5 -35.5 35.5 -86.5q0 -50 -35.5 -85t-85.5 -35q-65 0 -97.5 40t-32.5 110q0 80 31.5 157.5t105.5 160.5l57 -59q-63 -69 -99 -167h35q50 0 85.5 -35.5zM105 36q-35 36 -35 89q0 56 35 92.5t89 36.5q56 0 91.5 -36.5t35.5 -92.5q0 -52 -36.5 -88.5
t-90.5 -36.5t-89 36z" />
    <glyph glyph-name="uni061F" unicode="&#x61f;" horiz-adv-x="737" 
d="M508 878q-6 54 -45 92t-94 38q-57 0 -96.5 -39t-43.5 -95l2 -112q9 -53 48 -84l237 -187l-5 -201l-322 256q-106 83 -119 214v129q10 115 95 196.5t204 81.5q120 0 204 -82t94 -197v-166l-159 -38v194zM301.5 31q-32.5 34 -32.5 83q0 52 32.5 85.5t82.5 33.5
q51 0 84.5 -33.5t33.5 -85.5q0 -49 -34 -83t-84 -34t-82.5 34z" />
    <glyph glyph-name="uni0621" unicode="&#x621;" horiz-adv-x="672" 
d="M252 350q0 -47 30.5 -79t77.5 -32q14 0 26 3l165 52l51 -85l-532 -168l1 99l150 52q-65 86 -65 143q0 79 32 130.5t96 70.5l129 40l45 -86l-133 -40q-32 -9 -52.5 -36.5t-20.5 -63.5z" />
    <glyph glyph-name="uni0627" unicode="&#x627;" horiz-adv-x="328" 
d="M70 3v1188l188 39v-1190z" />
    <glyph glyph-name="uni0628" unicode="&#x628;" horiz-adv-x="1569" 
d="M942 -347l-131 -131l-131 131l131 132zM258 269q0 -33 24 -57t57 -24h890q34 0 58 24t24 57v326l188 38v-368q0 -111 -77.5 -188t-191.5 -77h-891q-115 0 -192 76.5t-77 188.5v330l188 38v-364z" />
    <glyph glyph-name="uni0629" unicode="&#x629;" horiz-adv-x="813" 
d="M404 1126l-124 -124l-124 124l124 125zM653 1126l-124 -124l-124 124l124 125zM478 885q111 0 186.5 -77t78.5 -191v-280q0 -96 -47 -171.5t-120 -119.5q-76 -46 -169 -46q-96 0 -172 47t-120 120q-45 75 -45 170v281l188 58v-339q0 -61 44 -105q43 -43 103 -44h3
q61 0 104 44q44 44 44 105v279q0 34 -24 58t-57 24h-398l38 187h363z" />
    <glyph glyph-name="uni062A" unicode="&#x62a;" horiz-adv-x="1569" 
d="M800 694l-124 -124l-124 124l124 125zM1049 694l-124 -124l-124 124l124 125zM258 269q0 -33 24 -57t57 -24h890q34 0 58 24t24 57v326l188 38v-368q0 -111 -77.5 -188t-191.5 -77h-891q-115 0 -192 76.5t-77 188.5v330l188 38v-364z" />
    <glyph glyph-name="uni062B" unicode="&#x62b;" horiz-adv-x="1569" 
d="M800 677l-124 -124l-124 124l124 125zM1049 677l-124 -124l-124 124l124 125zM925 848l-124 -124l-124 124l124 125zM258 269q0 -33 24 -57t57 -24h890q34 0 58 24t24 57v326l188 38v-368q0 -111 -77.5 -188t-191.5 -77h-891q-115 0 -192 76.5t-77 188.5v330l188 38v-364
z" />
    <glyph glyph-name="uni062C" unicode="&#x62c;" horiz-adv-x="1023" 
d="M857 -169l-131 -131l-131 131l131 132zM170 519l38 188h546q102 0 166 -77q40 -49 45 -106q1 -6 1 -12v-26q0 -7 -1 -13q-9 -103 -124 -174l-422 -284q-24 -18 -59.5 -49.5t-52.5 -50.5q-44 -58 -49 -133q0 -171 115 -283q114 -112 278 -112h352l-38 -188h-313
q-227 0 -393 149q-89 81 -139 192.5t-50 240.5q0 110 60 212.5t169 173.5l465 306l11 7q9 7 9 17q0 9 -6 15.5t-15 6.5h-593z" />
    <glyph glyph-name="uni062D" unicode="&#x62d;" horiz-adv-x="1023" 
d="M170 519l38 188h546q102 0 166 -77q40 -49 45 -106q1 -6 1 -12v-26q0 -7 -1 -13q-9 -103 -124 -174l-422 -284q-24 -18 -59.5 -49.5t-52.5 -50.5q-44 -58 -49 -133q0 -171 115 -283q114 -112 278 -112h352l-38 -188h-313q-227 0 -393 149q-89 81 -139 192.5t-50 240.5
q0 110 60 212.5t169 173.5l465 306l11 7q9 7 9 17q0 9 -6 15.5t-15 6.5h-593z" />
    <glyph glyph-name="uni062E" unicode="&#x62e;" horiz-adv-x="1023" 
d="M726 950l-131 -131l-131 131l131 132zM170 519l38 188h546q102 0 166 -77q40 -49 45 -106q1 -6 1 -12v-26q0 -7 -1 -13q-9 -103 -124 -174l-422 -284q-24 -18 -59.5 -49.5t-52.5 -50.5q-44 -58 -49 -133q0 -171 115 -283q114 -112 278 -112h352l-38 -188h-313
q-227 0 -393 149q-89 81 -139 192.5t-50 240.5q0 110 60 212.5t169 173.5l465 306l11 7q9 7 9 17q0 9 -6 15.5t-15 6.5h-593z" />
    <glyph glyph-name="uni062F" unicode="&#x62f;" horiz-adv-x="907" 
d="M598 188q21 0 37 15q13 14 15 33v3q0 22 -16 38l-394 395l113 152l414 -415q70 -75 70 -169q0 -101 -69 -170.5t-170 -69.5h-578l39 188h539z" />
    <glyph glyph-name="uni0630" unicode="&#x630;" horiz-adv-x="907" 
d="M424 1073l-131 -131l-131 131l131 132zM598 188q21 0 37 15q13 14 15 33v3q0 22 -16 38l-394 395l113 152l414 -415q70 -75 70 -169q0 -101 -69 -170.5t-170 -69.5h-578l39 188h539z" />
    <glyph glyph-name="uni0631" unicode="&#x631;" horiz-adv-x="454" 
d="M-31 -269q94 0 160.5 66.5t66.5 160.5v637l188 38v-714q0 -109 -79 -204q-55 -78 -141 -125t-195 -47h-119l37 188h82z" />
    <glyph glyph-name="uni0632" unicode="&#x632;" horiz-adv-x="454" 
d="M422 901l-131 -131l-131 131l131 132zM-31 -269q94 0 160.5 66.5t66.5 160.5v637l188 38v-714q0 -109 -79 -204q-55 -78 -141 -125t-195 -47h-119l37 188h82z" />
    <glyph glyph-name="uni0633" unicode="&#x633;" horiz-adv-x="2165" 
d="M1826 188q33 0 57.5 23.5t24.5 57.5v358l187 40v-402q0 -111 -77.5 -185.5t-192.5 -79.5h-78q-86 0 -176 64q-87 -64 -175 -64h-80q-20 0 -81 11v-92q0 -108 -80 -204q-55 -77 -141.5 -124.5t-194.5 -47.5h-167q-167 0 -297 80.5t-206 208.5q-79 133 -79 293v316l188 38
v-355q4 -166 116 -277t278 -116h167q94 0 161 66t67 161v636l188 38v-364q0 -33 23.5 -56.5t57.5 -23.5h80q34 0 57.5 23.5t23.5 56.5v326l188 38v-364q0 -34 24 -57t58 -23h79z" />
    <glyph glyph-name="uni0634" unicode="&#x634;" horiz-adv-x="2165" 
d="M1585 857l-124 -124l-124 124l124 125zM1834 857l-124 -124l-124 124l124 125zM1710 1028l-124 -124l-124 124l124 125zM1826 188q33 0 57.5 23.5t24.5 57.5v358l187 40v-402q0 -111 -77.5 -185.5t-192.5 -79.5h-78q-86 0 -176 64q-87 -64 -175 -64h-80q-20 0 -81 11v-92
q0 -108 -80 -204q-55 -77 -141.5 -124.5t-194.5 -47.5h-167q-167 0 -297 80.5t-206 208.5q-79 133 -79 293v316l188 38v-355q4 -166 116 -277t278 -116h167q94 0 161 66t67 161v636l188 38v-364q0 -33 23.5 -56.5t57.5 -23.5h80q34 0 57.5 23.5t23.5 56.5v326l188 38v-364
q0 -34 24 -57t58 -23h79z" />
    <glyph glyph-name="uni0635" unicode="&#x635;" horiz-adv-x="2380" 
d="M2124 337q-1 59 -44 103q-44 45 -105 45l-348 -1q-35 0 -58 -24q-24 -24 -24 -57v-128l-187 -57v189q0 56 20.5 102.5t58.5 84.5q76 75 189 77h349q98 0 172 -46q76 -47 119 -121q44 -75 44 -169q0 -97 -46 -169q-49 -78 -123.5 -122t-165.5 -44h-662q-24 0 -82 10v-92
q0 -54 -20 -104t-59 -99q-57 -76 -142 -125q-85 -47 -194 -47h-166q-166 0 -296 81q-131 81 -207 207q-77 132 -77 292v316l187 39v-356q0 -113 55 -201q54 -86 140 -138q89 -53 198 -53h166q94 0 161 66q67 67 67 161v633l187 41v-363q2 -33 25 -56q24 -24 57 -24h662
q62 0 105 43q44 43 44 103v3z" />
    <glyph glyph-name="uni0636" unicode="&#x636;" horiz-adv-x="2380" 
d="M1940 925l-131 -131l-131 131l131 132zM2124 337q-1 59 -44 103q-44 45 -105 45l-348 -1q-35 0 -58 -24q-24 -24 -24 -57v-128l-187 -57v189q0 56 20.5 102.5t58.5 84.5q76 75 189 77h349q98 0 172 -46q76 -47 119 -121q44 -75 44 -169q0 -97 -46 -169
q-49 -78 -123.5 -122t-165.5 -44h-662q-24 0 -82 10v-92q0 -54 -20 -104t-59 -99q-57 -76 -142 -125q-85 -47 -194 -47h-166q-166 0 -296 81q-131 81 -207 207q-77 132 -77 292v316l187 39v-356q0 -113 55 -201q54 -86 140 -138q89 -53 198 -53h166q94 0 161 66
q67 67 67 161v633l187 41v-363q2 -33 25 -56q24 -24 57 -24h662q62 0 105 43q44 43 44 103v3z" />
    <glyph glyph-name="uni0637" unicode="&#x637;" horiz-adv-x="1494" 
d="M233 188q34 0 58 24t24 57v927l188 38v-965q0 -33 24 -57t57 -24h503q63 0 106 44q43 43 43 104v3q-1 60 -44 103q-44 44 -105 44h-563l58 187h505q96 0 172 -47t120 -120q45 -75 45 -169q0 -98 -47 -172.5t-121 -118.5q-78 -46 -169 -46h-1017l38 188h125z" />
    <glyph glyph-name="uni0638" unicode="&#x638;" horiz-adv-x="1494" 
d="M1046 945l-131 -131l-131 131l131 132zM233 188q34 0 58 24t24 57v927l188 38v-965q0 -33 24 -57t57 -24h503q63 0 106 44q43 43 43 104v3q-1 60 -44 103q-44 44 -105 44h-563l58 187h505q96 0 172 -47t120 -120q45 -75 45 -169q0 -98 -47 -172.5t-121 -118.5
q-78 -46 -169 -46h-1017l38 188h125z" />
    <glyph glyph-name="uni0639" unicode="&#x639;" horiz-adv-x="919" 
d="M460 0q-84 0 -140 -64.5t-62 -152.5q0 -115 54.5 -203t140.5 -138q93 -54 198 -54h305l-38 -188h-266q-168 0 -298.5 81t-205.5 208q-78 132 -78 292q9 194 173 330q-85 113 -85 225q0 97 47 173t120 119q78 46 170 46h238l-38 -187h-200q-62 0 -105.5 -44.5
t-43.5 -106.5q0 -61 44 -105t105 -44h372l-38 -187h-369z" />
    <glyph glyph-name="uni063A" unicode="&#x63a;" horiz-adv-x="919" 
d="M661 915l-131 -131l-131 131l131 132zM460 0q-84 0 -140 -64.5t-62 -152.5q0 -115 54.5 -203t140.5 -138q93 -54 198 -54h305l-38 -188h-266q-168 0 -298.5 81t-205.5 208q-78 132 -78 292q9 194 173 330q-85 113 -85 225q0 97 47 173t120 119q78 46 170 46h238l-38 -187
h-200q-62 0 -105.5 -44.5t-43.5 -106.5q0 -61 44 -105t105 -44h372l-38 -187h-369z" />
    <glyph glyph-name="uni0640" unicode="&#x640;" horiz-adv-x="600" 
d="M-9 0q-37 0 -65 28q-29 28 -29 65v3q1 36 29 64t65 28h609v-188h-609z" />
    <glyph glyph-name="uni0641" unicode="&#x641;" horiz-adv-x="1625" 
d="M1374 1174l-131 -131l-131 131l131 132zM1555 265q0 -112 -77.5 -188.5t-191.5 -76.5h-947q-115 0 -192 76.5t-77 188.5v328l188 38v-362q0 -33 24 -57t57 -24h947q32 0 57 24t25 57v396q0 34 -24 58t-58 24h-134q-49 0 -83 -35t-34 -83q0 -50 34.5 -83.5t82.5 -33.5h198
l-67 -188h-131q-127 0 -216 88.5t-89 216.5q0 125 90 215t215 90h138q111 0 188 -77.5t77 -191.5v-400z" />
    <glyph glyph-name="uni0642" unicode="&#x642;" horiz-adv-x="1365" 
d="M905 911l-124 -124l-124 124l124 125zM1154 911l-124 -124l-124 124l124 125zM999 674q113 0 189.5 -77.5t76.5 -191.5v-486q0 -108 -80 -204q-55 -77 -141.5 -124.5t-194.5 -47.5h-167q-171 0 -298.5 80t-204.5 209q-79 133 -79 293v316l188 37v-354q5 -167 117 -280
t277 -113h167q95 0 160.5 66t67.5 161v446q0 34 -24 58t-57 24h-134q-48 0 -83 -34t-35 -83t34.5 -83.5t82.5 -34.5h193l-58 -187h-127q-131 0 -221.5 88.5t-90.5 216.5q0 125 89 216q89 89 216 89h137z" />
    <glyph glyph-name="uni0643" unicode="&#x643;" horiz-adv-x="1457" 
d="M339 0q-114 0 -191.5 77t-77.5 188v328l188 38v-362q0 -33 24 -57t57 -24h779q35 0 58.5 25t23.5 59v924l187 38v-969q0 -111 -77.5 -188t-191.5 -77h-779zM698 641q0 -24 15.5 -40t39.5 -16q7 0 12 1l100 31l37 -61l-322 -101l1 71l81 28q-32 43 -32 78q0 47 19 78.5
t58 43.5l80 24l32 -62l-84 -25q-16 -5 -26.5 -18.5t-10.5 -31.5z" />
    <glyph glyph-name="uni0644" unicode="&#x644;" horiz-adv-x="1305" 
d="M819 -269q94 0 161 66t67 161v1238l188 38v-1315q0 -148 -116 -257q-59 -56 -137.5 -87.5t-162.5 -31.5h-169q-167 0 -297 81t-205 209q-78 132 -78 292v317l188 38v-356q0 -114 54.5 -201t141.5 -139q89 -53 198 -53h167z" />
    <glyph glyph-name="uni0645" unicode="&#x645;" horiz-adv-x="1191" 
d="M70 404q0 111 77.5 188t191.5 77h517q111 0 188 -77.5t77 -191.5v-242q0 -142 -93 -237q-98 -100 -244 -100q-97 0 -171.5 47t-118.5 121q-46 78 -46 169v243l187 58v-301q0 -61 44 -105q43 -44 104 -44h2q61 0 104 44q44 44 44 105v241q0 33 -23.5 58t-57.5 25h-513
q-33 0 -57 -24t-24 -58v-816l-188 -38v858z" />
    <glyph glyph-name="uni0646" unicode="&#x646;" horiz-adv-x="1305" 
d="M798 370l-131 -131l-131 131l131 132zM819 -269q94 0 161 66t67 161v635l188 39v-713q0 -108 -80 -204q-55 -77 -141.5 -124.5t-194.5 -47.5h-167q-166 0 -297.5 81.5t-206.5 207.5q-78 132 -78 293v317l188 39v-357q0 -114 54.5 -201t141.5 -139q89 -53 198 -53h167z
" />
    <glyph glyph-name="uni0647" unicode="&#x647;" horiz-adv-x="813" 
d="M478 885q111 0 186.5 -77t78.5 -191v-280q0 -96 -47 -171.5t-120 -119.5q-76 -46 -169 -46q-96 0 -172 47t-120 120q-45 75 -45 170v281l188 58v-339q0 -61 44 -105q43 -43 103 -44h3q61 0 104 44q44 44 44 105v279q0 34 -24 58t-57 24h-398l38 187h363z" />
    <glyph glyph-name="uni0648" unicode="&#x648;" horiz-adv-x="860" 
d="M374 -269q94 0 161 66t67 161v447q0 33 -25 57t-57 24h-123q-61 0 -105 -44t-44 -104v-2q0 -60 44 -104t105 -44h186l-58 -190l-134 2q-95 0 -169.5 47t-117.5 122q-44 75 -44 168q0 96 47.5 172t119.5 119q78 46 170 46h124q113 0 188.5 -76t80.5 -191v-488
q0 -148 -116 -257q-59 -56 -137.5 -87.5t-162.5 -31.5h-307l38 188h269z" />
    <glyph glyph-name="uni0649" unicode="&#x649;" horiz-adv-x="1305" 
d="M845 52q-114 0 -191.5 76.5t-77.5 189.5v76q0 120 75 200t190 80h386l-42 -188h-340q-33 0 -57 -22.5t-24 -56.5v-86q0 -33 24 -57t58 -24h123q110 0 188 -78.5t78 -191.5v-51q0 -85 -54 -172q-59 -91 -151.5 -147.5t-210.5 -56.5h-167q-166 0 -297.5 81.5t-206.5 207.5
q-78 132 -78 293v316l188 36v-353q0 -114 54.5 -201t141.5 -139q89 -53 198 -53h167q94 0 161 66t67 161v12q0 34 -24 58t-57 24h-121z" />
    <glyph glyph-name="uni064A" unicode="&#x64a;" horiz-adv-x="1305" 
d="M667 -659l-124 -124l-124 124l124 125zM916 -659l-124 -124l-124 124l124 125zM845 52q-114 0 -191.5 76.5t-77.5 189.5v76q0 120 75 200t190 80h386l-42 -188h-340q-33 0 -57 -22.5t-24 -56.5v-86q0 -33 24 -57t58 -24h123q110 0 188 -78.5t78 -191.5v-51
q0 -85 -54 -172q-59 -91 -151.5 -147.5t-210.5 -56.5h-167q-166 0 -297.5 81.5t-206.5 207.5q-78 132 -78 293v316l188 36v-353q0 -114 54.5 -201t141.5 -139q89 -53 198 -53h167q94 0 161 66t67 161v12q0 34 -24 58t-57 24h-121z" />
    <glyph glyph-name="uni064B" unicode="&#x64b;" 
d="M172 1841l-340 -120v72l340 119v-71zM172 1701l-340 -120v72l340 119v-71z" />
    <glyph glyph-name="uni064C" unicode="&#x64c;" 
d="M-53 1682q0 45 33.5 78t78.5 33q46 0 79.5 -33t33.5 -79q0 -79 -79 -107l-261 -93v66l49 17q18 6 18 22q0 28 -24 28q-3 0 -11 -2l-32 -11v66q27 9 44 9q33 0 57 -23.5t27 -55.5l18 7q-31 31 -31 78zM59 1635q19 0 32.5 13.5t13.5 32.5t-13 32q-14 13 -33 13v0
q-19 0 -32 -13t-13 -32q0 -20 13 -33t32 -13z" />
    <glyph glyph-name="uni064D" unicode="&#x64d;" 
d="M172 -53l-340 -120v72l340 119v-71zM172 -193l-340 -120v72l340 119v-71z" />
    <glyph glyph-name="uni064E" unicode="&#x64e;" 
d="M172 1701l-340 -120v72l340 119v-71z" />
    <glyph glyph-name="uni064F" unicode="&#x64f;" 
d="M-54 1782q0 46 33.5 79t79.5 33q47 0 80 -33t33 -80q0 -79 -79 -107l-261 -93v72l145 51q-31 31 -31 78zM59 1735q19 0 32.5 13.5t13.5 32.5t-13.5 32.5t-32.5 13.5t-32.5 -13.5t-13.5 -32.5t13.5 -32.5t32.5 -13.5z" />
    <glyph glyph-name="uni0650" unicode="&#x650;" 
d="M172 -53l-340 -120v72l340 119v-71z" />
    <glyph glyph-name="uni0651" unicode="&#x651;" 
d="M-99 1723q0 -12 9 -21t21 -9t21 9t9 21v68l73 26v-65q0 -13 9 -21.5t22 -8.5t21 8.5t8 21.5v87l74 26v-115q0 -37 -29.5 -69t-66.5 -32q-36 0 -58 13q-32 -42 -79 -42q-45 0 -76 29t-31 72v23l73 26v-47z" />
    <glyph glyph-name="uni0652" unicode="&#x652;" 
d="M114 1726q0 -45 -33.5 -77.5t-80.5 -32.5t-80.5 33.5t-33.5 80.5t33 80t81 33t81 -34t33 -83zM-47 1730q0 -18 14.5 -32t32.5 -14t32.5 14t14.5 32t-14.5 31.5t-32.5 13.5t-32.5 -13.5t-14.5 -31.5z" />
    <glyph glyph-name="uni0653" unicode="&#x653;" 
d="M-497 1619l3 3q93 77 200 77h608l-36 -178h-533q-90 0 -128 -35z" />
    <glyph glyph-name="uni0654" unicode="&#x654;" 
d="M-31 1648q0 -17 11.5 -28.5t29.5 -11.5q5 0 8 1l97 29l43 -68l-314 -95l1 80l68 22q-24 31 -24 64q0 43 19 72.5t58 40.5l79 23l37 -69l-86 -25q-12 -3 -19.5 -12.5t-7.5 -22.5z" />
    <glyph glyph-name="uni0655" unicode="&#x655;" 
d="M-31 -194q0 -17 11.5 -28.5t29.5 -11.5q5 0 8 1l97 29l43 -68l-314 -95l1 80l68 22q-24 31 -24 64q0 43 19 72.5t58 40.5l79 23l37 -69l-86 -25q-12 -3 -19.5 -12.5t-7.5 -22.5z" />
    <glyph glyph-name="uni0660" unicode="&#x660;" horiz-adv-x="763" 
d="M521 450q9 28 9 46q0 58 -43 102t-102 44q-60 0 -103 -44t-43 -102.5t44 -101.5t102 -43t103 44q24 27 33 55zM572 271q-84 -71 -191 -71q-122 0 -211.5 90t-89.5 212q0 123 89 212t212 89q122 0 212 -89.5t90 -211.5q0 -93 -53 -169q-13 -17 -30.5 -35t-27.5 -27z" />
    <glyph glyph-name="uni0661" unicode="&#x661;" horiz-adv-x="512" 
d="M311 38l-188 -38v927q0 72 -17 160l-15 64l-11 39l182 38l10 -36l18 -74q14 -51 22 -162z" />
    <glyph glyph-name="uni0662" unicode="&#x662;" horiz-adv-x="805" 
d="M269 896q5 -42 39 -75q39 -40 91 -40h7q55 0 93 39t38 93v275l188 38v-313q-5 -133 -95 -224t-221 -95h-12q-48 0 -129 26v-582l-188 -38v927q0 72 -17 160l-15 64l-11 39l182 38l10 -36l18 -74q14 -51 22 -162v-60z" />
    <glyph glyph-name="uni0663" unicode="&#x663;" horiz-adv-x="1262" 
d="M269 897q5 -42 39 -75q39 -40 91 -40h7q55 0 93 39t38 93v275l188 37v-312q0 -54 38 -93t93 -39h7q52 0 91.5 39.5t39.5 92.5v274l188 38v-312q-5 -133 -95 -224t-221 -95h-12q-121 3 -223 92q-102 -89 -222 -92h-12q-48 0 -129 26v-583l-188 -38v927q0 72 -17 160
l-15 64l-11 39l182 38l10 -36l18 -74q14 -51 22 -162v-59z" />
    <glyph glyph-name="uni0664" unicode="&#x664;" horiz-adv-x="1070" 
d="M269 776h138q-26 83 -26 107v35q4 131 95 220.5t224 94.5h252l-39 -187h-213q-54 0 -93 -39t-39 -93v-6q0 -54 39 -93t93 -39h337l-38 -187h-731v-551l-188 -38v927q0 72 -17 160l-15 64l-11 39l182 38l10 -36l18 -74q14 -51 22 -162v-180z" />
    <glyph glyph-name="uni0665" unicode="&#x665;" horiz-adv-x="1296" 
d="M431 912l189 -67l-341 -431q-21 -37 -21 -77q0 -60 42 -104t100 -45h8q58 1 100 40q45 39 47 116v137l187 38v-185q4 -74 48 -110t101 -36h2q59 0 103 45q43 45 43 104q0 49 -24 81v2l-570 650l108 156q269 -306 383 -432q213 -240 216 -245q74 -92 74 -199
q0 -205 -167 -304q-76 -46 -169 -46q-128 0 -242 101q-114 -101 -223 -101q-158 0 -256.5 98t-98.5 256q0 109 83 204z" />
    <glyph glyph-name="uni0666" unicode="&#x666;" horiz-adv-x="1043" 
d="M326 651.5q58 -56.5 133 -56.5q74 1 133 57l195 197l186 -78l-752 -762l-106 160l245 248q-109 45 -167 100q-112 116 -113 262v7q2 155 126 281l158 156l175 -89l-217 -216q-53 -58 -54 -129v-5q0 -76 58 -132.5z" />
    <glyph glyph-name="uni0667" unicode="&#x667;" horiz-adv-x="937" 
d="M464 0q-100 0 -174 64.5t-93 152.5q0 15 -3 18l-164 946l180 51l168 -960q16 -84 86 -84q66 0 83 69l6 32l156 890l198 50l-175 -1006q-17 -91 -92 -157t-176 -66z" />
    <glyph glyph-name="uni0668" unicode="&#x668;" horiz-adv-x="937" 
d="M473 1232q100 0 174 -64.5t93 -152.5q0 -15 3 -18l164 -946l-180 -51l-168 960q-16 84 -86 84q-62 0 -81 -60q-3 -11 -9 -44l-155 -887l-198 -50l175 1006q17 91 92 157t176 66z" />
    <glyph glyph-name="uni0669" unicode="&#x669;" horiz-adv-x="918" 
d="M388 565q-90 0 -160.5 48t-106.5 118q-41 79 -41 170q0 98 47 173t120 119q76 46 170 46h163q109 -4 182 -80t76 -189v-932l-188 -38v969q0 34 -24 58t-57 24h-152q-61 0 -105 -44q-43 -42 -44 -103v-2q0 -61 44 -105t105 -44h214l-65 -188h-178z" />
    <glyph glyph-name="uni066A" unicode="&#x66a;" horiz-adv-x="892" 
d="M60 1110q0 49 35.5 84.5t84.5 35.5t84.5 -35.5t35.5 -84.5t-35.5 -84.5t-84.5 -35.5t-84.5 35.5t-35.5 84.5zM592 210q0 49 35.5 84.5t84.5 35.5t84.5 -35.5t35.5 -84.5t-35.5 -84.5t-84.5 -35.5t-84.5 35.5t-35.5 84.5zM763 1330l-602 -1340h-94l602 1340h94z" />
    <glyph glyph-name="uni066B" unicode="&#x66b;" horiz-adv-x="294" 
d="M136 333q50 -28 75 -59q33 -41 33 -111q0 -80 -31.5 -157.5t-106.5 -160.5l-56 58q65 71 85 174q19 97 -71 141z" />
    <glyph glyph-name="uni066C" unicode="&#x66c;" horiz-adv-x="351" 
d="M86 96q-36 36 -36 87q0 49 36 84.5t85 35.5q65 0 97.5 -40t32.5 -110q0 -80 -31.5 -158t-105.5 -160l-57 58q63 70 99 167h-35q-49 0 -85 36z" />
    <glyph glyph-name="uni066D" unicode="&#x66d;" horiz-adv-x="716" 
d="M666 370l-230 -72l151 -214l-77 -56l-148 220l-152 -220l-78 56l156 213l-238 79l30 89l237 -83l-3 245h98l-5 -244l229 77z" />
    <glyph glyph-name="uni066E" unicode="&#x66e;" horiz-adv-x="1569" 
d="M258 269q0 -33 24 -57t57 -24h890q34 0 58 24t24 57v326l188 38v-368q0 -111 -77.5 -188t-191.5 -77h-891q-115 0 -192 76.5t-77 188.5v330l188 38v-364z" />
    <glyph glyph-name="uni066F" unicode="&#x66f;" horiz-adv-x="1365" 
d="M999 674q113 0 189.5 -77.5t76.5 -191.5v-486q0 -108 -80 -204q-55 -77 -141.5 -124.5t-194.5 -47.5h-167q-171 0 -298.5 80t-204.5 209q-79 133 -79 293v316l188 37v-354q5 -167 117 -280t277 -113h167q95 0 160.5 66t67.5 161v446q0 34 -24 58t-57 24h-134
q-48 0 -83 -34t-35 -83t34.5 -83.5t82.5 -34.5h193l-58 -187h-127q-131 0 -221.5 88.5t-90.5 216.5q0 125 89 216q89 89 216 89h137z" />
    <glyph glyph-name="uni067E" unicode="&#x67e;" horiz-adv-x="1569" 
d="M258 269q0 -33 24 -57t57 -24h890q34 0 58 24t24 57v326l188 38v-368q0 -111 -77.5 -188t-191.5 -77h-891q-115 0 -192 76.5t-77 188.5v330l188 38v-364zM810 -364l-124 -124l-124 124l124 125zM1059 -364l-124 -124l-124 124l124 125zM935 -535l-124 -124l-124 124
l124 125z" />
    <glyph glyph-name="uni0686" unicode="&#x686;" horiz-adv-x="1023" 
d="M710 -163l-106 -106l-105 106l105 105zM922 -163l-106 -106l-106 106l106 105zM816 -309l-105 -105l-106 105l106 106zM170 519l38 188h546q102 0 166 -77q40 -49 45 -106q1 -6 1 -12v-26q0 -7 -1 -13q-9 -103 -124 -174l-422 -284q-24 -18 -59.5 -49.5t-52.5 -50.5
q-44 -58 -49 -133q0 -171 115 -283q114 -112 278 -112h352l-38 -188h-313q-227 0 -393 149q-89 81 -139 192.5t-50 240.5q0 110 60 212.5t169 173.5l465 306l11 7q9 7 9 17q0 9 -6 15.5t-15 6.5h-593z" />
    <glyph glyph-name="uni0698" unicode="&#x698;" horiz-adv-x="454" 
d="M251 856l-124 -124l-124 124l124 125zM500 856l-124 -124l-124 124l124 125zM376 1027l-124 -124l-124 124l124 125zM-31 -269q94 0 160.5 66.5t66.5 160.5v637l188 38v-714q0 -109 -79 -204q-55 -78 -141 -125t-195 -47h-119l37 188h82z" />
    <glyph glyph-name="uni06A1" unicode="&#x6a1;" horiz-adv-x="1625" 
d="M1555 265q0 -112 -77.5 -188.5t-191.5 -76.5h-947q-115 0 -192 76.5t-77 188.5v328l188 38v-362q0 -33 24 -57t57 -24h947q32 0 57 24t25 57v396q0 34 -24 58t-58 24h-134q-49 0 -83 -35t-34 -83q0 -50 34.5 -83.5t82.5 -33.5h198l-67 -188h-131q-127 0 -216 88.5
t-89 216.5q0 125 90 215t215 90h138q111 0 188 -77.5t77 -191.5v-400z" />
    <glyph glyph-name="uni06A9" unicode="&#x6a9;" horiz-adv-x="1597" 
d="M70 594l188 38v-363q0 -33 24 -57t57 -24h920q52 0 52 52q0 21 -16 37l-372 373q-36 38 -36 116q0 125 107 186l476 274l57 -185l-469 -265l366 -366q75 -76 75 -170q0 -97 -64 -168.5t-150 -71.5h-944q-113 0 -192 77t-79 188v329z" />
    <glyph glyph-name="uni06AF" unicode="&#x6af;" horiz-adv-x="1597" 
d="M1488 1324l-476 -274l-32 90l482 278zM70 594l188 38v-363q0 -33 24 -57t57 -24h920q52 0 52 52q0 21 -16 37l-372 373q-36 38 -36 116q0 125 107 186l476 274l57 -185l-469 -265l366 -366q75 -76 75 -170q0 -97 -64 -168.5t-150 -71.5h-944q-113 0 -192 77t-79 188v329z
" />
    <glyph glyph-name="uni06BA" unicode="&#x6ba;" horiz-adv-x="1305" 
d="M819 -269q94 0 161 66t67 161v635l188 39v-713q0 -108 -80 -204q-55 -77 -141.5 -124.5t-194.5 -47.5h-167q-166 0 -297.5 81.5t-206.5 207.5q-78 132 -78 293v317l188 39v-357q0 -114 54.5 -201t141.5 -139q89 -53 198 -53h167z" />
    <glyph glyph-name="uni06C0" unicode="&#x6c0;" horiz-adv-x="813" 
d="M375 1175q0 -17 11.5 -28.5t29.5 -11.5q5 0 8 1l97 29l43 -68l-314 -95l1 80l68 22q-24 31 -24 64q0 43 19 72.5t58 40.5l79 23l37 -69l-86 -25q-12 -3 -19.5 -12.5t-7.5 -22.5zM478 885q111 0 186.5 -77t78.5 -191v-280q0 -96 -47 -171.5t-120 -119.5q-76 -46 -169 -46
q-96 0 -172 47t-120 120q-45 75 -45 170v281l188 58v-339q0 -61 44 -105q43 -43 103 -44h3q61 0 104 44q44 44 44 105v279q0 34 -24 58t-57 24h-398l38 187h363z" />
    <glyph glyph-name="uni06CA" unicode="&#x6ca;" horiz-adv-x="860" 
d="M443 913l-124 -124l-124 124l124 125zM692 913l-124 -124l-124 124l124 125zM374 -269q94 0 161 66t67 161v447q0 33 -25 57t-57 24h-123q-61 0 -105 -44t-44 -104v-2q0 -60 44 -104t105 -44h186l-58 -190l-134 2q-95 0 -169.5 47t-117.5 122q-44 75 -44 168
q0 96 47.5 172t119.5 119q78 46 170 46h124q113 0 188.5 -76t80.5 -191v-488q0 -148 -116 -257q-59 -56 -137.5 -87.5t-162.5 -31.5h-307l38 188h269z" />
    <glyph glyph-name="uni06CC" unicode="&#x6cc;" horiz-adv-x="1305" 
d="M845 52q-114 0 -191.5 76.5t-77.5 189.5v76q0 120 75 200t190 80h386l-42 -188h-340q-33 0 -57 -22.5t-24 -56.5v-86q0 -33 24 -57t58 -24h123q110 0 188 -78.5t78 -191.5v-51q0 -85 -54 -172q-59 -91 -151.5 -147.5t-210.5 -56.5h-167q-166 0 -297.5 81.5t-206.5 207.5
q-78 132 -78 293v316l188 36v-353q0 -114 54.5 -201t141.5 -139q89 -53 198 -53h167q94 0 161 66t67 161v12q0 34 -24 58t-57 24h-121z" />
    <glyph glyph-name="uni06F0" unicode="&#x6f0;" horiz-adv-x="763" 
d="M521 450q9 28 9 46q0 58 -43 102t-102 44q-60 0 -103 -44t-43 -102.5t44 -101.5t102 -43t103 44q24 27 33 55zM572 271q-84 -71 -191 -71q-122 0 -211.5 90t-89.5 212q0 123 89 212t212 89q122 0 212 -89.5t90 -211.5q0 -93 -53 -169q-13 -17 -30.5 -35t-27.5 -27z" />
    <glyph glyph-name="uni06F1" unicode="&#x6f1;" horiz-adv-x="512" 
d="M311 38l-188 -38v927q0 72 -17 160l-15 64l-11 39l182 38l10 -36l18 -74q14 -51 22 -162z" />
    <glyph glyph-name="uni06F2" unicode="&#x6f2;" horiz-adv-x="805" 
d="M269 896q5 -42 39 -75q39 -40 91 -40h7q55 0 93 39t38 93v275l188 38v-313q-5 -133 -95 -224t-221 -95h-12q-48 0 -129 26v-582l-188 -38v927q0 72 -17 160l-15 64l-11 39l182 38l10 -36l18 -74q14 -51 22 -162v-60z" />
    <glyph glyph-name="uni06F3" unicode="&#x6f3;" horiz-adv-x="1262" 
d="M269 897q5 -42 39 -75q39 -40 91 -40h7q55 0 93 39t38 93v275l188 37v-312q0 -54 38 -93t93 -39h7q52 0 91.5 39.5t39.5 92.5v274l188 38v-312q-5 -133 -95 -224t-221 -95h-12q-121 3 -223 92q-102 -89 -222 -92h-12q-48 0 -129 26v-583l-188 -38v927q0 72 -17 160
l-15 64l-11 39l182 38l10 -36l18 -74q14 -51 22 -162v-59z" />
    <glyph glyph-name="uni06F4" unicode="&#x6f4;" horiz-adv-x="1070" 
d="M269 776h138q-26 83 -26 107v35q4 131 95 220.5t224 94.5h252l-39 -187h-213q-54 0 -93 -39t-39 -93v-6q0 -54 39 -93t93 -39h337l-38 -187h-731v-551l-188 -38v927q0 72 -17 160l-15 64l-11 39l182 38l10 -36l18 -74q14 -51 22 -162v-180z" />
    <glyph glyph-name="uni06F5" unicode="&#x6f5;" horiz-adv-x="1296" 
d="M431 912l189 -67l-341 -431q-21 -37 -21 -77q0 -60 42 -104t100 -45h8q58 1 100 40q45 39 47 116v137l187 38v-185q4 -74 48 -110t101 -36h2q59 0 103 45q43 45 43 104q0 49 -24 81v2l-570 650l108 156q269 -306 383 -432q213 -240 216 -245q74 -92 74 -199
q0 -205 -167 -304q-76 -46 -169 -46q-128 0 -242 101q-114 -101 -223 -101q-158 0 -256.5 98t-98.5 256q0 109 83 204z" />
    <glyph glyph-name="uni06F6" unicode="&#x6f6;" horiz-adv-x="1043" 
d="M326 651.5q58 -56.5 133 -56.5q74 1 133 57l195 197l186 -78l-752 -762l-106 160l245 248q-109 45 -167 100q-112 116 -113 262v7q2 155 126 281l158 156l175 -89l-217 -216q-53 -58 -54 -129v-5q0 -76 58 -132.5z" />
    <glyph glyph-name="uni06F7" unicode="&#x6f7;" horiz-adv-x="937" 
d="M464 0q-100 0 -174 64.5t-93 152.5q0 15 -3 18l-164 946l180 51l168 -960q16 -84 86 -84q66 0 83 69l6 32l156 890l198 50l-175 -1006q-17 -91 -92 -157t-176 -66z" />
    <glyph glyph-name="uni06F8" unicode="&#x6f8;" horiz-adv-x="937" 
d="M473 1232q100 0 174 -64.5t93 -152.5q0 -15 3 -18l164 -946l-180 -51l-168 960q-16 84 -86 84q-62 0 -81 -60q-3 -11 -9 -44l-155 -887l-198 -50l175 1006q17 91 92 157t176 66z" />
    <glyph glyph-name="uni06F9" unicode="&#x6f9;" horiz-adv-x="918" 
d="M388 565q-90 0 -160.5 48t-106.5 118q-41 79 -41 170q0 98 47 173t120 119q76 46 170 46h163q109 -4 182 -80t76 -189v-932l-188 -38v969q0 34 -24 58t-57 24h-152q-61 0 -105 -44q-43 -42 -44 -103v-2q0 -61 44 -105t105 -44h214l-65 -188h-178z" />
    <glyph glyph-name="uni200C" unicode="&#x200c;" 
 />
    <glyph glyph-name="uni200D" unicode="&#x200d;" 
 />
    <glyph glyph-name="uni200E" unicode="&#x200e;" horiz-adv-x="37" 
d="M243 1294l-108 -110l-27 23l71 71h-142v-1278h-37v1312h174l-66 67l27 25z" />
    <glyph glyph-name="uni200F" unicode="&#x200f;" horiz-adv-x="37" 
d="M37 0h-37v1278h-142l69 -71l-23 -23l-113 110l113 110l23 -25l-67 -67h177v-1312z" />
    <glyph glyph-name="quoteleft" unicode="&#x2018;" horiz-adv-x="405" 
d="M297 1169q38 -38 38 -92q0 -52 -38 -89.5t-91 -37.5q-67 0 -101.5 42t-34.5 113q0 75 30 149t113 166l76 -79q-66 -74 -88 -134h5q53 0 91 -38z" />
    <glyph glyph-name="quoteright" unicode="&#x2019;" horiz-adv-x="405" 
d="M108 1201q-38 38 -38 92q0 52 38 89.5t90 37.5q68 0 102.5 -42t34.5 -113q0 -75 -30 -149t-113 -166l-77 79q67 74 89 134h-6q-52 0 -90 38z" />
    <glyph glyph-name="quotedblleft" unicode="&#x201c;" horiz-adv-x="459" 
d="M208 1480v-411l-138 -44l1 404zM389 1480v-411l-138 -44l1 404z" />
    <glyph glyph-name="quotedblright" unicode="&#x201d;" horiz-adv-x="459" 
d="M251 1480l137 -41l1 -414l-138 44v411zM70 1480l137 -41l1 -414l-138 44v411z" />
    <glyph glyph-name="guilsinglleft" unicode="&#x2039;" horiz-adv-x="424" 
d="M289 652l65 -118l-168 -200l153 -194l-53 -121l-196 246q-20 25 -20 53q0 63 36 105z" />
    <glyph glyph-name="guilsinglright" unicode="&#x203a;" horiz-adv-x="424" 
d="M135 652l183 -229q36 -42 36 -105q0 -28 -20 -53l-196 -246l-53 121l153 194l-168 200z" />
    <glyph glyph-name="glyph127" unicode="&#xe000;" horiz-adv-x="302" 
d="M282 131l-131 -131l-131 131l131 132z" />
    <glyph glyph-name="glyph128" unicode="&#xe001;" horiz-adv-x="537" 
d="M268 124l-124 -124l-124 124l124 125zM517 124l-124 -124l-124 124l124 125z" />
    <glyph glyph-name="glyph129" unicode="&#xe002;" horiz-adv-x="537" 
d="M268 117l-124 -124l-124 124l124 125zM517 117l-124 -124l-124 124l124 125zM393 288l-124 -124l-124 124l124 125z" />
    <glyph glyph-name="glyph130" unicode="&#xe003;" horiz-adv-x="537" 
d="M268 117l-124 -124l-124 124l124 125zM517 117l-124 -124l-124 124l124 125zM393 -54l-124 -124l-124 124l124 125z" />
    <glyph glyph-name="glyph131" unicode="&#xe004;" horiz-adv-x="1626" 
d="M70 593l188 38v-362q0 -33 24 -57t57 -24h890q34 0 58 24t24 57v324l188 38v-362q0 -33 24 -57t57 -24h46v-188h-46q-88 0 -175 63q-87 -63 -175 -63h-891q-113 0 -191 77t-78 188v328z" />
    <glyph glyph-name="glyph132" unicode="&#xe005;" horiz-adv-x="1352" 
d="M527 368q0 125 90.5 215.5t214.5 90.5h137q112 0 189 -77.5t77 -191.5v-137q0 -33 23.5 -56.5t57.5 -23.5h36v-188h-36q-17 0 -81 10v-91q0 -107 -80 -204q-54 -76 -140.5 -124t-195.5 -48h-167q-168 0 -298.5 81.5t-205.5 207.5q-78 132 -78 293v317l188 40v-358
q0 -114 54.5 -201.5t141.5 -138.5q89 -53 198 -53h167q95 0 161.5 66.5t66.5 159.5v447q0 34 -24 58t-57 24h-134q-48 0 -83 -35q-33 -32 -35 -78v-8q1 -47 35 -80q35 -34 82 -34h199l-57 -187h-142q-123 0 -213.5 89.5t-90.5 214.5z" />
    <glyph glyph-name="glyph133" unicode="&#xe006;" horiz-adv-x="879" 
d="M543 934q112 0 189 -77.5t77 -191.5v-400q0 -111 -77.5 -188t-191.5 -77h-550q-31 0 -52 21t-21 52v42q0 29 22 51t51 22h549q34 0 58 24t24 57v396q0 33 -23.5 57.5t-57.5 24.5h-134q-48 0 -83 -35q-33 -33 -35 -78v-6q0 -48 35 -82t82 -34h199l-57 -188h-142
q-121 0 -212.5 90t-91.5 216q0 124 90.5 214t214.5 90h137z" />
    <glyph glyph-name="glyph134" unicode="&#xe007;" horiz-adv-x="981" 
d="M543 914q111 0 186 -77.5t80 -192.5v-376q0 -34 24 -57t57 -23h91v-188h-91q-88 0 -175 63q-85 -61 -175 -63h-550q-31 0 -52 21t-21 52v42q0 29 22 51t51 22h549q34 0 58 24t24 57v376q0 33 -23.5 57.5t-57.5 24.5h-134q-48 0 -83 -35q-34 -33 -35 -80v-4q0 -48 35 -82
t82 -34h199l-57 -188h-142q-123 0 -213.5 90t-90.5 216q0 124 90.5 214t214.5 90h137z" />
    <glyph glyph-name="glyph135" unicode="&#xe008;" horiz-adv-x="1382" 
d="M1235 -81q0 -108 -80 -204q-55 -77 -141.5 -124.5t-194.5 -47.5h-167q-166 0 -297.5 81.5t-206.5 207.5q-78 132 -78 293v316l188 37v-354q0 -114 54.5 -201t141.5 -139q89 -53 198 -53h167q94 0 161 66t67 161v637l188 38v-368q0 -32 24.5 -54.5t56.5 -22.5h66v-188h-66
q-19 0 -81 10v-91z" />
    <glyph glyph-name="glyph136" unicode="&#xe009;" horiz-adv-x="1690" 
d="M1290 914q111 0 188 -77.5t77 -191.5v-380q0 -32 24.5 -54.5t57.5 -22.5h53v-188h-54q-88 0 -175 63q-87 -63 -175 -63h-947q-113 0 -188.5 76.5t-80.5 189.5v327l188 38v-362q0 -33 24 -57t57 -24h947q31 0 56.5 22t25.5 55v380q0 34 -24 58t-58 24h-136
q-48 0 -82.5 -35.5t-34.5 -82.5q0 -49 35 -83t82 -34h202l-59 -188h-143q-122 0 -213.5 90.5t-91.5 215.5q0 124 90.5 214t214.5 90h140z" />
    <glyph glyph-name="uni0009" horiz-adv-x="700" 
 />
    <glyph glyph-name="GAFbar" horiz-adv-x="1812" 
d="M1508 1354l-476 -274l-32 90l482 278z" />
    </font>
</defs>
</svg>
