<?xml version="1.0" standalone="no"?>
<!DOCTYPE svg PUBLIC "-//W3C//DTD SVG 1.1//EN" "http://www.w3.org/Graphics/SVG/1.1/DTD/svg11.dtd" >
<svg xmlns="http://www.w3.org/2000/svg" xmlns:xlink="http://www.w3.org/1999/xlink" version="1.1">
<metadata>
Created by FontForge 20201107 at Tue Aug 18 13:03:21 2020
 By www-data
Copyright (c) 2019 by www.fontiran.com All rights reserved.
</metadata>
<defs>
<font id="ArtinSharp-Bold" horiz-adv-x="0" >
  <font-face 
    font-family="Artin Sharp"
    font-weight="700"
    font-stretch="normal"
    units-per-em="2048"
    panose-1="0 0 0 0 0 0 0 0 0 0"
    ascent="1638"
    descent="-410"
    x-height="949"
    cap-height="1300"
    bbox="-541 -834 2488 2136"
    underline-thickness="100"
    underline-position="-770"
    unicode-range="U+001D-FEFC"
  />
<missing-glyph horiz-adv-x="664" 
d="M50 -10v1385h564v-1385h-564zM138 78h388v1209h-388v-1209z" />
    <glyph glyph-name="uni0622" unicode="&#x627;&#x653;" horiz-adv-x="400" 
d="M-273 1518l28 21q101 84 219 84h645l-48 -238h-558q-78 0 -131 -47zM50 0v1249l248 52v-1252z" />
    <glyph glyph-name="uni0623" unicode="&#x627;&#x654;" horiz-adv-x="388" 
d="M185 1558q0 -21 14 -35.5t36 -14.5q7 0 11 2l121 36l54 -85l-393 -119l1 100l85 28q-30 38 -30 79q0 54 24 91t72 51l99 29l47 -86l-108 -32q-14 -4 -23.5 -16t-9.5 -28zM70 0v1249l248 52v-1252z" />
    <glyph glyph-name="uni0624" unicode="&#x648;&#x654;" horiz-adv-x="910" 
d="M394 -209q82 0 140 57.5t58 139.5v447q0 20 -16 35.5t-36 15.5h-123q-49 0 -84 -35t-35 -83v-2q0 -48 35 -83t84 -35h162l-69 -250l-99 2q-104 0 -185 51.5t-128 132.5q-48 82 -48 183q0 105 51.5 187.5t130.5 129.5q85 50 185 50h124q125 0 209.5 -84.5t89.5 -211.5
v-489q0 -161 -125 -279q-64 -60 -147.5 -93.5t-173.5 -33.5h-344l50 248h294zM453 1008q0 -21 14 -35.5t36 -14.5q7 0 11 2l121 36l54 -85l-393 -119l1 100l85 28q-30 38 -30 79q0 54 24 91t72 51l99 29l47 -86l-108 -32q-14 -4 -23.5 -16t-9.5 -28z" />
    <glyph glyph-name="uni0625" unicode="&#x627;&#x655;" horiz-adv-x="388" 
d="M185 -256q0 -21 14 -35.5t36 -14.5q7 0 11 2l121 36l54 -85l-393 -119l1 100l85 28q-30 38 -30 79q0 54 24 91t72 51l99 29l47 -86l-108 -32q-14 -4 -23.5 -16t-9.5 -28zM70 0v1249l248 52v-1252z" />
    <glyph glyph-name="uni0626" unicode="&#x64a;&#x654;" horiz-adv-x="1365" 
d="M875 52q-126 0 -212.5 85t-86.5 211v76q0 132 83.5 221t211.5 89h424l-56 -248h-364q-21 0 -36 -14t-15 -35v-86q0 -21 15 -36t37 -15h123q123 0 209.5 -87.5t86.5 -212.5v-51q0 -94 -59 -188q-63 -97 -162 -157.5t-225 -60.5h-167q-175 0 -313 85.5t-217 218.5
q-82 139 -82 308v341l248 47v-389q0 -105 50.5 -185.5t130.5 -128.5q82 -49 183 -49h167q82 0 140 57.5t58 139.5v12q0 22 -15 37t-36 15h-121zM284 831q0 -21 14 -35.5t36 -14.5q7 0 11 2l121 36l54 -85l-393 -119l1 100l85 28q-30 38 -30 79q0 54 24 91t72 51l99 29
l47 -86l-108 -32q-14 -4 -23.5 -16t-9.5 -28z" />
    <glyph glyph-name="uniFBA5" unicode="&#xfeea;&#x654;" horiz-adv-x="1073" arabic-form="final" 
d="M353 978q0 -21 14 -35.5t36 -14.5q7 0 11 2l121 36l54 -85l-393 -119l1 100l85 28q-30 38 -30 79q0 54 24 91t72 51l99 29l47 -86l-108 -32q-14 -4 -23.5 -16t-9.5 -28zM318 366q0 -49 35 -83.5t84 -34.5h219l-73 -248h-146q-106 0 -187.5 51t-130.5 131q-49 82 -49 184
q0 106 51 188t131 130q82 49 185 49h57q122 0 211.5 -67t133.5 -176l66 -166q30 -76 112 -76h56v-248h-56q-121 0 -212 68t-132 169l-70 178q-34 71 -109 71h-57q-49 0 -84 -35t-35 -85z" />
    <glyph glyph-name="uniFDF2" unicode="&#x627;&#xfedf;&#xfee0;&#xfeea;" horiz-adv-x="2332" arabic-form="isolated" 
d="M2014 0v1246l248 55v-1251zM1402 299q0 -21 15 -36t36 -15h149q22 0 37 16t15 38v947l248 52v-1006q-5 -123 -90 -207.5t-209 -87.5h-150q-100 2 -175 56q-75 -54 -175 -56h-86q-121 0 -213 68.5t-131 168.5l-70 178q-32 67 -109 71h-57q-49 0 -84 -35t-35 -85
q0 -49 34.5 -83.5t84.5 -34.5h215l-51 -250l-164 2q-106 0 -187 51t-130 131q-50 83 -50 184q0 106 51 188t131 130q82 49 185 49h57q119 0 212 -70.5t133 -172.5l66 -166q30 -76 112 -76h85q22 0 37 15t15 36v797l248 51v-848zM1172 1262q0 -12 9 -21q8 -8 20 -9h2
q11 0 20 9t9 21v68l73 26v-65q0 -13 9 -21q8 -8 19 -9h4q12 0 20 9q8 8 8 21v87l74 26v-115q0 -37 -29.5 -69t-66.5 -32q-36 0 -58 13q-32 -42 -79 -42q-45 0 -76 29t-31 72v23l73 26v-47z" />
    <glyph glyph-name="uniFEF5" unicode="&#xfedf;&#xfe82;" horiz-adv-x="969" arabic-form="isolated" 
d="M-273 1498l28 21q101 84 219 84h645l-48 -238h-558q-78 0 -131 -47zM318 298q0 -21 15 -36t36 -15h231q21 0 36.5 15t15.5 36v951l247 51v-1006q0 -123 -87 -208.5t-212 -85.5h-231q-125 0 -212 85.5t-87 208.5v955l248 51v-1002z" />
    <glyph glyph-name="uniFEF6" unicode="&#xfee0;&#xfe82;" horiz-adv-x="1019" arabic-form="final" 
d="M-273 1498l28 21q101 84 219 84h645l-48 -238h-558q-78 0 -131 -47zM763 48q-73 -48 -163 -48h-231q-125 0 -209.5 84.5t-89.5 210.5v954l248 52v-1002q0 -21 15 -36t36 -15h231q20 0 36 15.5t16 35.5v950l247 52v-1004q0 -20 15 -34.5t37 -14.5h68v-248h-69
q-98 0 -175 56z" />
    <glyph glyph-name="uniFEF7" unicode="&#xfedf;&#xfe84;" horiz-adv-x="969" arabic-form="isolated" 
d="M185 1508q0 -21 14 -35.5t36 -14.5q7 0 11 2l121 36l54 -85l-393 -119l1 100l85 28q-30 38 -30 79q0 54 24 91t72 51l99 29l47 -86l-108 -32q-14 -4 -23.5 -16t-9.5 -28zM318 298q0 -21 15 -36t36 -15h231q21 0 36.5 15t15.5 36v951l247 51v-1006q0 -123 -87 -208.5
t-212 -85.5h-231q-125 0 -212 85.5t-87 208.5v955l248 51v-1002z" />
    <glyph glyph-name="uniFEF8" unicode="&#xfee0;&#xfe84;" horiz-adv-x="1019" arabic-form="final" 
d="M185 1508q0 -21 14 -35.5t36 -14.5q7 0 11 2l121 36l54 -85l-393 -119l1 100l85 28q-30 38 -30 79q0 54 24 91t72 51l99 29l47 -86l-108 -32q-14 -4 -23.5 -16t-9.5 -28zM763 48q-73 -48 -163 -48h-231q-125 0 -209.5 84.5t-89.5 210.5v954l248 52v-1002q0 -21 15 -36
t36 -15h231q20 0 36 15.5t16 35.5v950l247 52v-1004q0 -20 15 -34.5t37 -14.5h68v-248h-69q-98 0 -175 56z" />
    <glyph glyph-name="uniFEF9" unicode="&#xfedf;&#xfe88;" horiz-adv-x="969" arabic-form="isolated" 
d="M185 -199q0 -21 14 -35.5t36 -14.5q7 0 11 2l121 36l54 -85l-393 -119l1 100l85 28q-30 38 -30 79q0 54 24 91t72 51l99 29l47 -86l-108 -32q-14 -4 -23.5 -16t-9.5 -28zM318 298q0 -21 15 -36t36 -15h231q21 0 36.5 15t15.5 36v951l247 51v-1006q0 -123 -87 -208.5
t-212 -85.5h-231q-125 0 -212 85.5t-87 208.5v955l248 51v-1002z" />
    <glyph glyph-name="uniFEFA" unicode="&#xfee0;&#xfe88;" horiz-adv-x="1019" arabic-form="final" 
d="M185 -229q0 -21 14 -35.5t36 -14.5q7 0 11 2l121 36l54 -85l-393 -119l1 100l85 28q-30 38 -30 79q0 54 24 91t72 51l99 29l47 -86l-108 -32q-14 -4 -23.5 -16t-9.5 -28zM763 48q-73 -48 -163 -48h-231q-125 0 -209.5 84.5t-89.5 210.5v954l248 52v-1002q0 -21 15 -36
t36 -15h231q20 0 36 15.5t16 35.5v950l247 52v-1004q0 -20 15 -34.5t37 -14.5h68v-248h-69q-98 0 -175 56z" />
    <glyph glyph-name="uniFEFB" unicode="&#xfedf;&#xfe8e;" horiz-adv-x="969" arabic-form="isolated" 
d="M318 298q0 -21 15 -36t36 -15h231q21 0 36.5 15t15.5 36v951l247 51v-1006q0 -123 -87 -208.5t-212 -85.5h-231q-125 0 -212 85.5t-87 208.5v955l248 51v-1002z" />
    <glyph glyph-name="uniFEFC" unicode="&#xfee0;&#xfe8e;" horiz-adv-x="1019" arabic-form="final" 
d="M763 48q-73 -48 -163 -48h-231q-125 0 -209.5 84.5t-89.5 210.5v954l248 52v-1002q0 -21 15 -36t36 -15h231q20 0 36 15.5t16 35.5v950l247 52v-1004q0 -20 15 -34.5t37 -14.5h68v-248h-69q-98 0 -175 56z" />
    <glyph glyph-name="TF" unicode="&#x64e;&#x651;" 
d="M-96 1699q0 -12 9 -21t21 -9t21 9t9 21v68l73 26v-65q0 -13 9 -21.5t22 -8.5t21 8.5t8 21.5v87l74 26v-115q0 -37 -29.5 -69t-66.5 -32q-36 0 -58 13q-32 -42 -79 -42q-45 0 -76 29t-31 72v23l73 26v-47zM171 1908l-340 -120v72l340 119v-71z" />
    <glyph glyph-name="TK" unicode="&#x650;&#x651;" 
d="M-96 1858q0 -12 9 -21t21 -9t21 9t9 21v68l73 26v-65q0 -13 9 -21.5t22 -8.5t21 8.5t8 21.5v87l74 26v-115q0 -37 -29.5 -69t-66.5 -32q-36 0 -58 13q-32 -42 -79 -42q-45 0 -76 29t-31 72v23l73 26v-47zM171 1683l-340 -120v72l340 119v-71z" />
    <glyph glyph-name="uniA728" unicode="&#x64f;&#x651;" 
d="M-55 1909q0 45 33.5 78.5t79.5 33.5t79.5 -33.5t33.5 -79.5q0 -79 -79 -107l-261 -93v72l145 51q-31 31 -31 78zM58 1862q19 0 32.5 13.5t13.5 32.5t-13.5 32.5t-32.5 13.5t-32.5 -13.5t-13.5 -32.5t13.5 -32.5t32.5 -13.5zM-96 1599q0 -12 9 -21t21 -9t21 9t9 21v68
l73 26v-65q0 -13 9 -21.5t22 -8.5t21 8.5t8 21.5v87l74 26v-115q0 -37 -29.5 -69t-66.5 -32q-36 0 -58 13q-31 -42 -79 -42q-45 0 -76 29t-31 72v23l73 26v-47z" />
    <glyph glyph-name="TF2" unicode="&#x64b;&#x651;" 
d="M171 2061l-340 -120v72l340 119v-71zM-96 1689q0 -12 9 -21t21 -9t21 9t9 21v68l73 26v-65q0 -13 9 -21.5t22 -8.5t21 8.5t8 21.5v87l74 26v-115q0 -37 -29.5 -69t-66.5 -32q-36 0 -58 13q-32 -42 -79 -42q-45 0 -76 29t-31 72v23l73 26v-47zM171 1920l-340 -120v72
l340 119v-71z" />
    <glyph glyph-name="TK2" unicode="&#x64d;&#x651;" 
d="M171 1804l-340 -120v72l340 119v-71zM-96 1991q0 -12 9 -21t21 -9t21 9t9 21v68l73 26v-65q0 -13 9 -21.5t22 -8.5t21 8.5t8 21.5v87l74 26v-115q0 -37 -29.5 -69t-66.5 -32q-36 0 -58 13q-32 -42 -79 -42q-45 0 -76 29t-31 72v23l73 26v-47zM171 1663l-340 -120v72
l340 119v-71z" />
    <glyph glyph-name="TZ2" unicode="&#x64c;&#x651;" 
d="M-96 1679q0 -12 9 -21t21 -9t21 9t9 21v68l73 26v-65q0 -13 9 -21.5t22 -8.5t21 8.5t8 21.5v87l74 26v-115q0 -37 -29.5 -69t-66.5 -32q-36 0 -58 13q-32 -42 -79 -42q-45 0 -76 29t-31 72v23l73 26v-47zM-54 1979q0 45 33.5 78t78.5 33q46 0 79.5 -33t33.5 -79
q0 -79 -79 -107l-261 -93v66l49 17q18 6 18 22q0 28 -24 28q-3 0 -11 -2l-32 -11v66q27 9 44 9q33 0 57 -23.5t27 -55.5l18 7q-31 31 -31 78zM58 1932q19 0 32.5 13.5t13.5 32.5t-13 32q-14 13 -33 13v0q-19 0 -32 -13t-13 -32q0 -20 13 -33t32 -13z" />
    <glyph glyph-name="HF" unicode="&#x64e;&#x654;" 
d="M-40 1699q0 -21 14 -35.5t36 -14.5q7 0 11 2l121 36l54 -85l-393 -119l1 100l85 28q-30 38 -30 79q0 54 24 91t72 51l99 29l47 -86l-108 -32q-14 -4 -23.5 -16t-9.5 -28zM142 1957l-340 -120v72l340 119v-71z" />
    <glyph glyph-name="HZ" unicode="&#x64f;&#x654;" 
d="M-40 1669q0 -21 14 -35.5t36 -14.5q7 0 11 2l121 36l54 -85l-393 -119l1 100l85 28q-30 38 -30 79q0 54 24 91t72 51l99 29l47 -86l-108 -32q-14 -4 -23.5 -16t-9.5 -28zM-93 2024q0 46 33.5 79t79.5 33q47 0 80 -33t33 -80q0 -79 -79 -107l-261 -93v72l145 51
q-31 31 -31 78zM20 1977q19 0 32.5 13.5t13.5 32.5t-13.5 32.5t-32.5 13.5t-32.5 -13.5t-13.5 -32.5t13.5 -32.5t32.5 -13.5z" />
    <glyph glyph-name="uniFB57" unicode="&#x67e;" horiz-adv-x="1656" arabic-form="final" 
d="M836 -290l-159 -159l-160 159l160 160zM1156 -290l-159 -159l-160 159l160 160zM996 -521l-159 -159l-160 159l160 160zM70 648l248 50v-399q0 -21 15 -36t36 -15h890q22 0 37 15t15 36v348l248 51v-399q0 -21 15 -36t36 -15h46v-248h-46q-98 0 -175 56q-77 -56 -175 -56
h-891q-125 0 -212 85.5t-87 209.5v353z" />
    <glyph glyph-name="uniFB58" unicode="&#x67e;" horiz-adv-x="620" arabic-form="initial" 
d="M218 -330l-159 -159l-160 159l160 160zM538 -330l-159 -159l-160 159l160 160zM378 -561l-159 -159l-160 159l160 160zM-113 145q0 41 30.5 72t72.5 31h260q22 0 37 15t15 36v384l248 50v-438q-5 -125 -89 -208.5t-210 -86.5h-261q-43 0 -73 30t-30 73v42z" />
    <glyph glyph-name="uniFB59" unicode="&#x67e;" horiz-adv-x="651" arabic-form="medial" 
d="M218 -330l-159 -159l-160 159l160 160zM538 -330l-159 -159l-160 159l160 160zM378 -561l-159 -159l-160 159l160 160zM174 248q22 0 37 15t15 36v349l248 50v-399q0 -21 15 -36t36 -15h126v-248h-126q-98 0 -175 56q-77 -56 -175 -56h-185q-43 0 -73 30t-30 73v42
q0 41 30.5 72t72.5 31h184z" />
    <glyph glyph-name="uniFB7B" unicode="&#x686;" horiz-adv-x="1053" arabic-form="final" 
d="M705 -168l-136 -136l-135 136l135 135zM977 -168l-136 -136l-135 136l135 135zM841 -365l-136 -135l-135 135l135 136zM168 519l50 248h546q73 0 128 -36t86 -92q33 -59 33 -122q0 -140 -133 -219q2 -21 16.5 -35.5t35.5 -14.5h123v-248h-117q-99 0 -158 59
q-51 50 -71 130q-272 -174 -347 -263q-37 -49 -42 -115q0 -105 51 -187t129 -128q87 -49 183 -49h392l-50 -248h-341q-177 0 -314 85.5t-216 218.5q-82 139 -82 308q4 197 169 342q110 92 327 235l152 100q6 6 6 14q0 7 -5 12t-12 5h-539z" />
    <glyph glyph-name="uniFB7C" unicode="&#x686;" horiz-adv-x="1098" arabic-form="initial" 
d="M489 -331l-159 -159l-160 159l160 160zM809 -331l-159 -159l-160 159l160 160zM649 -562l-159 -159l-160 159l160 160zM161 512l50 247h570q73 0 127.5 -35.5t86.5 -91.5q33 -60 33 -107q0 -149 -123 -228l-181 -116q-293 -188 -498 -188h-231q-43 0 -73 30t-30 73v42
q0 43 30 73t73 30h205q83 0 200 50q115 50 212 112l118 75l2 2q7 6 7 15q0 7 -5 12t-12 5h-561z" />
    <glyph glyph-name="uniFB7D" unicode="&#x686;" horiz-adv-x="1136" arabic-form="medial" 
d="M489 -333l-159 -159l-160 159l160 160zM809 -333l-159 -159l-160 159l160 160zM649 -564l-159 -159l-160 159l160 160zM163 513l50 247h632q73 0 127.5 -35.5t86.5 -91.5q33 -59 33 -106q0 -155 -122 -229l-9 -6q2 -22 15.5 -35.5t36.5 -13.5h123v-249h-118
q-99 0 -158 59q-51 50 -71 129q-290 -188 -499 -188h-295q-43 0 -73 30t-30 73v42q0 50 34.5 76.5t89.5 26.5h248q163 0 412 162l118 75l2 2q7 6 7 15q0 7 -5 12t-12 5h-623z" />
    <glyph glyph-name="uniFB8B" unicode="&#x698;" horiz-adv-x="560" arabic-form="final" 
d="M297 977l-159 -159l-160 159l160 160zM617 977l-159 -159l-160 159l160 160zM457 1208l-159 -159l-160 159l160 160zM-150 -457l51 248h104q80 0 138.5 58.5t58.5 138.5v662l248 51v-405q0 -20 15.5 -34t36.5 -14h58v-248h-59q-19 0 -51 5v-56q0 -122 -85 -222
q-60 -82 -151.5 -133t-208.5 -51h-155z" />
    <glyph glyph-name="uniFB8F" unicode="&#x6a9;" horiz-adv-x="1782" arabic-form="final" 
d="M318 299q0 -21 15 -36t36 -15h920q22 0 22 22q0 9 -7 16l-373 373q-44 47 -44 137q0 141 122 211l516 299l81 -239l-464 -269l519 -519q31 -31 83 -31h38v-248h-90q-105 0 -173 71l-24 25q-83 -96 -206 -96h-920q-126 0 -212.5 85.5t-86.5 209.5v353l248 50v-399z" />
    <glyph glyph-name="uniFB90" unicode="&#x6a9;" horiz-adv-x="875" arabic-form="initial" 
d="M-10 0q-43 0 -73 30t-30 73v42q0 41 31 72t72 31h513q23 0 23 22q0 9 -7 16l-373 373q-45 45 -45 136q0 142 122 212l509 294l93 -235l-468 -268l338 -338q78 -78 78 -189q0 -110 -80 -190.5t-189 -80.5h-514z" />
    <glyph glyph-name="uniFB91" unicode="&#x6a9;" horiz-adv-x="970" arabic-form="medial" 
d="M-10 0q-43 0 -73 30t-30 73v42q0 41 30.5 72t72.5 31h513q23 0 23 22q0 9 -7 16l-373 373q-45 45 -45 136q0 138 122 212l509 293l92 -233l-467 -269l518 -519q31 -31 83 -31h12v-248h-64q-96 0 -173 71l-24 24q-81 -95 -205 -95h-514z" />
    <glyph glyph-name="uniFB93" unicode="&#x6af;" horiz-adv-x="1782" arabic-form="final" 
d="M1508 1334l-476 -274l-32 110l482 278zM318 299q0 -21 15 -36t36 -15h920q22 0 22 22q0 9 -7 16l-373 373q-44 47 -44 137q0 141 122 211l516 299l81 -239l-464 -269l519 -519q31 -31 83 -31h38v-248h-90q-105 0 -173 71l-24 25q-83 -96 -206 -96h-920
q-126 0 -212.5 85.5t-86.5 209.5v353l248 50v-399z" />
    <glyph glyph-name="uniFB94" unicode="&#x6af;" horiz-adv-x="871" arabic-form="initial" 
d="M693 1333l-476 -273l-37 108l487 280zM-10 0q-43 0 -73 30t-30 73v42q0 41 31 72t72 31h512q23 0 23 22q0 9 -7 16l-373 373q-45 45 -45 136q0 142 122 212l517 299l82 -238l-465 -270l338 -338q78 -78 78 -189q0 -110 -80 -190.5t-189 -80.5h-513z" />
    <glyph glyph-name="uniFB95" unicode="&#x6af;" horiz-adv-x="970" arabic-form="medial" 
d="M691 1333l-473 -273l-21 116l471 272zM-10 0q-43 0 -73 30t-30 73v42q0 41 30.5 72t72.5 31h513q23 0 23 22q0 9 -7 16l-373 373q-45 45 -45 136q0 138 122 212l517 299l54 -254l-437 -254l518 -519q31 -31 83 -31h12v-248h-64q-96 0 -173 71l-24 24q-81 -95 -205 -95
h-514z" />
    <glyph glyph-name="uniFBE8" unicode="&#x649;" horiz-adv-x="620" arabic-form="initial" 
d="M-113 145q0 41 30.5 72t72.5 31h260q22 0 37 15t15 36v384l248 50v-438q-5 -125 -89 -208.5t-210 -86.5h-261q-43 0 -73 30t-30 73v42z" />
    <glyph glyph-name="uniFBE9" unicode="&#x649;" horiz-adv-x="651" arabic-form="medial" 
d="M174 248q22 0 37 15t15 36v349l248 50v-399q0 -21 15 -36t36 -15h126v-248h-126q-98 0 -175 56q-77 -56 -175 -56h-185q-43 0 -73 30t-30 73v42q0 41 30.5 72t72.5 31h184z" />
    <glyph glyph-name="uniFBFD" unicode="&#x6cc;" horiz-adv-x="1421" arabic-form="final" 
d="M318 154q0 -153 105.5 -258t258.5 -105h167q81 0 139.5 58t58.5 139v12h-354l53 248h675v-248h-126v-51q0 -151 -117 -268q-64 -64 -150 -101t-179 -37h-167q-177 1 -313 86t-216 218q-83 140 -83 308v341l248 48v-390z" />
    <glyph glyph-name="uniFBFE" unicode="&#x6cc;" horiz-adv-x="620" arabic-form="initial" 
d="M219 -331l-159 -159l-160 159l160 160zM539 -331l-159 -159l-160 159l160 160zM-113 145q0 41 30.5 72t72.5 31h260q22 0 37 15t15 36v384l248 50v-438q-5 -125 -89 -208.5t-210 -86.5h-261q-43 0 -73 30t-30 73v42z" />
    <glyph glyph-name="uniFBFF" unicode="&#x6cc;" horiz-adv-x="651" arabic-form="medial" 
d="M219 -332l-159 -159l-160 159l160 160zM539 -332l-159 -159l-160 159l160 160zM174 248q22 0 37 15t15 36v349l248 50v-399q0 -21 15 -36t36 -15h126v-248h-126q-98 0 -175 56q-77 -56 -175 -56h-185q-43 0 -73 30t-30 73v42q0 41 30.5 72t72.5 31h184z" />
    <glyph glyph-name="uniFE82" unicode="&#x622;" horiz-adv-x="404" arabic-form="final" 
d="M318 299q0 -21 15 -36t36 -15h35v-248h-35q-126 3 -210 87t-89 208v956l248 50v-1002zM-262 1521q15 13 32 25q102 85 222 85h651l-50 -248h-562q-76 0 -131 -50z" />
    <glyph glyph-name="uniFE84" unicode="&#x623;" horiz-adv-x="404" arabic-form="final" 
d="M318 299q0 -21 15 -36t36 -15h35v-248h-35q-126 3 -210 87t-89 208v955l248 50v-1001zM203 1538q0 -21 14 -35.5t36 -14.5q7 0 11 2l121 36l54 -85l-393 -119l1 100l85 28q-30 38 -30 79q0 54 24 91t72 51l99 29l47 -86l-108 -32q-14 -4 -23.5 -16t-9.5 -28z" />
    <glyph glyph-name="uniFE86" unicode="&#x624;" horiz-adv-x="958" arabic-form="final" 
d="M403 1108q0 -21 14 -35.5t36 -14.5q7 0 11 2l121 36l54 -85l-393 -119l1 100l85 28q-30 38 -30 79q0 54 24 91t72 51l99 29l47 -86l-108 -32q-14 -4 -23.5 -16t-9.5 -28zM50 -457l50 248h295q81 0 139.5 58t58.5 139v447q0 20 -16 35.5t-36 15.5h-123q-49 0 -84 -35
t-35 -84v-2q1 -48 35 -82q35 -35 84 -35h162l-47 -248h-130q-98 0 -178 52.5t-126 131.5q-48 82 -48 184q0 105 51.5 187.5t130.5 128.5q86 50 185 50h124q125 -5 210 -88.5t89 -207.5v-141q0 -20 15 -34.5t36 -14.5h66v-248h-66q-19 0 -51 5v-56q0 -118 -86 -222
q-58 -81 -150.5 -132.5t-209.5 -51.5h-345z" />
    <glyph glyph-name="uniFE88" unicode="&#x625;" horiz-adv-x="404" arabic-form="final" 
d="M318 299q0 -21 15 -36t36 -15h35v-248h-35q-126 3 -210 87t-89 208v955l248 50v-1001zM203 -272q0 -21 14 -35.5t36 -14.5q7 0 11 2l121 36l54 -85l-393 -119l1 100l85 28q-30 38 -30 79q0 54 24 91t72 51l99 29l47 -86l-108 -32q-14 -4 -23.5 -16t-9.5 -28z" />
    <glyph glyph-name="uniFE8A" unicode="&#x626;" horiz-adv-x="1141" arabic-form="final" 
d="M318 -108q0 -42 29.5 -71.5t71.5 -29.5h610l-50 -248h-561q-147 0 -247.5 103t-100.5 254q0 145 100.5 246.5t244.5 101.5h726v-248h-722q-41 0 -71 -29.5t-30 -71.5v-7zM265 504q0 -21 14 -35.5t36 -14.5q7 0 11 2l121 36l54 -85l-393 -119l1 100l85 28q-30 38 -30 79
q0 54 24 91t72 51l99 29l47 -86l-108 -32q-14 -4 -23.5 -16t-9.5 -28z" />
    <glyph glyph-name="uniFE8B" unicode="&#x626;" horiz-adv-x="620" arabic-form="initial" 
d="M-113 145q0 41 30.5 72t72.5 31h260q22 0 37 15t15 36v384l248 50v-438q-5 -125 -89 -208.5t-210 -86.5h-261q-43 0 -73 30t-30 73v42zM305 978q0 -21 14 -35.5t36 -14.5q7 0 11 2l121 36l54 -85l-393 -119l1 100l85 28q-30 38 -30 79q0 54 24 91t72 51l99 29l47 -86
l-108 -32q-14 -4 -23.5 -16t-9.5 -28z" />
    <glyph glyph-name="uniFE8C" unicode="&#x626;" horiz-adv-x="651" arabic-form="medial" 
d="M174 248q22 0 37 15t15 36v349l248 50v-399q0 -21 15 -36t36 -15h126v-248h-126q-98 0 -175 56q-77 -56 -175 -56h-185q-43 0 -73 30t-30 73v42q0 41 30.5 72t72.5 31h184zM255 978q0 -21 14 -35.5t36 -14.5q7 0 11 2l121 36l54 -85l-393 -119l1 100l85 28q-30 38 -30 79
q0 54 24 91t72 51l99 29l47 -86l-108 -32q-14 -4 -23.5 -16t-9.5 -28z" />
    <glyph glyph-name="uniFE8E" unicode="&#x627;" horiz-adv-x="404" arabic-form="final" 
d="M318 299q0 -21 15 -36t36 -15h35v-248h-35q-126 3 -210 87t-89 208v955l248 50v-1001z" />
    <glyph glyph-name="uniFE90" unicode="&#x628;" horiz-adv-x="1656" arabic-form="final" 
d="M984 -330l-159 -159l-160 159l160 160zM70 648l248 50v-399q0 -21 15 -36t36 -15h890q22 0 37 15t15 36v348l248 51v-399q0 -21 15 -36t36 -15h46v-248h-46q-98 0 -175 56q-77 -56 -175 -56h-891q-125 0 -212 85.5t-87 209.5v353z" />
    <glyph glyph-name="uniFE91" unicode="&#x628;" horiz-adv-x="620" arabic-form="initial" 
d="M344 -330l-159 -159l-160 159l160 160zM-113 145q0 41 30.5 72t72.5 31h260q22 0 37 15t15 36v384l248 50v-438q-5 -125 -89 -208.5t-210 -86.5h-261q-43 0 -73 30t-30 73v42z" />
    <glyph glyph-name="uniFE92" unicode="&#x628;" horiz-adv-x="651" arabic-form="medial" 
d="M344 -330l-159 -159l-160 159l160 160zM174 248q22 0 37 15t15 36v349l248 50v-399q0 -21 15 -36t36 -15h126v-248h-126q-98 0 -175 56q-77 -56 -175 -56h-185q-43 0 -73 30t-30 73v42q0 41 30.5 72t72.5 31h184z" />
    <glyph glyph-name="uniFE94" unicode="&#x629;" horiz-adv-x="1073" arabic-form="final" 
d="M486 992l-159 -159l-160 159l160 160zM806 992l-159 -159l-160 159l160 160zM318 366q0 -49 35 -83.5t84 -34.5h219l-73 -248h-146q-106 0 -187.5 51t-130.5 131q-49 82 -49 184q0 106 51 188t131 130q82 49 185 49h57q122 0 211.5 -67t133.5 -176l66 -166
q30 -76 112 -76h56v-248h-56q-121 0 -212 68t-132 169l-70 178q-34 71 -109 71h-57q-49 0 -84 -35t-35 -85z" />
    <glyph glyph-name="uniFE96" unicode="&#x62a;" horiz-adv-x="1656" arabic-form="final" 
d="M836 758l-159 -159l-160 159l160 160zM1156 758l-159 -159l-160 159l160 160zM70 648l248 50v-399q0 -21 15 -36t36 -15h890q22 0 37 15t15 36v348l248 51v-399q0 -21 15 -36t36 -15h46v-248h-46q-98 0 -175 56q-77 -56 -175 -56h-891q-125 0 -212 85.5t-87 209.5v353z
" />
    <glyph glyph-name="uniFE97" unicode="&#x62a;" horiz-adv-x="620" arabic-form="initial" 
d="M300 977l-159 -159l-160 159l160 160zM620 977l-159 -159l-160 159l160 160zM-113 145q0 41 30.5 72t72.5 31h260q22 0 37 15t15 36v384l248 50v-438q-5 -125 -89 -208.5t-210 -86.5h-261q-43 0 -73 30t-30 73v42z" />
    <glyph glyph-name="uniFE98" unicode="&#x62a;" horiz-adv-x="651" arabic-form="medial" 
d="M300 977l-159 -159l-160 159l160 160zM620 977l-159 -159l-160 159l160 160zM174 248q22 0 37 15t15 36v349l248 50v-399q0 -21 15 -36t36 -15h126v-248h-126q-98 0 -175 56q-77 -56 -175 -56h-185q-43 0 -73 30t-30 73v42q0 41 30.5 72t72.5 31h184z" />
    <glyph glyph-name="uniFE9A" unicode="&#x62b;" horiz-adv-x="1656" arabic-form="final" 
d="M846 758l-159 -159l-160 159l160 160zM1166 758l-159 -159l-160 159l160 160zM1006 989l-159 -159l-160 159l160 160zM70 648l248 50v-399q0 -21 15 -36t36 -15h890q22 0 37 15t15 36v348l248 51v-399q0 -21 15 -36t36 -15h46v-248h-46q-98 0 -175 56q-77 -56 -175 -56
h-891q-125 0 -212 85.5t-87 209.5v353z" />
    <glyph glyph-name="uniFE9B" unicode="&#x62b;" horiz-adv-x="620" arabic-form="initial" 
d="M299 987l-159 -159l-160 159l160 160zM619 987l-159 -159l-160 159l160 160zM459 1218l-159 -159l-160 159l160 160zM-113 145q0 41 30.5 72t72.5 31h260q22 0 37 15t15 36v384l248 50v-438q-5 -125 -89 -208.5t-210 -86.5h-261q-43 0 -73 30t-30 73v42z" />
    <glyph glyph-name="uniFE9C" unicode="&#x62b;" horiz-adv-x="651" arabic-form="medial" 
d="M332 977l-159 -159l-160 159l160 160zM652 977l-159 -159l-160 159l160 160zM492 1208l-159 -159l-160 159l160 160zM174 248q22 0 37 15t15 36v349l248 50v-399q0 -21 15 -36t36 -15h126v-248h-126q-98 0 -175 56q-77 -56 -175 -56h-185q-43 0 -73 30t-30 73v42
q0 41 30.5 72t72.5 31h184z" />
    <glyph glyph-name="uniFE9E" unicode="&#x62c;" horiz-adv-x="1053" arabic-form="final" 
d="M849 -202l-159 -159l-160 159l160 160zM168 519l50 248h546q73 0 128 -36t86 -92q33 -59 33 -122q0 -140 -133 -219q2 -21 16.5 -35.5t35.5 -14.5h123v-248h-117q-99 0 -158 59q-51 50 -71 130q-272 -174 -347 -263q-37 -49 -42 -115q0 -105 51 -187t129 -128
q87 -49 183 -49h392l-50 -248h-341q-177 0 -314 85.5t-216 218.5q-82 139 -82 308q4 197 169 342q110 92 327 235l152 100q6 6 6 14q0 7 -5 12t-12 5h-539z" />
    <glyph glyph-name="uniFE9F" unicode="&#x62c;" horiz-adv-x="1098" arabic-form="initial" 
d="M568 -332l-159 -159l-160 159l160 160zM161 510l50 247h570q73 0 127.5 -35.5t86.5 -91.5q33 -60 33 -107q0 -149 -123 -228l-181 -116q-293 -188 -498 -188h-231q-43 0 -73 30t-30 73v42q0 43 30 73t73 30h205q83 0 200 50q115 50 212 112l118 75l2 2q7 6 7 15
q0 7 -5 12t-12 5h-561z" />
    <glyph glyph-name="uniFEA0" unicode="&#x62c;" horiz-adv-x="1136" arabic-form="medial" 
d="M628 -332l-159 -159l-160 159l160 160zM163 512l50 247h632q73 0 127.5 -35.5t86.5 -91.5q33 -59 33 -106q0 -155 -122 -229l-9 -6q2 -22 15.5 -35.5t36.5 -13.5h123v-249h-118q-99 0 -158 59q-51 50 -71 129q-290 -188 -499 -188h-295q-43 0 -73 30t-30 73v42
q0 50 34.5 76.5t89.5 26.5h248q163 0 412 162l118 75l2 2q7 6 7 15q0 7 -5 12t-12 5h-623z" />
    <glyph glyph-name="uniFEA2" unicode="&#x62d;" horiz-adv-x="1053" arabic-form="final" 
d="M168 519l50 248h546q73 0 128 -36t86 -92q33 -59 33 -122q0 -140 -133 -219q2 -21 16.5 -35.5t35.5 -14.5h123v-248h-117q-99 0 -158 59q-51 50 -71 130q-272 -174 -347 -263q-37 -49 -42 -115q0 -105 51 -187t129 -128q87 -49 183 -49h392l-50 -248h-341
q-177 0 -314 85.5t-216 218.5q-82 139 -82 308q4 197 169 342q110 92 327 235l152 100q6 6 6 14q0 7 -5 12t-12 5h-539z" />
    <glyph glyph-name="uniFEA3" unicode="&#x62d;" horiz-adv-x="1098" arabic-form="initial" 
d="M161 519l50 247h570q73 0 127.5 -35.5t86.5 -91.5q33 -60 33 -107q0 -149 -123 -228l-181 -116q-293 -188 -498 -188h-231q-43 0 -73 30t-30 73v42q0 43 30 73t73 30h205q83 0 200 50q115 50 212 112l118 75l2 2q7 6 7 15q0 7 -5 12t-12 5h-561z" />
    <glyph glyph-name="uniFEA4" unicode="&#x62d;" horiz-adv-x="1136" arabic-form="medial" 
d="M163 519l50 247h632q73 0 127.5 -35.5t86.5 -91.5q33 -59 33 -106q0 -155 -122 -229l-9 -6q2 -22 15.5 -35.5t36.5 -13.5h123v-249h-118q-99 0 -158 59q-51 50 -71 129q-290 -188 -499 -188h-295q-43 0 -73 30t-30 73v42q0 50 34.5 76.5t89.5 26.5h248q163 0 412 162
l118 75l2 2q7 6 7 15q0 7 -5 12t-12 5h-623z" />
    <glyph glyph-name="uniFEA6" unicode="&#x62e;" horiz-adv-x="1053" arabic-form="final" 
d="M768 1057l-159 -159l-160 159l160 160zM168 519l50 248h546q73 0 128 -36t86 -92q33 -59 33 -122q0 -140 -133 -219q2 -21 16.5 -35.5t35.5 -14.5h123v-248h-117q-99 0 -158 59q-51 50 -71 130q-272 -174 -347 -263q-37 -49 -42 -115q0 -105 51 -187t129 -128
q87 -49 183 -49h392l-50 -248h-341q-177 0 -314 85.5t-216 218.5q-82 139 -82 308q4 197 169 342q110 92 327 235l152 100q6 6 6 14q0 7 -5 12t-12 5h-539z" />
    <glyph glyph-name="uniFEA7" unicode="&#x62e;" horiz-adv-x="1098" arabic-form="initial" 
d="M708 1057l-159 -159l-160 159l160 160zM161 519l50 247h570q73 0 127.5 -35.5t86.5 -91.5q33 -60 33 -107q0 -149 -123 -228l-181 -116q-293 -188 -498 -188h-231q-43 0 -73 30t-30 73v42q0 43 30 73t73 30h205q83 0 200 50q115 50 212 112l118 75l2 2q7 6 7 15
q0 7 -5 12t-12 5h-561z" />
    <glyph glyph-name="uniFEA8" unicode="&#x62e;" horiz-adv-x="1136" arabic-form="medial" 
d="M728 1057l-159 -159l-160 159l160 160zM163 519l50 247h632q73 0 127.5 -35.5t86.5 -91.5q33 -59 33 -106q0 -155 -122 -229l-9 -6q2 -22 15.5 -35.5t36.5 -13.5h123v-249h-118q-99 0 -158 59q-51 50 -71 129q-290 -188 -499 -188h-295q-43 0 -73 30t-30 73v42
q0 50 34.5 76.5t89.5 26.5h248q163 0 412 162l118 75l2 2q7 6 7 15q0 7 -5 12t-12 5h-623z" />
    <glyph glyph-name="uniFEAA" unicode="&#x62f;" horiz-adv-x="1090" arabic-form="final" 
d="M20 0l53 248h562q9 0 16 7q3 3 5 8q1 3 1 7q0 9 -7 16l-414 413l151 201l620 -620q32 -32 75 -32h8v-248h-52q-98 0 -174 72l-24 24q-81 -96 -205 -96h-615z" />
    <glyph glyph-name="uniFEAC" unicode="&#x630;" horiz-adv-x="1120" arabic-form="final" 
d="M476 1160l-159 -159l-160 159l160 160zM20 0l53 248h562q9 0 16 7q3 3 5 8q1 3 1 7q0 9 -7 16l-414 413l151 201l620 -620q32 -32 75 -32h8v-248h-52q-98 0 -174 72l-24 24q-81 -96 -205 -96h-615z" />
    <glyph glyph-name="uniFEAE" unicode="&#x631;" horiz-adv-x="560" arabic-form="final" 
d="M-150 -457l51 248h104q80 0 138.5 58.5t58.5 138.5v662l248 51v-405q0 -20 15.5 -34t36.5 -14h58v-248h-59q-19 0 -51 5v-56q0 -122 -85 -222q-60 -82 -151.5 -133t-208.5 -51h-155z" />
    <glyph glyph-name="uniFEB0" unicode="&#x632;" horiz-adv-x="560" arabic-form="final" 
d="M454 958l-159 -159l-160 159l160 160zM-150 -457l51 248h104q80 0 138.5 58.5t58.5 138.5v662l248 51v-405q0 -20 15.5 -34t36.5 -14h58v-248h-59q-19 0 -51 5v-56q0 -122 -85 -222q-60 -82 -151.5 -133t-208.5 -51h-155z" />
    <glyph glyph-name="uniFEB2" unicode="&#x633;" horiz-adv-x="2273" arabic-form="final" 
d="M1725 298q0 -22 14.5 -36t37.5 -14h79q20 0 36 15.5t16 35.5v349l247 51v-403q0 -19 16 -33.5t36 -14.5h66v-248h-67q-100 2 -175 56q-77 -56 -175 -56h-79q-95 0 -176 57q-77 -57 -175 -57h-80q-19 0 -51 5v-56q0 -118 -86 -222q-58 -81 -150.5 -132.5t-209.5 -51.5
h-167q-177 0 -314 85.5t-216 218.5q-82 139 -82 308v341l248 50v-392q0 -105 50.5 -186t130.5 -128q82 -49 183 -49h167q80 0 139 58.5t59 138.5v660l248 51v-401q0 -21 14.5 -35.5t36.5 -14.5h80q22 0 36.5 14.5t14.5 35.5v350l248 51v-401z" />
    <glyph glyph-name="uniFEB3" unicode="&#x633;" horiz-adv-x="1329" arabic-form="initial" 
d="M828 298q0 -21 15 -35.5t37 -14.5h79q22 0 37 15t15 36v385l248 49v-438q0 -123 -87 -209t-212 -86h-80q-95 0 -175 56q-77 -56 -175 -56h-80q-93 0 -176 56q-77 -56 -175 -56h-106q-43 0 -73 30t-30 73v42q0 43 30 73t73 30h106q21 0 36 15t15 35v351l248 49v-400
q0 -21 15 -35.5t37 -14.5h79q23 0 37.5 14t14.5 36v351l247 49v-400z" />
    <glyph glyph-name="uniFEB4" unicode="&#x633;" horiz-adv-x="1378" arabic-form="medial" 
d="M959 248q21 0 36 15t15 35v349l248 51v-400q0 -21 15 -35.5t37 -14.5h68v-248h-69q-98 0 -175 56q-77 -56 -175 -56h-80q-92 0 -175 56q-77 -56 -175 -56h-80q-95 0 -175 56q-77 -56 -175 -56h-106q-43 0 -73 30t-30 73v42q0 43 30 73t73 30h105q22 0 37 14.5t15 35.5
v349l247 51v-400q0 -22 14.5 -36t37.5 -14h79q22 0 37 14.5t15 35.5v349l248 51v-400q0 -20 15 -35t36 -15h80z" />
    <glyph glyph-name="uniFEB6" unicode="&#x634;" horiz-adv-x="2273" arabic-form="final" 
d="M1611 958l-159 -159l-160 159l160 160zM1931 958l-159 -159l-160 159l160 160zM1771 1189l-159 -159l-160 159l160 160zM1725 298q0 -22 14.5 -36t37.5 -14h79q20 0 36 15.5t16 35.5v349l247 51v-403q0 -19 16 -33.5t36 -14.5h66v-248h-67q-100 2 -175 56
q-77 -56 -175 -56h-79q-95 0 -176 57q-77 -57 -175 -57h-80q-19 0 -51 5v-56q0 -118 -86 -222q-58 -81 -150.5 -132.5t-209.5 -51.5h-167q-177 0 -314 85.5t-216 218.5q-82 139 -82 308v341l248 50v-392q0 -105 50.5 -186t130.5 -128q82 -49 183 -49h167q80 0 139 58.5
t59 138.5v660l248 51v-401q0 -21 14.5 -35.5t36.5 -14.5h80q22 0 36.5 14.5t14.5 35.5v350l248 51v-401z" />
    <glyph glyph-name="uniFEB7" unicode="&#x634;" horiz-adv-x="1329" arabic-form="initial" 
d="M703 958l-159 -159l-160 159l160 160zM1023 958l-159 -159l-160 159l160 160zM863 1189l-159 -159l-160 159l160 160zM828 298q0 -21 15 -35.5t37 -14.5h79q22 0 37 15t15 36v385l248 49v-438q0 -123 -87 -209t-212 -86h-80q-95 0 -175 56q-77 -56 -175 -56h-80
q-93 0 -176 56q-77 -56 -175 -56h-106q-43 0 -73 30t-30 73v42q0 43 30 73t73 30h106q21 0 36 15t15 35v351l248 49v-400q0 -21 15 -35.5t37 -14.5h79q23 0 37.5 14t14.5 36v351l247 49v-400z" />
    <glyph glyph-name="uniFEB8" unicode="&#x634;" horiz-adv-x="1378" arabic-form="medial" 
d="M702 958l-159 -159l-160 159l160 160zM1022 958l-159 -159l-160 159l160 160zM862 1189l-159 -159l-160 159l160 160zM959 248q21 0 36 15t15 35v349l248 51v-400q0 -21 15 -35.5t37 -14.5h68v-248h-69q-98 0 -175 56q-77 -56 -175 -56h-80q-92 0 -175 56
q-77 -56 -175 -56h-80q-95 0 -175 56q-77 -56 -175 -56h-106q-43 0 -73 30t-30 73v42q0 43 30 73t73 30h105q22 0 37 14.5t15 35.5v349l247 51v-400q0 -22 14.5 -36t37.5 -14h79q22 0 37 14.5t15 35.5v349l248 51v-400q0 -20 15 -35t36 -15h80z" />
    <glyph glyph-name="uniFEBA" unicode="&#x635;" horiz-adv-x="2488" arabic-form="final" 
d="M2174 365q-1 46 -35 81q-36 36 -84 36l-348 -1q-22 0 -37 -15t-15 -36v-102l-247 -70v176q0 62 23 114t65 94q84 84 210 86h349q106 0 188 -51t128 -130q49 -82 49 -185q0 -62 -17 -114q8 -3 19 -3h66v-248h-66q-97 0 -174 56q-88 -56 -193 -56h-712q-27 0 -52 5v-54
q0 -60 -22 -114.5t-64 -107.5q-60 -80 -151 -132q-92 -51 -208 -51h-166q-174 0 -312 85q-137 86 -216 218q-82 139 -82 307v340l247 52v-393q0 -105 50 -185q51 -80 131 -128q82 -49 182 -49h166q82 0 140 58q58 57 58 139v657l247 51v-400q1 -20 16 -35t36 -15h712
q49 0 84 34q34 33 35 79v7z" />
    <glyph glyph-name="uniFEBB" unicode="&#x635;" horiz-adv-x="1597" arabic-form="initial" 
d="M1280 371q-2 45 -35 78q-35 36 -83 36l-349 -1q-22 0 -38 -15q-15 -15 -15 -36v-102l-247 -70v176q0 62 23.5 114t65.5 94q84 83 210 86h350q105 0 188 -50q82 -52 128 -131q49 -82 49 -185q0 -106 -51 -186q-53 -84 -134 -131.5t-180 -47.5h-713q-98 0 -175 56
q-77 -56 -175 -56h-105q-43 0 -73 30t-30 73v42q0 43 30 73t73 30h104q20 0 36 15t16 35v350l247 50v-400q0 -21 15 -35q16 -15 37 -15h713q49 0 83 34q34 33 35 79v10z" />
    <glyph glyph-name="uniFEBC" unicode="&#x635;" horiz-adv-x="1594" arabic-form="medial" 
d="M1280 370q-1 45 -35 79q-35 36 -83 36l-349 -1q-22 0 -38 -15q-15 -15 -15 -36v-102l-247 -70v176q0 62 23.5 114t65.5 94q84 83 210 86h350q105 0 188 -50q82 -52 128 -131q49 -82 49 -185q0 -62 -17 -115q7 -2 18 -2h66v-248h-66q-96 0 -173 56q-89 -56 -193 -56h-713
q-98 0 -175 56q-77 -56 -175 -56h-104q-43 0 -73 30t-30 73v42q0 43 30 73t73 30h103q20 0 36 15t16 35v350l247 50v-400q0 -21 15 -35q16 -15 37 -15h713q49 0 83 34q34 33 35 79v9z" />
    <glyph glyph-name="uniFEBE" unicode="&#x636;" horiz-adv-x="2488" arabic-form="final" 
d="M2052 1012l-159 -159l-160 159l160 160zM2174 365q-1 46 -35 81q-36 36 -84 36l-348 -1q-22 0 -37 -15t-15 -36v-102l-247 -70v176q0 62 23 114t65 94q84 84 210 86h349q106 0 188 -51t128 -130q49 -82 49 -185q0 -62 -17 -114q8 -3 19 -3h66v-248h-66q-97 0 -174 56
q-88 -56 -193 -56h-712q-27 0 -52 5v-54q0 -60 -22 -114.5t-64 -107.5q-60 -80 -151 -132q-92 -51 -208 -51h-166q-174 0 -312 85q-137 86 -216 218q-82 139 -82 307v340l247 52v-393q0 -105 50 -185q51 -80 131 -128q82 -49 182 -49h166q82 0 140 58q58 57 58 139v657
l247 51v-400q1 -20 16 -35t36 -15h712q49 0 84 34q34 33 35 79v7z" />
    <glyph glyph-name="uniFEBF" unicode="&#x636;" horiz-adv-x="1597" arabic-form="initial" 
d="M1137 1012l-159 -159l-160 159l160 160zM1280 371q-2 45 -35 78q-35 36 -83 36l-349 -1q-22 0 -38 -15q-15 -15 -15 -36v-102l-247 -70v176q0 62 23.5 114t65.5 94q84 83 210 86h350q105 0 188 -50q82 -52 128 -131q49 -82 49 -185q0 -106 -51 -186q-53 -84 -134 -131.5
t-180 -47.5h-713q-98 0 -175 56q-77 -56 -175 -56h-105q-43 0 -73 30t-30 73v42q0 43 30 73t73 30h104q20 0 36 15t16 35v350l247 50v-400q0 -21 15 -35q16 -15 37 -15h713q49 0 83 34q34 33 35 79v10z" />
    <glyph glyph-name="uniFEC0" unicode="&#x636;" horiz-adv-x="1594" arabic-form="medial" 
d="M1137 1012l-159 -159l-160 159l160 160zM1280 370q-1 45 -35 79q-35 36 -83 36l-349 -1q-22 0 -38 -15q-15 -15 -15 -36v-102l-247 -70v176q0 62 23.5 114t65.5 94q84 83 210 86h350q105 0 188 -50q82 -52 128 -131q49 -82 49 -185q0 -62 -17 -115q7 -2 18 -2h66v-248
h-66q-96 0 -173 56q-89 -56 -193 -56h-713q-98 0 -175 56q-77 -56 -175 -56h-104q-43 0 -73 30t-30 73v42q0 43 30 73t73 30h103q20 0 36 15t16 35v350l247 50v-400q0 -21 15 -35q16 -15 37 -15h713q49 0 83 34q34 33 35 79v9z" />
    <glyph glyph-name="uniFEC2" unicode="&#x637;" horiz-adv-x="1558" arabic-form="final" 
d="M654 733h469q106 0 188 -51t130 -131q49 -82 49 -163q0 -83 -19 -136q8 -4 21 -4h66v-248h-66q-97 0 -174 56q-89 -56 -195 -56h-1053l49 248h150q22 0 37 15t15 36v953l248 49v-1002q0 -21 15 -36t36 -15h503q49 0 84 34.5t35 83.5q0 48 -35.5 84t-83.5 36h-539z" />
    <glyph glyph-name="uniFEC3" unicode="&#x637;" horiz-adv-x="1341" arabic-form="initial" 
d="M-110 145q0 42 31 72.5t72 30.5h57q22 0 37 15t15 36v952l248 50v-1002q0 -21 15 -36t36 -15h503q49 0 84 35t35 83v2q0 48 -35 83t-84 35h-540l71 247h469q106 0 188 -51.5t129 -130.5q50 -83 50 -184q0 -106 -51 -187.5t-131 -130.5q-82 -49 -185 -49h-911
q-43 0 -73 30t-30 73v42z" />
    <glyph glyph-name="uniFEC4" unicode="&#x637;" horiz-adv-x="1340" arabic-form="medial" 
d="M-111 145q0 41 30.5 72t72.5 31h58q22 0 37 15t15 36v951l248 51v-1002q0 -21 15 -36t36 -15h503q49 0 84 34.5t35 83.5q0 48 -35.5 84t-83.5 36h-538l70 247h468q106 0 188 -51t130 -131q49 -82 49 -163q0 -80 -18 -136q8 -4 22 -4h65v-248h-66q-100 2 -175 56
q-89 -56 -195 -56h-912q-43 0 -73 30t-30 73v42z" />
    <glyph glyph-name="uniFEC6" unicode="&#x638;" horiz-adv-x="1558" arabic-form="final" 
d="M1103 1012l-159 -159l-160 159l160 160zM654 733h469q106 0 188 -51t130 -131q49 -82 49 -163q0 -83 -19 -136q8 -4 21 -4h66v-248h-66q-97 0 -174 56q-89 -56 -195 -56h-1053l49 248h150q22 0 37 15t15 36v953l248 49v-1002q0 -21 15 -36t36 -15h503q49 0 84 34.5
t35 83.5q0 48 -35.5 84t-83.5 36h-539z" />
    <glyph glyph-name="uniFEC7" unicode="&#x638;" horiz-adv-x="1341" arabic-form="initial" 
d="M918 1012l-159 -159l-160 159l160 160zM-110 145q0 42 31 72.5t72 30.5h57q22 0 37 15t15 36v952l248 50v-1002q0 -21 15 -36t36 -15h503q49 0 84 35t35 83v2q0 48 -35 83t-84 35h-540l71 247h469q106 0 188 -51.5t129 -130.5q50 -83 50 -184q0 -106 -51 -187.5
t-131 -130.5q-82 -49 -185 -49h-911q-43 0 -73 30t-30 73v42z" />
    <glyph glyph-name="uniFEC8" unicode="&#x638;" horiz-adv-x="1340" arabic-form="medial" 
d="M918 1012l-159 -159l-160 159l160 160zM-111 145q0 41 30.5 72t72.5 31h58q22 0 37 15t15 36v951l248 51v-1002q0 -21 15 -36t36 -15h503q49 0 84 34.5t35 83.5q0 48 -35.5 84t-83.5 36h-538l70 247h468q106 0 188 -51t130 -131q49 -82 49 -163q0 -80 -18 -136
q8 -4 22 -4h65v-248h-66q-100 2 -175 56q-89 -56 -195 -56h-912q-43 0 -73 30t-30 73v42z" />
    <glyph glyph-name="uniFECA" unicode="&#x639;" horiz-adv-x="1046" arabic-form="final" 
d="M472 484q-5 0 -6 -1t-1 -2v-2q1 -2 4 -4l265 -203q33 -24 56 -24h256v-248h-546q-80 0 -136 -59t-56 -142q0 -97 53 -178.5t127 -124.5q87 -49 183 -49h392l-50 -248h-341q-177 0 -314 85.5t-216 218.5q-82 139 -82 308q3 113 53 203t130 148q59 48 128 70l1 1l-183 140
q-17 10 -30.5 34.5t-13.5 48.5q0 19 11 52l66 158q15 37 39 52t66 15h396q124 0 208 -85.5t87 -212.5v-108l-247 -69v174q0 22 -16 37t-37 15h-246z" />
    <glyph glyph-name="uniFECB" unicode="&#x639;" horiz-adv-x="994" arabic-form="initial" 
d="M-10 0q-43 0 -73 30t-30 73v42q0 41 30.5 72t72.5 31h182q-20 58 -20 138q0 92 54.5 172.5t127.5 125.5q83 50 185 50h272l-48 -247h-224q-49 0 -84.5 -35.5t-35.5 -85.5q0 -49 35 -83.5t85 -34.5h405l-48 -248h-886z" />
    <glyph glyph-name="uniFECC" unicode="&#x639;" horiz-adv-x="1049" arabic-form="medial" 
d="M429 484q-4 0 -6 -1q-1 -1 -1 -2q0 -3 4 -6l265 -203q31 -24 50 -24h308v-248h-331q-57 0 -93 16t-80 51q-109 -67 -222 -67h-343q-43 0 -73 30t-30 73v42q0 41 30.5 72t72.5 31h329l-163 124q-44 30 -44 81q0 29 11 55l66 158q16 38 39.5 52.5t74.5 14.5h387
q124 0 208 -85.5t87 -212.5v-108l-247 -69v174q0 22 -16 37t-37 15h-246z" />
    <glyph glyph-name="uniFECE" unicode="&#x63a;" horiz-adv-x="1046" arabic-form="final" 
d="M764 1012l-159 -159l-160 159l160 160zM472 484q-5 0 -6 -1t-1 -2v-2q1 -2 4 -4l265 -203q33 -24 56 -24h256v-248h-546q-80 0 -136 -59t-56 -142q0 -97 53 -178.5t127 -124.5q87 -49 183 -49h392l-50 -248h-341q-177 0 -314 85.5t-216 218.5q-82 139 -82 308
q3 113 53 203t130 148q59 48 128 70l1 1l-183 140q-17 10 -30.5 34.5t-13.5 48.5q0 19 11 52l66 158q15 37 39 52t66 15h396q124 0 208 -85.5t87 -212.5v-108l-247 -69v174q0 22 -16 37t-37 15h-246z" />
    <glyph glyph-name="uniFECF" unicode="&#x63a;" horiz-adv-x="994" arabic-form="initial" 
d="M659 1012l-159 -159l-160 159l160 160zM-10 0q-43 0 -73 30t-30 73v42q0 41 30.5 72t72.5 31h182q-20 58 -20 138q0 92 54.5 172.5t127.5 125.5q83 50 185 50h272l-48 -247h-224q-49 0 -84.5 -35.5t-35.5 -85.5q0 -49 35 -83.5t85 -34.5h405l-48 -248h-886z" />
    <glyph glyph-name="uniFED0" unicode="&#x63a;" horiz-adv-x="1049" arabic-form="medial" 
d="M688 1012l-159 -159l-160 159l160 160zM429 484q-4 0 -6 -1q-1 -1 -1 -2q0 -3 4 -6l265 -203q31 -24 50 -24h308v-248h-331q-57 0 -93 16t-80 51q-109 -67 -222 -67h-343q-43 0 -73 30t-30 73v42q0 41 30.5 72t72.5 31h329l-163 124q-44 30 -44 81q0 29 11 55l66 158
q16 38 39.5 52.5t74.5 14.5h387q124 0 208 -85.5t87 -212.5v-108l-247 -69v174q0 22 -16 37t-37 15h-246z" />
    <glyph glyph-name="uniFED2" unicode="&#x641;" horiz-adv-x="1720" arabic-form="final" 
d="M1406 1241l-159 -159l-160 159l160 160zM1320 984q124 0 209.5 -86.5t85.5 -212.5v-390q0 -19 15.5 -33t36.5 -14h53v-248h-54q-98 0 -175 56q-77 -56 -175 -56h-947q-125 0 -209.5 85t-89.5 210v353l248 50v-399q0 -21 15 -36t36 -15h947q20 0 36 14t16 33v390
q0 22 -15 37t-37 15h-136q-35 0 -61 -26.5t-26 -61.5q0 -36 26 -61.5t61 -25.5h179l-71 -248h-108q-134 0 -234.5 99t-100.5 237q0 136 99.5 235t235.5 99h140z" />
    <glyph glyph-name="uniFED3" unicode="&#x641;" horiz-adv-x="969" arabic-form="initial" 
d="M646 1241l-159 -159l-160 159l160 160zM573 1004q125 0 210.5 -86.5t85.5 -212.5v-410q0 -124 -86.5 -209.5t-212.5 -85.5h-580q-43 0 -73 30t-30 73v42q0 41 30.5 72t72.5 31h579q22 0 37 15t15 36v406q0 21 -15 36.5t-36 15.5h-134q-36 0 -62 -26q-25 -25 -26 -58v-5
q0 -35 26 -60q26 -26 61 -26h176l-70 -248h-106q-133 0 -233.5 98.5t-100.5 237.5q0 136 99.5 235t235.5 99h137z" />
    <glyph glyph-name="uniFED4" unicode="&#x641;" horiz-adv-x="1011" arabic-form="medial" 
d="M646 1241l-159 -159l-160 159l160 160zM573 984q124 0 209.5 -85.5t86.5 -213.5v-387q0 -21 15 -35.5t36 -14.5h91v-248h-91q-98 0 -175 56q-75 -54 -175 -56h-580q-43 0 -73 30t-30 73v42q0 41 30.5 72t72.5 31h579q22 0 37 15t15 36v386q0 21 -15 36.5t-36 15.5h-134
q-36 0 -62 -26q-25 -25 -26 -59v-4q0 -35 26 -60q26 -26 61 -26h176l-70 -248h-106q-135 0 -234.5 98.5t-99.5 237.5q0 136 99.5 235t235.5 99h137z" />
    <glyph glyph-name="uniFED6" unicode="&#x642;" horiz-adv-x="1412" arabic-form="final" 
d="M951 1015l-159 -159l-160 159l160 160zM1271 1015l-159 -159l-160 159l160 160zM527 398q0 137 99.5 236.5t235.5 99.5h137q125 0 210.5 -86.5t85.5 -212.5v-137q0 -21 14.5 -35.5t36.5 -14.5h66v-248h-66q-19 0 -51 5v-56q0 -118 -86 -222q-58 -81 -150.5 -132.5
t-209.5 -51.5h-167q-177 0 -314 85.5t-216 218.5q-82 139 -82 308v341l248 53v-395q0 -105 50.5 -186t130.5 -128q82 -49 183 -49h167q83 0 140.5 57.5t57.5 138.5v447q0 22 -15 37t-36 15h-134q-36 0 -62 -26q-24 -24 -26 -58v-7q1 -34 26 -58q26 -26 61 -26h175l-68 -247
h-107q-135 0 -234.5 98t-99.5 236z" />
    <glyph glyph-name="uniFED7" unicode="&#x642;" horiz-adv-x="969" arabic-form="initial" 
d="M573 1004q125 0 210.5 -86.5t85.5 -212.5v-410q0 -124 -86.5 -209.5t-212.5 -85.5h-580q-43 0 -73 30t-30 73v42q0 41 30.5 72t72.5 31h579q22 0 37 15t15 36v406q0 21 -15 36.5t-36 15.5h-134q-36 0 -62 -26q-25 -25 -26 -58v-5q0 -35 26 -60q26 -26 61 -26h176
l-70 -248h-106q-133 0 -233.5 98.5t-100.5 237.5q0 136 99.5 235t235.5 99h137zM508 1240l-159 -159l-160 159l160 160zM828 1240l-159 -159l-160 159l160 160z" />
    <glyph glyph-name="uniFED8" unicode="&#x642;" horiz-adv-x="1011" arabic-form="medial" 
d="M508 1240l-159 -159l-160 159l160 160zM828 1240l-159 -159l-160 159l160 160zM573 984q124 0 209.5 -85.5t86.5 -213.5v-387q0 -21 15 -35.5t36 -14.5h91v-248h-91q-98 0 -175 56q-75 -54 -175 -56h-580q-43 0 -73 30t-30 73v42q0 41 30.5 72t72.5 31h579q22 0 37 15
t15 36v386q0 21 -15 36.5t-36 15.5h-134q-36 0 -62 -26q-25 -25 -26 -59v-4q0 -35 26 -60q26 -26 61 -26h176l-70 -248h-106q-135 0 -234.5 98.5t-99.5 237.5q0 136 99.5 235t235.5 99h137z" />
    <glyph glyph-name="uniFEDA" unicode="&#x643;" horiz-adv-x="1582" arabic-form="final" 
d="M369 0q-126 0 -212.5 85.5t-86.5 209.5v353l248 49v-398q0 -21 15 -36t36 -15h779q22 0 36.5 15.5t14.5 38.5v950l248 50v-1003q0 -21 15 -36t37 -15h83v-248h-84q-98 0 -175 56q-77 -56 -175 -56h-779zM720 814q0 -22 13.5 -36t34.5 -14q6 0 10 1l115 37l51 -85
l-372 -117l1 98l80 28q-28 38 -28 79q0 53 22.5 89.5t68.5 50.5l144 44l-6 -101l-102 -31q-14 -4 -23 -15.5t-9 -27.5z" />
    <glyph glyph-name="uniFEDB" unicode="&#x643;" horiz-adv-x="875" arabic-form="initial" 
d="M-10 0q-43 0 -73 30t-30 73v42q0 41 31 72t72 31h513q23 0 23 22q0 9 -7 16l-373 373q-45 45 -45 136q0 142 122 212l509 294l93 -235l-468 -268l338 -338q78 -78 78 -189q0 -110 -80 -190.5t-189 -80.5h-514z" />
    <glyph glyph-name="uniFEDC" unicode="&#x643;" horiz-adv-x="970" arabic-form="medial" 
d="M-10 0q-43 0 -73 30t-30 73v42q0 41 30.5 72t72.5 31h513q23 0 23 22q0 9 -7 16l-373 373q-45 45 -45 136q0 138 122 212l509 293l92 -233l-467 -269l518 -519q31 -31 83 -31h12v-248h-64q-96 0 -173 71l-24 24q-81 -95 -205 -95h-514z" />
    <glyph glyph-name="uniFEDE" unicode="&#x644;" horiz-adv-x="1411" arabic-form="final" 
d="M318 154q0 -152 106 -257.5t258 -105.5h167q81 0 138 56.5t60 137.5v1264l248 51v-1003q0 -20 14.5 -34.5t36.5 -14.5h66v-248h-66q-19 0 -51 5v-56q0 -118 -86 -222q-58 -81 -150.5 -132.5t-209.5 -51.5h-167q-177 0 -314 85.5t-216 218.5q-82 139 -82 308v341l248 51
v-393z" />
    <glyph glyph-name="uniFEDF" unicode="&#x644;" horiz-adv-x="440" arabic-form="initial" 
d="M-108 145q0 43 30 73t73 30h76q22 0 37 16t15 38v948l247 51v-1006q0 -124 -86.5 -209.5t-212.5 -85.5h-76q-43 0 -73 30t-30 73v42z" />
    <glyph glyph-name="uniFEE0" unicode="&#x644;" horiz-adv-x="501" arabic-form="medial" 
d="M-110 145q0 43 30 73t73 30h74q22 0 36.5 15.5t14.5 38.5v947l248 51v-1001q0 -21 15 -36t37 -15h83v-248h-84q-98 0 -175 56q-77 -56 -175 -56h-74q-43 0 -73 30t-30 73v42z" />
    <glyph glyph-name="uniFEE2" unicode="&#x645;" horiz-adv-x="1284" arabic-form="final" 
d="M886 733q123 0 209 -87t86 -212v-140q0 -19 15.5 -32.5t36.5 -13.5h51v-248h-52q-54 0 -96 16q-47 -83 -130 -137t-192 -54q-106 0 -187.5 51.5t-128.5 131.5q-50 86 -50 184v204l247 73v-277q0 -49 35 -84q34 -34 81 -35h5q48 1 82 35q35 35 35 84v241q0 21 -15 37
t-36 16h-513q-21 0 -36 -15t-15 -37v-842l-248 -49v895q5 125 90 210t209 85h517z" />
    <glyph glyph-name="uniFEE3" unicode="&#x645;" horiz-adv-x="1125" arabic-form="initial" 
d="M688 248q49 0 84 34.5t35 83.5q0 50 -35 85t-84 35h-141q-83 -5 -109 -71l-70 -178q-40 -100 -131.5 -168.5t-212.5 -68.5h-34q-43 0 -73 30t-30 73v42q0 41 30.5 72t72.5 31h34q78 0 111 76l67 166q41 101 134 172t211 71h141q106 0 188 -51t130 -131q49 -82 49 -185
q0 -106 -51.5 -187.5t-131.5 -128.5q-86 -50 -184 -50h-229l-71 248h300z" />
    <glyph glyph-name="uniFEE4" unicode="&#x645;" horiz-adv-x="1152" arabic-form="medial" 
d="M688 248q49 0 84 34.5t35 83.5q0 50 -35 85t-84 35h-141q-83 -5 -109 -71l-70 -178q-40 -100 -131.5 -168.5t-212.5 -68.5h-34q-43 0 -73 30t-30 73v42q0 41 30.5 72t72.5 31h34q78 0 111 76l67 166q41 101 134 172t211 71h141q106 0 188 -51t130 -131q49 -82 49 -185
q0 -36 -6 -67q0 -21 15.5 -36t36.5 -15h51v-248h-51q-109 0 -196 72q-11 -8 -33 -22q-86 -50 -184 -50h-229l-71 248h300z" />
    <glyph glyph-name="uniFEE6" unicode="&#x646;" horiz-adv-x="1412" arabic-form="final" 
d="M1295 -51q0 -119 -86 -222q-59 -82 -151.5 -133t-208.5 -51h-167q-175 0 -313 85.5t-217 218.5q-82 139 -82 308v341l248 48v-390q0 -105 50.5 -185.5t130.5 -128.5q82 -49 183 -49h167q82 0 140 57.5t58 139.5v662l248 50v-405q0 -19 15.5 -33t35.5 -14h66v-248h-66
q-21 0 -51 5v-56zM880 457l-159 -159l-160 159l160 160z" />
    <glyph glyph-name="uniFEE7" unicode="&#x646;" horiz-adv-x="620" arabic-form="initial" 
d="M551 977l-159 -159l-160 159l160 160zM-113 145q0 41 30.5 72t72.5 31h260q22 0 37 15t15 36v384l248 50v-438q-5 -125 -89 -208.5t-210 -86.5h-261q-43 0 -73 30t-30 73v42z" />
    <glyph glyph-name="uniFEE8" unicode="&#x646;" horiz-adv-x="651" arabic-form="medial" 
d="M474 977l-159 -159l-160 159l160 160zM174 248q22 0 37 15t15 36v349l248 50v-399q0 -21 15 -36t36 -15h126v-248h-126q-98 0 -175 56q-77 -56 -175 -56h-185q-43 0 -73 30t-30 73v42q0 41 30.5 72t72.5 31h184z" />
    <glyph glyph-name="uniFEEA" unicode="&#x647;" horiz-adv-x="1073" arabic-form="final" 
d="M318 366q0 -49 35 -83.5t84 -34.5h219l-73 -248h-146q-106 0 -187.5 51t-130.5 131q-49 82 -49 184q0 106 51 188t131 130q82 49 185 49h57q122 0 211.5 -67t133.5 -176l66 -166q30 -76 112 -76h56v-248h-56q-121 0 -212 68t-132 169l-70 178q-34 71 -109 71h-57
q-49 0 -84 -35t-35 -85z" />
    <glyph glyph-name="uniFEEB" unicode="&#x647;" horiz-adv-x="1378" arabic-form="initial" 
d="M941 248q47 0 83 34.5t36 80.5q0 53 -27 80l-394 432l153 206l396 -443q120 -120 120 -271q0 -153 -102 -260t-249 -107h-72q-98 0 -175 56q-77 -56 -175 -56h-545q-43 0 -73 30t-30 73v42q0 41 30.5 72t72.5 31h544q22 0 37 13.5t15 33.5v186q0 49 -35 84q-34 34 -80 35
h-5q-48 0 -83 -35t-35 -84v-219l-247 71l-1 150q0 106 51 187t132 128q83 50 184 50q106 0 188.5 -51t128.5 -131q50 -86 50 -185v-186q0 -19 15.5 -33t35.5 -14h56z" />
    <glyph glyph-name="uniFEEC" unicode="&#x647;" horiz-adv-x="1408" arabic-form="medial" 
d="M1159 65q-87 -65 -202 -65h-72q-98 0 -175 56q-77 -56 -175 -56h-545q-43 0 -73 30t-30 73v42q0 41 30.5 72t72.5 31h544q22 0 37 13.5t15 33.5v186q0 49 -35 84q-34 34 -80 35h-5q-48 0 -83 -35t-35 -84v-219l-247 71l-1 150q0 106 51 187t132 128q83 50 184 50
q106 0 188.5 -51t128.5 -131q50 -86 50 -185v-186q0 -19 15.5 -33t35.5 -14h56q47 0 83 34.5t36 80.5q0 53 -27 80l-394 432l153 206l396 -443q120 -120 120 -271q0 -46 -9 -88q3 -9 11 -16q15 -15 37 -15h61v-248h-62q-98 0 -175 56z" />
    <glyph glyph-name="uniFEEE" unicode="&#x648;" horiz-adv-x="958" arabic-form="final" 
d="M50 -457l50 248h295q81 0 139.5 58t58.5 139v447q0 20 -16 35.5t-36 15.5h-123q-49 0 -84 -35t-35 -84v-2q1 -48 35 -82q35 -35 84 -35h162l-47 -248h-130q-98 0 -178 52.5t-126 131.5q-48 82 -48 184q0 105 51.5 187.5t130.5 128.5q86 50 185 50h124q125 -5 210 -88.5
t89 -207.5v-141q0 -20 15 -34.5t36 -14.5h66v-248h-66q-19 0 -51 5v-56q0 -118 -86 -222q-58 -81 -150.5 -132.5t-209.5 -51.5h-345z" />
    <glyph glyph-name="uniFEF2" unicode="&#x64a;" horiz-adv-x="1421" arabic-form="final" 
d="M318 154q0 -153 105.5 -258t258.5 -105h167q81 0 139.5 58t58.5 139v12h-354l53 248h675v-248h-126v-51q0 -151 -117 -268q-64 -64 -150 -101t-179 -37h-167q-177 1 -313 86t-216 218q-83 140 -83 308v341l248 48v-390z" />
    <glyph glyph-name="uniFEF3" unicode="&#x64a;" horiz-adv-x="620" arabic-form="initial" 
d="M219 -328l-159 -159l-160 159l160 160zM539 -328l-159 -159l-160 159l160 160zM-113 145q0 41 30.5 72t72.5 31h260q22 0 37 15t15 36v384l248 50v-438q-5 -125 -89 -208.5t-210 -86.5h-261q-43 0 -73 30t-30 73v42z" />
    <glyph glyph-name="uniFEF4" unicode="&#x64a;" horiz-adv-x="651" arabic-form="medial" 
d="M229 -328l-159 -159l-160 159l160 160zM549 -328l-159 -159l-160 159l160 160zM174 248q22 0 37 15t15 36v349l248 50v-399q0 -21 15 -36t36 -15h126v-248h-126q-98 0 -175 56q-77 -56 -175 -56h-185q-43 0 -73 30t-30 73v42q0 41 30.5 72t72.5 31h184z" />
    <glyph glyph-name=".notdef" horiz-adv-x="664" 
d="M50 -10v1385h564v-1385h-564zM138 78h388v1209h-388v-1209z" />
    <glyph glyph-name="uni0000" 
 />
    <glyph glyph-name="uni0000" 
 />
    <glyph glyph-name="nonmarkingreturn" horiz-adv-x="682" 
 />
    <glyph glyph-name="space" unicode=" " horiz-adv-x="400" 
 />
    <glyph glyph-name="exclam" unicode="!" horiz-adv-x="392" 
d="M305 1200v-789l-215 -49v792zM105 37q-35 37 -35 89q0 56 35 92.5t89 36.5q56 0 92 -37t36 -92q0 -52 -37 -89t-91 -37t-89 37z" />
    <glyph glyph-name="quotedbl" unicode="&#x22;" horiz-adv-x="487" 
d="M164 915h-73l-35 248l-6 155h155l-6 -155zM397 915h-75l-35 248l-4 155h154l-6 -155z" />
    <glyph glyph-name="numbersign" unicode="#" horiz-adv-x="855" 
d="M150 0l38 317h-128v115h141l28 225h-136v118h152l33 280h102l-35 -280h214l36 280h101l-33 -280h132v-118h-147l-28 -225h142v-115h-155l-39 -317h-104l39 317h-212l-38 -317h-103zM305 447h210l29 225h-213z" />
    <glyph glyph-name="dollar" unicode="$" horiz-adv-x="918" 
d="M400 948v152h116v-152h352l-64 -248h-436q-18 0 -33 -15t-15 -35q0 -19 14.5 -33t32.5 -14h181q84 0 155.5 -40t115 -108t43.5 -154q0 -85 -43.5 -153.5t-115 -108t-155.5 -39.5h-32v-151h-116v151h-350l65 247h433q18 0 32.5 17.5t14.5 36.5t-13.5 35.5t-32.5 16.5h-180
q-85 1 -156.5 38.5t-115.5 103.5t-44 152q0 85 43.5 153.5t115 108t155.5 39.5h33z" />
    <glyph glyph-name="percent" unicode="%" horiz-adv-x="981" 
d="M79 1150q0 62 44.5 106t105.5 44t105.5 -44t44.5 -106t-44.5 -106t-105.5 -44t-105.5 44t-44.5 106zM611 250q0 62 44.5 106t105.5 44t105.5 -44t44.5 -106t-44.5 -106t-105.5 -44t-105.5 44t-44.5 106zM858 1400l-629 -1400h-159l629 1400h159z" />
    <glyph glyph-name="ampersand" unicode="&#x26;" horiz-adv-x="1026" 
d="M388 877q-30 5 -57 -14q-25 -19 -30 -49t13 -57q8 -11 21.5 -23t26.5 -22l9 -8l-6 -5q6 5 15 11q14 9 30 21t25 22q16 20 17 45.5t-16.5 49.5t-47.5 29zM926 -32l-226 208l-96 -93q-76 -81 -190 -97q-15 -2 -55 -2q-121 5 -207 84q-85 79 -101 199l-1 57q12 171 163 263
l23 17q-31 26 -54 57q-38 55 -45 115q-1 9 -2 24q0 17 4 40q15 94 96 156q65 45 137 46q20 0 42 -3q95 -15 157 -96q26 -39 38 -81q17 -62 -2 -128q-16 -52 -54 -95q-27 -27 -59 -49l203 -187l61 60l165 -70l-105 -102l158 -144zM358 492q-8 -6 -41 -27.5t-70 -61.5
q-27 -30 -33 -74l1 -49q14 -78 83 -114q7 -4 14 -7q16 -7 33 -10q10 -1 19 -2q10 0 20 1q21 2 43 10q14 5 28 13q15 10 44 38t56 56l23 23z" />
    <glyph glyph-name="quotesingle" unicode="'" horiz-adv-x="255" 
d="M164 915h-73l-35 248l-6 155h155l-6 -155z" />
    <glyph glyph-name="parenleft" unicode="(" horiz-adv-x="565" 
d="M296 610q0 -346 80.5 -609t238.5 -500l-227 25l-61 79q-141 196 -199 429q-58 230 -58 571v11q0 342 58 572q58 232 199 428l60 90l228 14l-14 -19q-305 -458 -305 -1091z" />
    <glyph glyph-name="parenright" unicode=")" horiz-adv-x="565" 
d="M269 610q0 633 -305 1091l-14 19l228 -14l60 -90q141 -196 199 -428q57 -229 58 -570v-14q-1 -340 -58 -570q-58 -233 -199 -429l-61 -79l-227 -25q158 237 238.5 500t80.5 609z" />
    <glyph glyph-name="asterisk" unicode="*" horiz-adv-x="933" 
d="M592 430l170 -170l-73 -74l-170 170v-240h-104v241l-171 -171l-73 74l170 170h-241v104h241l-170 170l73 74l171 -171v242h104v-241l170 170l73 -74l-170 -170h241v-104h-241z" />
    <glyph glyph-name="plus" unicode="+" horiz-adv-x="915" 
d="M395 505h-325v146h325v322h125v-322h325v-146h-325v-327h-125v327z" />
    <glyph glyph-name="comma" unicode="," horiz-adv-x="350" 
d="M86 97q-36 36 -36 86t36 85t85 35q64 0 96.5 -39.5t32.5 -106.5q0 -71 -28.5 -140.5t-106.5 -156.5l-72 75q62 69 83 126h-5q-49 0 -85 36z" />
    <glyph glyph-name="hyphen" unicode="-" horiz-adv-x="958" 
d="M858 447h-758v101h758v-101z" />
    <glyph glyph-name="period" unicode="." horiz-adv-x="480" 
d="M100 139q0 57 41 98t98 41q58 0 99.5 -40.5t41.5 -98.5q0 -57 -41.5 -98t-98.5 -41t-98.5 41t-41.5 98z" />
    <glyph glyph-name="slash" unicode="/" horiz-adv-x="694" 
d="M199 -90l-149 15l443 1478l151 -19z" />
    <glyph glyph-name="zero" unicode="0" horiz-adv-x="863" 
d="M542.5 490q7.5 23 7.5 36q0 46 -34.5 81t-80.5 35q-47 0 -81.5 -35t-34.5 -81t35 -80.5t81 -34.5t81 35q19 21 26.5 44zM641 278q-92 -78 -210 -78q-134 0 -232.5 99t-98.5 233q0 135 98 233t233 98q134 0 233 -98.5t99 -232.5q0 -103 -59 -186q-14 -19 -32.5 -38.5
t-30.5 -29.5z" />
    <glyph glyph-name="one" unicode="1" horiz-adv-x="548" 
d="M347 50l-248 -50v964q0 70 -16 154l-15 63l-19 69l241 50l17 -64l18 -73q15 -54 23 -169z" />
    <glyph glyph-name="two" unicode="2" horiz-adv-x="905" 
d="M349 935q5 -32 30 -56q30 -31 70 -31h7q42 0 71.5 30t29.5 72v300l248 50v-351q-5 -145 -103.5 -244.5t-242.5 -103.5h-12q-53 0 -99 15v-566l-248 -50v964q0 70 -16 154l-15 63l-19 69l241 50l17 -64l18 -73q15 -54 23 -169v-59z" />
    <glyph glyph-name="three" unicode="3" horiz-adv-x="1362" 
d="M349 935q5 -32 30 -56q30 -31 70 -31h7q42 0 71.5 30t29.5 72v300l248 49v-349q0 -42 29.5 -72t71.5 -30h7q40 0 70.5 30.5t30.5 71.5v299l248 50v-350q-5 -145 -103.5 -244.5t-242.5 -103.5h-12q-132 3 -223 82q-91 -79 -222 -82h-12q-53 0 -99 15v-566l-248 -51v965
q0 70 -16 154l-15 63l-19 69l241 50l17 -64l18 -73q15 -54 23 -169v-59z" />
    <glyph glyph-name="four" unicode="4" horiz-adv-x="1174" 
d="M349 843h67q-15 48 -15 77v35q4 144 103.5 242t244.5 103h290l-52 -247h-237q-42 0 -72 -30t-30 -72v-6q0 -42 30 -72t72 -30h374l-50 -247h-726v-546l-248 -50v964q0 70 -16 154l-15 63l-19 69l241 50l17 -64l18 -73q15 -54 23 -169v-151z" />
    <glyph glyph-name="five" unicode="5" horiz-adv-x="1416" 
d="M455 949l226 -118l-317 -404q-16 -28 -16 -60q0 -48 34 -83q33 -35 78 -36h8q46 1 80 32q35 31 37 94v161l247 51v-221q3 -60 38 -88.5t81 -28.5h2q46 0 81 36t35 83q0 39 -24 71v1l-578 659l143 207q294 -335 408 -461q216 -243 219 -249q79 -97 79 -215
q0 -222 -182 -330q-83 -50 -184 -50q-139 0 -242 91q-103 -91 -223 -91q-170 0 -277.5 106.5t-107.5 277.5q0 120 90 223z" />
    <glyph glyph-name="six" unicode="6" horiz-adv-x="1176" 
d="M397 713q49 -48 112 -48q62 1 112 48l209 212l246 -103l-810 -820l-139 211l230 233q-73 30 -135 90q-121 125 -122 283v7q2 167 135 302l173 172l231 -118l-245 -245q-45 -49 -46 -108v-5q0 -63 49 -111z" />
    <glyph glyph-name="seven" unicode="7" horiz-adv-x="1148" 
d="M568 0q-111 0 -193 71.5t-104 172.5q0 6 -1 7l-170 981l238 68l173 -992q12 -60 57 -60q47 0 56 56q0 3 1 4l162 925l261 67l-182 -1052q-19 -102 -102.5 -175t-195.5 -73z" />
    <glyph glyph-name="eight" unicode="8" horiz-adv-x="1148" 
d="M580 1300q111 0 193 -71.5t104 -172.5q0 -6 1 -7l170 -981l-238 -68l-173 992q-12 60 -57 60q-47 0 -56 -56q0 -3 -1 -4l-162 -925l-261 -67l182 1052q19 102 102.5 175t195.5 73z" />
    <glyph glyph-name="nine" unicode="9" horiz-adv-x="1018" 
d="M438 572q-99 0 -176.5 52.5t-117.5 129.5q-44 86 -44 184q0 107 51 188.5t131 129.5q83 50 185 50h163q122 -4 203.5 -89t84.5 -210v-957l-248 -50v1006q0 22 -15 37t-36 15h-152q-49 0 -84 -35q-34 -34 -35 -82v-2q0 -49 35 -84t84 -35h183l-73 -248h-139z" />
    <glyph glyph-name="colon" unicode=":" horiz-adv-x="431" 
d="M111 48q-41 42 -41 103q0 64 41 106.5t103 42.5q64 0 105.5 -42.5t41.5 -106.5q0 -61 -42.5 -103t-104.5 -42t-103 42zM111 518q-41 42 -41 103q0 64 41 106.5t103 42.5q64 0 105.5 -42.5t41.5 -106.5q0 -61 -42.5 -103t-104.5 -42t-103 42z" />
    <glyph glyph-name="semicolon" unicode=";" horiz-adv-x="415" 
d="M101.5 282q-41.5 42 -41.5 101q0 58 41.5 99t99.5 41q75 0 112.5 -46.5t37.5 -123.5q0 -84 -33 -165t-124 -182l-84 87q73 80 97 147h-6q-58 0 -99.5 42zM314.5 960.5q40.5 -42.5 40.5 -102.5q0 -64 -40.5 -106.5t-103.5 -42.5q-64 0 -105.5 42.5t-41.5 106.5
q0 60 42.5 102.5t104.5 42.5q63 0 103.5 -42.5z" />
    <glyph glyph-name="less" unicode="&#x3c;" horiz-adv-x="888" 
d="M838 268v-168l-788 306v151l788 303v-168l-316 -105l-255 -89v-33l255 -90z" />
    <glyph glyph-name="equal" unicode="=" horiz-adv-x="1000" 
d="M900 500h-800v121h800v-121zM900 201h-800v121h800v-121z" />
    <glyph glyph-name="greater" unicode="&#x3e;" horiz-adv-x="888" 
d="M50 268l315 107l256 90v33l-256 89l-315 105v168l788 -303v-151l-788 -306v168z" />
    <glyph glyph-name="question" unicode="?" horiz-adv-x="757" 
d="M269 936v-230l-219 52v191q11 128 103.5 218t224.5 90q131 0 224.5 -89.5t104.5 -217.5v-131q-14 -146 -130 -237l-369 -293l-7 276l248 196q30 24 37 64l2 108q-3 44 -34 74.5t-76 30.5q-43 0 -73.5 -30t-35.5 -72zM240 40q-41 43 -41 104q0 64 41 106.5t104 42.5
q64 0 106 -42.5t42 -106.5q0 -61 -43 -104t-105 -43q-63 0 -104 43z" />
    <glyph glyph-name="at" unicode="@" horiz-adv-x="1530" 
d="M1124 375q196 40 209 284q0 104 -28.5 195t-89.5 157q-135 148 -384 148q-118 0 -232 -49t-199 -139q-91 -90 -142.5 -217t-51.5 -277q0 -130 42 -232t119 -173q72 -66 168.5 -100t205.5 -34q72 0 146.5 20t130.5 50l50 -126q-152 -82 -345 -82q-136 0 -258 41.5
t-211 124.5q-98 88 -151 214t-53 289q0 183 62.5 336.5t176.5 266.5q109 109 254 168t309 59q142 0 258.5 -45t200.5 -129q83 -87 126 -203.5t43 -255.5q0 -116 -35 -209t-97 -156q-57 -60 -118 -89.5t-125 -32.5q-98 0 -165 68q-33 33 -51.5 74t-18.5 91l1 276q0 17 -12 29
q-12 11 -30 11h-100q-74 0 -125 -51.5t-51 -124.5q0 -74 52 -126t125 -52h122l-62 -195h-60q-102 0 -186.5 50.5t-135 135t-50.5 187.5q0 102 50.5 186.5t135 135t186.5 50.5h100q99 0 166 -68q33 -33 51 -74t18 -90l1 -278q0 -16 12 -28q2 -3 8 -6.5t11.5 -4.5t9.5 -1z" />
    <glyph glyph-name="A" unicode="A" horiz-adv-x="1115" 
d="M738 523l-82 453q-11 46 -54.5 62t-87.5 0.5t-55 -62.5l-177 -976h-252l179 985q5 22 20 77q34 103 120 169q90 69 208 69t208.5 -69.5t123.5 -179.5l18 -66l178 -985h-252l-50 273h-305l-82 250h342z" />
    <glyph glyph-name="B" unicode="B" horiz-adv-x="1132" 
d="M657 1300q107 -3 193.5 -55t138 -139.5t51.5 -194.5q0 -127 -80 -230q61 -50 96.5 -112.5t35.5 -179.5q0 -78 -44 -163.5t-119 -148t-171 -77.5h-356l-82 249h383q58 0 99 41t41 99t-41 99t-99 41h-301l-82 249h331q58 0 99 41t41 92q0 58 -41 99t-99 41h-313
q-13 -3 -24 -14q-15 -15 -15 -37v-1000h-249v1004q0 125 87 211q87 85 213 85h307z" />
    <glyph glyph-name="C" unicode="C" horiz-adv-x="1070" 
d="M690 1300h350l-57 -249h-293q-112 -2 -202.5 -56t-144.5 -145.5t-54 -202.5q0 -105 54 -196.5t144.5 -145.5t202.5 -56h350l-57 -249h-293q-182 3 -328.5 90t-234 235t-87.5 322q0 180 87.5 328t234 235t328.5 90z" />
    <glyph glyph-name="D" unicode="D" horiz-adv-x="1258" 
d="M338 1052q-13 -3 -24 -14q-15 -15 -15 -36v-1002h-249v1005q0 124 87 210q67 66 159 81q27 4 54 4h224q180 -5 325.5 -92t232 -233.5t86.5 -324.5q0 -179 -88 -327t-236.5 -235.5t-328.5 -87.5h-163l-82 248h269q107 7 192.5 61.5t136.5 143.5t51 197t-53 198.5t-142 145
t-200 58.5h-236z" />
    <glyph glyph-name="E" unicode="E" horiz-adv-x="949" 
d="M720 525l-421 -3v-222q0 -22 15 -37q11 -11 24 -14h561l-50 -249h-499q-126 0 -213 86t-87 210v709q1 123 87 209q67 66 158 81l4 1q25 3 51 3h549l-50 -249h-511q-13 -3 -24 -14q-15 -15 -15 -37v-228h470z" />
    <glyph glyph-name="F" unicode="F" horiz-adv-x="899" 
d="M849 1050h-511q-13 -3 -24 -14q-15 -15 -15 -37v-228h470l-49 -249h-421v-522h-249v1008q2 121 87 206q87 85 213 85h549z" />
    <glyph glyph-name="G" unicode="G" horiz-adv-x="1295" 
d="M693 248h173q48 0 88.5 40t41.5 89q1 5 1 69q-1 32 -1 79h-332l54 248h527v-386q0 -107 -52.5 -195t-140.5 -140t-196 -52h-163q-182 2 -329.5 88.5t-235.5 234.5t-88 327t88 327t235.5 234.5t329.5 88.5h552l-68 -248h-484q-111 0 -203 -54t-146.5 -145.5t-54.5 -202.5
t54.5 -202.5t145.5 -145t204 -54.5z" />
    <glyph glyph-name="H" unicode="H" horiz-adv-x="1131" 
d="M831 0v1249l250 50v-1299h-250zM339 771h475l-79 -249h-397q-38 0 -39 -36v-486h-249v1249l249 50v-489q0 -39 40 -39z" />
    <glyph glyph-name="I" unicode="I" horiz-adv-x="389" 
d="M319 1300v-1306h-249v1256z" />
    <glyph glyph-name="J" unicode="J" horiz-adv-x="791" 
d="M741 389q0 -108 -52.5 -196t-140.5 -140t-196 -53h-352l57 249h295q58 0 98 40q31 31 39 79l2 31v652h-420l68 249h602v-911z" />
    <glyph glyph-name="K" unicode="K" horiz-adv-x="1106" 
d="M299 1299v-448l449 449l353 1l-586 -586q37 -22 69 -61l522 -654h-319l-377 474h-1l-3 4q-20 21 -46 21q-23 0 -40 -14.5t-21 -36.5v-448h-249v1249z" />
    <glyph glyph-name="L" unicode="L" horiz-adv-x="977" 
d="M348 -1q-68 0 -137 28t-114 95.5t-47 184.5v993h248v-1011q1 -20 16.5 -29.5t34.5 -9.5h628l-57 -251h-572z" />
    <glyph glyph-name="M" unicode="M" horiz-adv-x="1650" 
d="M883 330q76 473 118 717q24 127 110 190q85 63 191 63q68 0 136.5 -27.5t114 -95t46.5 -184.5l1 -993h-248v1008q-1 21 -17.5 30.5t-33.5 9.5q-24 0 -35.5 -13t-16.5 -31.5t-7 -36.5q-1 -5 -2 -9q-38 -235 -116 -705q-21 -115 -102 -184t-196 -69q-118 0 -197 68
t-103 185q-21 125 -41 250q-38 239 -79 478q-4 25 -15.5 46t-41.5 21q-18 0 -34.5 -9.5t-17.5 -30.5l1 -1008h-248v993q2 117 47 184.5t114 95t137 27.5q106 0 190 -63q85 -63 110 -190l94 -568q13 -77 26 -155q9 -60 55.5 -62t59.5 68z" />
    <glyph glyph-name="N" unicode="N" horiz-adv-x="1174" 
d="M863.5 263q12.5 11 13.5 30v1007h247v-982q0 -94 -32 -165.5t-98 -112t-168 -40.5q-119 0 -197.5 68.5t-102.5 184.5q-19 116 -119 720q-3 17 -8 34.5t-16.5 29t-33.5 11.5q-18 0 -34.5 -9.5t-17.5 -30.5v-1008h-247v987q0 92 34 162t100 110.5t163 40.5q119 0 198 -68.5
t103 -184.5l122 -736q4 -30 18.5 -44.5t36.5 -14.5q26 0 38.5 11z" />
    <glyph glyph-name="O" unicode="O" horiz-adv-x="1500" 
d="M693 1052h114q111 0 202.5 -54t146.5 -145.5t55 -202.5q0 -140 -86 -248q-59 -73 -142 -113.5t-176 -40.5h-114q-111 0 -203 54t-146.5 145.5t-54.5 202.5t54.5 202.5t145.5 145t204 54.5zM1202 131l10 9q118 95 183 228t65 282q0 179 -88.5 327t-236.5 235.5t-328 87.5
h-114q-182 -2 -329.5 -88.5t-235.5 -234.5t-88 -327q0 -181 88 -327.5t235 -232.5t330 -90h114q114 0 217.5 37t177.5 94z" />
    <glyph glyph-name="P" unicode="P" horiz-adv-x="1156" 
d="M1106 911v-124q0 -108 -52.5 -196t-141 -140.5t-195.5 -52.5h-315l-82 249h397q58 0 99 41t41 99v124q0 58 -41 99t-99 41h-379q-13 -3 -24 -14q-15 -15 -15 -37v-1000h-249v1004q0 125 87 211q87 85 213 85h373q107 -3 193.5 -55t138 -139.5t51.5 -194.5z" />
    <glyph glyph-name="Q" unicode="Q" horiz-adv-x="1500" 
d="M693 1052q-113 -1 -204 -54.5t-145.5 -145t-54.5 -202.5t54.5 -202t146.5 -145.5t203 -54.5h114q115 0 209 58l-109 137l135 230l371 -468l-153 -205l-88 111q-163 -111 -365 -111h-114q-182 2 -329.5 88.5t-235.5 234.5t-88 327q0 180 88 327.5t235.5 234t329.5 88.5
h114q180 0 328 -87.5t236.5 -235t88.5 -327.5q-3 -146 -50 -246l-220 118q21 61 21 128q0 111 -55 202.5t-146.5 145.5t-202.5 54h-114z" />
    <glyph glyph-name="R" unicode="R" horiz-adv-x="1156" 
d="M470 398h-68l-82 249h397q58 0 99 41t41 99v124q0 58 -41 99t-99 41h-379q-13 -3 -24 -14q-15 -15 -15 -37v-1000h-249v1004q0 125 87 211q87 85 213 85h373q107 -3 193.5 -55t138 -139.5t51.5 -194.5v-124q0 -108 -52.5 -196t-140.5 -140q-61 -36 -130 -48l322 -403
h-319z" />
    <glyph glyph-name="S" unicode="S" horiz-adv-x="1113" 
d="M439 527q-108 0 -196 52t-140.5 140t-52.5 195t52.5 194.5t140.5 139.5t196 52l623 -1l-57 -248h-578q-55 -6 -91.5 -43.5t-36.5 -93.5t41 -97.5t99 -41.5h235q108 0 196 -52.5t140.5 -140t52.5 -194.5t-52.5 -195t-141 -140.5t-195.5 -52.5l-624 1l57 248h579
q55 6 91.5 44.5t36.5 94.5t-41 97.5t-99 41.5h-235z" />
    <glyph glyph-name="T" unicode="T" horiz-adv-x="1139" 
d="M55 1300h1084l-55 -251h-345q-17 0 -32.5 -9.5t-16.5 -29.5l1 -1010h-242l1 1010q-1 20 -16.5 29.5t-32.5 10.5h-401z" />
    <glyph glyph-name="U" unicode="U" horiz-adv-x="1157" 
d="M299 1300v-771q0 -116 82 -198t198 -82q115 0 197 82t82 198v701l249 70v-773q-2 -148 -72.5 -266.5t-190.5 -189.5t-265 -71q-146 0 -266 71t-190.5 189.5t-72.5 266.5v703z" />
    <glyph glyph-name="V" unicode="V" horiz-adv-x="1135" 
d="M564 0q-117 2 -205 70q-90 69 -123 179q-12 45 -17 66l-179 985h252l181 -999q7 -26 38 -39t56 -13t56.5 13.5t38.5 38.5l181 999h252l-178 -985q-4 -17 -9.5 -36.5t-8.5 -29.5q-33 -110 -123 -179q-89 -69 -206 -70h-6z" />
    <glyph glyph-name="W" unicode="W" horiz-adv-x="1828" 
d="M971 983q-16 69 -57.5 66t-56.5 -72l-120 -724q-25 -127 -110 -190t-191 -63q-68 0 -132 28t-108.5 95.5t-57.5 184.5l-98 992h248l97 -1008q3 -21 19 -30.5t33 -9.5q31 0 42.5 21t14.5 47q100 603 121 729q24 116 103 184.5t198 68.5q114 0 195.5 -69t102.5 -184
q19 -118 116 -707q1 -4 1 -8q3 -19 8 -37.5t16.5 -31.5t35.5 -13q17 0 33 9.5t18 30.5l98 1008h248l-98 -992q-13 -117 -57.5 -184.5t-108.5 -95.5t-132 -28q-106 0 -191 63q-86 63 -110 190z" />
    <glyph glyph-name="X" unicode="X" horiz-adv-x="1195" 
d="M339 650q-47 59 -76 134l-223 515h257l205 -462q9 -26 39 -40q31 -13 56 -13t57 14q30 14 39 39l205 462h257l-223 -515q-29 -75 -75 -134q46 -60 75 -135l223 -515h-257l-205 463q-9 25 -39 39q-32 13 -57 13t-56 -13q-30 -14 -39 -39l-205 -463h-257l223 515
q29 75 76 135z" />
    <glyph glyph-name="Y" unicode="Y" horiz-adv-x="1112" 
d="M680 0h-248v556q-46 17 -86 48q-87 72 -125 181l-201 515h257l184 -462q8 -26 38 -40q32 -13 56 -13q26 0 58 14q30 14 39 39l183 462h257l-201 -515q-38 -109 -124 -181q-41 -31 -87 -48v-556z" />
    <glyph glyph-name="Z" unicode="Z" horiz-adv-x="1405" 
d="M1080 960q20 11 20 40q0 18 -9.5 34.5t-30.5 17.5h-1010l52 248h936q141 -4 218.5 -73.5t93.5 -168.5q3 -17 4 -35v-33q-2 -63 -29 -122q-42 -92 -140 -139l-861 -389q-19 -12 -19 -40q0 -18 9.5 -34.5t30.5 -17.5h1010l-55 -248h-933q-141 3 -218.5 73t-93.5 169
q-4 20 -5 40v23q0 10 1 20q5 55 29 107q42 92 140 139z" />
    <glyph glyph-name="bracketleft" unicode="[" horiz-adv-x="535" 
d="M600 1600l-66 -182h-227v-1835h227l66 -182h-530v2199h530z" />
    <glyph glyph-name="backslash" unicode="\" horiz-adv-x="694" 
d="M495 -90l-445 1474l151 19l443 -1478z" />
    <glyph glyph-name="bracketright" unicode="]" horiz-adv-x="540" 
d="M-60 -599l66 182h227v1835h-227l-66 182h530v-2199h-530z" />
    <glyph glyph-name="asciicircum" unicode="^" horiz-adv-x="826" 
d="M223 602h-173l273 696h180l273 -696h-173l-85 239l-89 261h-32l-89 -261z" />
    <glyph glyph-name="underscore" unicode="_" horiz-adv-x="952" 
d="M902 27h-852v110h852v-110z" />
    <glyph glyph-name="grave" unicode="`" horiz-adv-x="427" 
d="M377 1104h-111l-216 233h181z" />
    <glyph glyph-name="a" unicode="a" horiz-adv-x="1095" 
d="M669 248l-79 -248h-76q-131 0 -238.5 64t-171.5 171.5t-64 238.5t64 239t171.5 172t238.5 64h127q127 0 212 -87q42 -42 65.5 -94t23.5 -115v-353q0 -22 15 -37q4 -3 11.5 -7.5t14 -6t12.5 -1.5h80l-48 -248h-34q-126 0 -211 87q-43 42 -66 94t-23 115v352q0 21 -15 37
q-15 15 -37 15h-128q-94 0 -159.5 -66t-65.5 -160q0 -93 66.5 -159.5t159.5 -66.5h155z" />
    <glyph glyph-name="b" unicode="b" horiz-adv-x="1003" 
d="M488 701h-174l81 248h95q132 -2 238.5 -65.5t170.5 -171t64 -238.5q0 -130 -64 -237.5t-170.5 -171t-238.5 -65.5h-140q-127 0 -213 86q-87 86 -87 210v948l248 56v-1000q0 -21 16 -36t37 -15h138q94 0 160 66t66 159q0 94 -66.5 160.5t-160.5 66.5z" />
    <glyph glyph-name="c" unicode="c" horiz-adv-x="873" 
d="M853 248l-49 -248h-290q-131 0 -238.5 64t-171.5 171.5t-64 238.5t64 239t171.5 172t238.5 64h339l-49 -248h-290q-93 0 -159.5 -66.5t-66.5 -160.5q0 -93 66.5 -159.5t159.5 -66.5h339z" />
    <glyph glyph-name="d" unicode="d" horiz-adv-x="1003" 
d="M514 701q-93 0 -159.5 -66.5t-66.5 -160.5q0 -93 66 -159t160 -66h138q21 0 37 15t16 36v944l248 56v-1004q0 -124 -87 -210t-213 -86h-140q-132 2 -238.5 65.5t-170.5 171t-64 237.5q0 131 64 238.5t170.5 171t238.5 65.5h95l81 -248h-175z" />
    <glyph glyph-name="e" unicode="e" horiz-adv-x="983" 
d="M875 0h-361q-131 0 -238.5 64t-171.5 171.5t-64 238.5t64 239t171.5 172t238.5 64h104q84 0 155.5 -39.5t115.5 -108t44 -153.5q0 -86 -44 -152t-115.5 -103.5t-156.5 -38.5l-180 1l-82 248h283q19 0 33 14.5t14 33.5q0 20 -14.5 34.5t-33.5 14.5h-124q-94 0 -159.5 -66
t-65.5 -160q0 -93 66.5 -159.5t159.5 -66.5h409z" />
    <glyph glyph-name="f" unicode="f" horiz-adv-x="669" 
d="M30 701l50 248h58v55q0 125 87 210q87 86 213 86h231l-57 -249h-173q-21 0 -37 -15t-16 -36v-51h226l-51 -248h-175v-701h-248v701h-108z" />
    <glyph glyph-name="g" unicode="g" horiz-adv-x="992" 
d="M669 248l-79 -248h-76q-131 0 -238.5 64t-171.5 172t-64 239t64 238.5t171.5 171.5t238.5 64h127q127 0 212 -87q42 -42 65.5 -94t23.5 -115v-735q0 -124 -87 -210t-213 -86h-526l46 249h479q21 0 37 15t16 36l-1 726q0 22 -15 37t-37 15h-128q-94 0 -159.5 -66
t-65.5 -159q0 -94 66.5 -160.5t159.5 -66.5h155z" />
    <glyph glyph-name="h" unicode="h" horiz-adv-x="908" 
d="M50 0v1248l249 52v-371q56 20 118 20h74q101 0 184.5 -49.5t133 -133t49.5 -184.5v-582h-249v582q0 49 -34.5 83.5t-83.5 34.5h-74q-49 0 -83.5 -34.5t-34.5 -83.5v-582h-249z" />
    <glyph glyph-name="i" unicode="i" horiz-adv-x="349" 
d="M50 0v896l249 53v-949h-249zM299 1051h-248l-1 248h248z" />
    <glyph glyph-name="j" unicode="j" horiz-adv-x="553" 
d="M502 949v-1031q0 -124 -86 -210q-87 -86 -213 -86h-203l45 249h156q22 0 37 15q17 15 17 36v970zM503 1051h-248l-1 248h248z" />
    <glyph glyph-name="k" unicode="k" horiz-adv-x="1004" 
d="M50 -6v1254l249 52v-704l353 353h352l-461 -461q72 -18 135 -88l323 -406h-319l-209 263q-8 9 -18 16q-27 20 -60 20q-39 0 -66.5 -25.5t-29.5 -62.5v-211h-249z" />
    <glyph glyph-name="l" unicode="l" horiz-adv-x="485" 
d="M50 1244l248 56v-1000q0 -21 16 -36t37 -15h114l-56 -249h-59q-127 0 -213 86q-87 86 -87 210v948z" />
    <glyph glyph-name="m" unicode="m" horiz-adv-x="1466" 
d="M733 857q100 89 242 92h74q101 0 184.5 -49.5t133 -133t49.5 -184.5v-582h-249v582q0 49 -34.5 83.5t-83.5 34.5h-73q-49 0 -83 -34t-35 -84v-582h-249v582q0 49 -35 83.5t-83 34.5h-74q-49 0 -83.5 -34.5t-34.5 -83.5v-582h-249v582q0 101 49.5 184.5t132 132.5
t185.5 50h74q139 0 242 -92z" />
    <glyph glyph-name="n" unicode="n" horiz-adv-x="908" 
d="M50 0v582q0 101 49.5 184.5t132 132.5t185.5 50h74q101 0 184.5 -49.5t133 -133t49.5 -184.5v-582h-249v582q0 49 -35 83.5t-83 34.5h-74q-49 0 -83.5 -34.5t-34.5 -83.5v-582h-249z" />
    <glyph glyph-name="o" unicode="o" horiz-adv-x="1125" 
d="M611 248q93 0 159.5 66t66.5 160t-66 160.5t-160 66.5h-97q-93 0 -159.5 -66.5t-66.5 -160.5q0 -93 66.5 -159.5t159.5 -66.5h97zM1085 446q-6 -114 -63 -210q-64 -107 -170.5 -170.5t-238.5 -65.5h-99q-131 0 -238.5 64t-171.5 171.5t-64 238.5t64 239t171.5 172
t238.5 64h99q132 -2 238.5 -65.5t170.5 -171.5q58 -97 63 -214v-52z" />
    <glyph glyph-name="p" unicode="p" horiz-adv-x="1003" 
d="M298 -294l-248 -57v1004q0 125 87 210q86 86 213 86h140q132 -2 238.5 -65t170.5 -170.5t64 -238.5t-64 -238.5t-170.5 -171t-238.5 -65.5h-95l-81 248h174q94 0 160.5 66.5t66.5 160.5t-66 159.5t-160 65.5h-138q-21 0 -37 -15t-16 -36v-943z" />
    <glyph glyph-name="q" unicode="q" horiz-adv-x="1003" 
d="M514 248h175l-81 -248h-95q-132 2 -238.5 65.5t-170.5 171t-64 238.5t64 238.5t170.5 170.5t238.5 65h140q126 0 213 -86q87 -85 87 -210v-947l-248 -57v1000q0 21 -16 36t-37 15h-138q-94 0 -160 -65.5t-66 -159.5t66.5 -160.5t159.5 -66.5z" />
    <glyph glyph-name="r" unicode="r" horiz-adv-x="536" 
d="M461 700h-110q-22 0 -37 -15q-15 -16 -15 -37v-648h-249v653q0 63 23.5 115.5t65.5 94.5q85 87 211 87h166z" />
    <glyph glyph-name="s" unicode="s" horiz-adv-x="918" 
d="M804 700h-436q-18 0 -33 -15t-15 -35q0 -19 14.5 -33t32.5 -14h181q84 0 155.5 -40t115 -108t43.5 -154q0 -85 -43.5 -153.5t-115 -108t-155.5 -39.5h-498l65 247h433q18 0 32.5 17.5t14.5 36.5t-13.5 35.5t-32.5 16.5h-180q-85 1 -156.5 38.5t-115.5 103.5t-44 152
q0 85 43.5 153.5t115 108t155.5 39.5h501z" />
    <glyph glyph-name="t" unicode="t" horiz-adv-x="651" 
d="M138 1108l249 56v-215h212l-49 -248h-163v-400q0 -21 15 -38q16 -15 38 -15h181l-60 -248h-123q-126 0 -211 87q-42 42 -65.5 94t-23.5 115v405h-108l50 248h58v159z" />
    <glyph glyph-name="u" unicode="u" horiz-adv-x="908" 
d="M50 909l249 40v-582q0 -49 34.5 -83.5t83.5 -34.5h74q48 0 83 34.5t35 83.5v542l249 40v-582q0 -101 -49.5 -184.5t-133 -133t-184.5 -49.5h-74q-103 1 -185.5 50t-132 132.5t-49.5 184.5v542z" />
    <glyph glyph-name="v" unicode="v" horiz-adv-x="907" 
d="M293 949l108 -661q18 -38 52 -39q34 1 51 39l109 661h254l-118 -699q-24 -126 -108 -188q-84 -63 -187 -63q-105 0 -189 62.5t-109 188.5l-116 699h253z" />
    <glyph glyph-name="w" unicode="w" horiz-adv-x="1390" 
d="M40 949h249l45 -582q0 -49 35 -83.5t83 -34.5q49 0 83.5 34.5t34.5 83.5v582h250v-582q1 -50 35 -84t83 -34q48 0 83 34.5t35 83.5l45 582h249q0 -17 -7 -108t-15.5 -200t-22.5 -275q-2 -102 -51 -184.5t-132 -132t-184 -49.5q-140 0 -243 92q-103 -92 -243 -92
q-101 0 -184.5 49.5t-133 133t-49.5 184.5z" />
    <glyph glyph-name="x" unicode="x" horiz-adv-x="997" 
d="M263 476q-46 59 -74 133l-148 340h257l127 -288q12 -27 28 -39.5t45 -12.5q55 0 73 52l128 288h256l-147 -340q-29 -74 -75 -133q46 -58 75 -133l149 -343h-257l-129 291q-18 52 -73 52q-29 0 -45 -12.5t-28 -39.5l-129 -291h-256l149 343q28 75 74 133z" />
    <glyph glyph-name="y" unicode="y" horiz-adv-x="1075" 
d="M549 404l21 47l214 498h271l-469 -1091q-28 -64 -77 -117.5t-116.5 -86t-148.5 -32.5h-195l57 249h138q29 0 68 26q25 16 47 65l62 144q-91 22 -156.5 91t-89.5 157l-155 593h266l136 -538q16 -52 53 -55h15q35 5 59 50z" />
    <glyph glyph-name="z" unicode="z" horiz-adv-x="1082" 
d="M191 447l576 256q3 5 -1 6l-716 -1l51 242h679q86 -1 156 -49q61 -46 82 -119q10 -33 11 -65l-1 -17q-1 -45 -19 -87q-35 -82 -119 -123l-552 -245q-11 -11 3 -16h691l-55 -241h-669q-10 0 -21 1q-77 4 -141 48q-61 46 -83 119q-9 33 -10 65v11q0 48 20 93q34 82 118 122
z" />
    <glyph glyph-name="braceleft" unicode="{" horiz-adv-x="767" 
d="M311 408q112 -24 176 -94t64 -189q0 -73 -18 -211q-18 -188 -18 -226q0 -130 46 -186.5t163 -69.5l43 -4l50 -127h-170q-234 15 -308 171q-29 64 -29 148q0 29 11.5 252.5t11.5 250.5q0 68 -5.5 97.5t-28.5 61.5q-52 73 -229 74l1 115q234 -2 257 148q6 37 6 109
q0 59 -11 194q-11 138 -13 279q0 95 43.5 166t115.5 111q75 42 178 42h170l-50 -128l-75 -6q-109 -28 -142 -86q-33 -57 -33 -124q0 -72 18 -246.5t18 -212.5q0 -245 -242 -298v-11z" />
    <glyph glyph-name="bar" unicode="|" horiz-adv-x="216" 
d="M166 -138h-116v1586h116v-1586z" />
    <glyph glyph-name="braceright" unicode="}" horiz-adv-x="767" 
d="M456 408v11q-242 53 -242 298q0 38 18 212.5t18 246.5q0 67 -33 124q-33 58 -142 86l-75 6l-50 128h170q103 0 178 -42q72 -40 115.5 -111t43.5 -166q-2 -141 -13 -279q-11 -135 -11 -194q0 -72 6 -109q23 -150 257 -148l1 -115q-177 -1 -229 -74q-23 -32 -28.5 -61.5
t-5.5 -97.5q0 -27 11.5 -250.5t11.5 -252.5q0 -84 -29 -148q-74 -156 -308 -171h-170l50 127l43 4q117 13 163 69.5t46 186.5q0 38 -18 226q-18 138 -18 211q0 119 64 189t176 94z" />
    <glyph glyph-name="asciitilde" unicode="~" horiz-adv-x="824" 
d="M476.5 642.5q-34.5 15.5 -72.5 44.5q-11 7 -38 26.5t-50.5 30t-47.5 10.5q-75 0 -126 -90l-92 71q95 149 221 149q41 0 75 -15.5t76 -44.5q44 -35 72 -51.5t62 -16.5q75 0 125 88l93 -71q-95 -146 -221 -146q-42 0 -76.5 15.5z" />
    <glyph glyph-name="uni00A0" unicode="&#xa0;" horiz-adv-x="650" 
 />
    <glyph glyph-name="exclamdown" unicode="&#xa1;" horiz-adv-x="352" 
d="M285 0l-215 46v792l215 -49v-789zM174 1200q54 0 91 -36.5t37 -89.5q0 -55 -36 -91.5t-92 -36.5q-54 0 -89 36.5t-35 91.5q0 53 35 89.5t89 36.5z" />
    <glyph glyph-name="cent" unicode="&#xa2;" horiz-adv-x="963" 
d="M609 0v-120h-126v122q-107 8 -197 62q-108 64 -172 171.5t-64 238.5t64 239t172 172q90 54 197 62v176h126v-174h304l-49 -248h-255v-453h304l-49 -248h-255zM483 251v447q-67 -12 -118 -63q-67 -67 -67 -161q0 -93 67 -159q51 -52 118 -64z" />
    <glyph glyph-name="sterling" unicode="&#xa3;" horiz-adv-x="764" 
d="M54 0v121q70 33 115 95.5t45 144.5q0 16 -12 78h-152l24 91l100 2q-15 51 -21 79t-6 58q0 67 23 123t65 96q87 80 224 80q80 0 140.5 -29t109.5 -87l-107 -107q-50 64 -124 64q-65 0 -103 -38.5t-38 -112.5q0 -56 21 -126h217l-31 -93h-168q11 -54 11 -80
q0 -54 -11 -105.5t-40 -87.5h378l-34 -166h-626z" />
    <glyph glyph-name="currency" unicode="&#xa4;" horiz-adv-x="808" 
d="M50 307l93 96q-56 79 -56 173q0 97 55 174l-92 96l87 88l105 -107q79 45 163 45t162 -45l105 107l86 -88l-95 -96q59 -74 59 -174q0 -89 -58 -174l94 -95l-86 -88l-107 108q-75 -45 -160 -45q-87 0 -162 45l-106 -108zM517 452q44 50 44 124q0 78 -44.5 127t-111.5 49
q-68 0 -112 -49t-44 -127q0 -76 44.5 -125t111.5 -49q68 0 112 50z" />
    <glyph glyph-name="yen" unicode="&#xa5;" horiz-adv-x="975" 
d="M357 467q-22 11 -42 27q-70 58 -101 147l-164 421h210l149 -378q8 -21 32 -32q26 -11 46 -11q21 0 47 11q24 12 31 32l150 378h210l-164 -421q-31 -89 -102 -147q-20 -16 -41 -27h193v-110h-222v-57h222v-110h-222v-189h-203v189h-227v110h227v57h-227v110h198z" />
    <glyph glyph-name="brokenbar" unicode="&#xa6;" horiz-adv-x="223" 
d="M173 826h-123v724h123v-724zM173 -132h-123v748h123v-748z" />
    <glyph glyph-name="section" unicode="&#xa7;" horiz-adv-x="840" 
d="M203 45q-85 34 -128 89l113 101q79 -82 193 -82q60 0 93.5 26t33.5 73q0 46 -50.5 79t-157.5 83q-10 3 -50 22q-95 44 -147.5 111t-52.5 158q0 60 34 114t112 102q-56 68 -56 149q0 109 75 175t208 66q160 0 282 -96l-88 -121q-31 26 -81.5 49.5t-98.5 23.5
q-117 0 -117 -90q0 -41 55.5 -76.5t158.5 -86.5l54 -26q105 -52 153.5 -110t48.5 -152q0 -69 -33.5 -121.5t-116.5 -103.5q49 -66 49 -138q0 -118 -84.5 -185t-223.5 -67q-93 0 -178 34zM622 607q0 85 -110 144q-33 20 -103 48q-16 8 -48 21t-61 30q-83 -54 -83 -129
q0 -45 29 -79t82 -62q24 -13 55.5 -27.5t61.5 -28.5l97 -44q80 44 80 127z" />
    <glyph glyph-name="dieresis" unicode="&#xa8;" horiz-adv-x="741" 
d="M300.5 1620.5q40.5 -42.5 40.5 -102.5q0 -64 -40.5 -106.5t-103.5 -42.5q-64 0 -105.5 42.5t-41.5 106.5q0 60 42.5 102.5t104.5 42.5q63 0 103.5 -42.5zM650.5 1620.5q40.5 -42.5 40.5 -102.5q0 -64 -40.5 -106.5t-103.5 -42.5q-64 0 -105.5 42.5t-41.5 106.5
q0 60 42.5 102.5t104.5 42.5q63 0 103.5 -42.5z" />
    <glyph glyph-name="copyright" unicode="&#xa9;" horiz-adv-x="1379" 
d="M445 47q-118 45 -203 130q-92 87 -142 207.5t-50 268.5q0 147 50.5 267t141.5 205q85 83 202 127.5t247 44.5q129 0 246.5 -44.5t202.5 -127.5q90 -85 139.5 -205.5t49.5 -266.5q0 -148 -49.5 -268.5t-140.5 -207.5q-86 -85 -202.5 -130t-245.5 -45q-128 0 -246 45z
M905 119.5q100 40.5 176 117.5q77 80 118.5 184t41.5 232q0 123 -41.5 229.5t-118.5 183.5q-76 76 -176 115.5t-214 39.5q-115 0 -215 -39.5t-175 -115.5q-78 -77 -119 -182.5t-41 -230.5q0 -128 41 -233t119 -183q75 -77 175 -117.5t215 -40.5q114 0 214 40.5zM907 475
l-35 -175h-169q-92 0 -168.5 45t-121.5 121.5t-45 168.5q0 93 45 169t121.5 121t168.5 45h204l-35 -175h-169q-66 0 -113 -47t-47 -113t47 -113t113 -47h204z" />
    <glyph glyph-name="guillemotleft" unicode="&#xab;" horiz-adv-x="708" 
d="M562 670l76 -137l-167 -199l152 -193l-63 -141l-206 259q-22 27 -22 59q0 67 38 111zM300 670l76 -137l-167 -199l152 -193l-63 -141l-206 259q-22 27 -22 59q0 67 38 111z" />
    <glyph glyph-name="logicalnot" unicode="&#xac;" horiz-adv-x="760" 
d="M710 248h-145v270h-515v141h660v-411z" />
    <glyph glyph-name="uni00AD" unicode="&#xad;" horiz-adv-x="958" 
d="M858 6h-758v101h758v-101z" />
    <glyph glyph-name="registered" unicode="&#xae;" horiz-adv-x="690" 
d="M195.5 744.5q-67.5 40.5 -106.5 109.5t-39 152q0 85 39.5 154.5t107 109t148.5 39.5q83 0 151 -40.5t106 -109.5t38 -153q0 -86 -39 -155t-106.5 -108t-149.5 -39t-149.5 40.5zM521 819.5q68 71.5 68 186.5t-68 186.5t-176 71.5q-106 0 -174 -72.5t-68 -185.5
q0 -115 68 -186.5t174 -71.5q108 0 176 71.5zM332 944h-23l-12 57h92q13 0 22.5 9.5t9.5 23.5v28q0 14 -9.5 23.5t-22.5 9.5h-87q-3 -1 -6 -4q-4 -3 -4 -8v-231h-57v232q0 29 20 48q20 20 49 20h86q25 -1 45 -13t32 -32t12 -45v-28q0 -25 -12 -45.5t-33 -32.5
q-14 -8 -30 -11l75 -93h-74z" />
    <glyph glyph-name="degree" unicode="&#xb0;" horiz-adv-x="478" 
d="M106 975q-56 53 -56 135q0 81 56 137q55 52 134 52q39 0 73.5 -14t59.5 -38q55 -57 55 -137t-55 -135q-25 -26 -59.5 -39t-73.5 -13q-79 0 -134 52zM306 1037q25 28 25 73t-25 73t-66 28q-42 0 -68 -28t-26 -73t26 -73t68 -28q41 0 66 28z" />
    <glyph glyph-name="plusminus" unicode="&#xb1;" horiz-adv-x="858" 
d="M375 515h-325v106h325v322h105v-322h325v-106h-325v-327h-105v327zM808 6h-758v101h758v-101z" />
    <glyph glyph-name="paragraph" unicode="&#xb6;" horiz-adv-x="938" 
d="M754 0v1174h-199v-1174h-126v780h-107q-124 0 -193 72.5t-69 190.5q0 117 69 187t193 70h556v-1300h-124z" />
    <glyph glyph-name="periodcentered" unicode="&#xb7;" horiz-adv-x="380" 
d="M50 139q0 57 41 98t98 41q58 0 99.5 -40.5t41.5 -98.5q0 -57 -41.5 -98t-98.5 -41t-98.5 41t-41.5 98z" />
    <glyph glyph-name="guillemotright" unicode="&#xbb;" horiz-adv-x="708" 
d="M146 0l-76 137l167 199l-152 193l63 141l206 -259q22 -27 22 -59q0 -67 -38 -111zM408 0l-76 137l167 199l-152 193l63 141l206 -259q22 -27 22 -59q0 -67 -38 -111z" />
    <glyph glyph-name="onehalf" unicode="&#xbd;" horiz-adv-x="1308" 
d="M191 0h-141l1069 1400h139zM279 1260l-44 -29l-75 104l31 20l28 19q15 11 29 23q14 11 26 24l16 17h115v-641l-126 -26v489zM924 121h197l27 -121h-388v116l259 277q14 17 17 34q4 17 -3 36q-6 18 -21 31q-13 11 -28 15q-12 2 -15 2h-10q-10 -1 -15 -3q-20 -5 -34 -22
q-13 -15 -16 -35l-2 -12l-114 50l3 8q11 38 37 68q53 60 132 67h20q67 -2 120 -46q60 -53 67 -132q1 -9 1 -18q-2 -68 -47 -122z" />
    <glyph glyph-name="questiondown" unicode="&#xbf;" horiz-adv-x="757" 
d="M269 -78q5 -42 35.5 -72t73.5 -30q45 0 76 30.5t34 74.5l-2 108q-7 40 -37 64l-248 196l7 276l369 -293q116 -91 130 -237v-131q-11 -128 -104.5 -217.5t-224.5 -89.5q-132 0 -224.5 90t-103.5 218v191l219 52v-230zM344 861q62 0 105 -42.5t43 -103.5q0 -64 -42 -107
t-106 -43q-63 0 -104 42.5t-41 107.5q0 61 41 103.5t104 42.5z" />
    <glyph glyph-name="multiply" unicode="&#xd7;" horiz-adv-x="883" 
d="M797 190l1 -1l-85 -84l-271 269l-271 -269l-92 91l270 273l-269 270l90 91l271 -272l272 271l91 -90l-271 -270l271 -272z" />
    <glyph glyph-name="divide" unicode="&#xf7;" horiz-adv-x="940" 
d="M870 390h-800v111h800v-111zM468 926q62 0 105 -43t43 -105q0 -61 -43 -104.5t-104 -43.5q-60 0 -104.5 44t-44.5 104q0 62 43 105t105 43zM469 256q61 0 104 -43.5t43 -104.5q0 -62 -43 -105t-105 -43t-105 43t-43 105q0 60 44.5 104t104.5 44z" />
    <glyph glyph-name="uni060C" unicode="&#x60c;" horiz-adv-x="431" 
d="M319.5 240.5q41.5 -41.5 41.5 -100.5q0 -58 -41.5 -99t-99.5 -41q-74 0 -112 46.5t-38 123.5q0 84 33 165t124 182l84 -87q-73 -81 -97 -148h6q58 0 99.5 -41.5z" />
    <glyph glyph-name="uni061B" unicode="&#x61b;" horiz-adv-x="435" 
d="M323.5 726.5q41.5 -41.5 41.5 -100.5q0 -58 -41.5 -99t-99.5 -41q-74 0 -112 46.5t-38 123.5q0 84 33 165t124 182l84 -87q-73 -81 -97 -148h6q58 0 99.5 -41.5zM111 48q-41 42 -41 103q0 64 41 106.5t103 42.5q64 0 105.5 -42.5t41.5 -106.5q0 -61 -42.5 -103
t-104.5 -42t-103 42z" />
    <glyph glyph-name="uni061F" unicode="&#x61f;" horiz-adv-x="797" 
d="M508 936q-5 42 -35.5 72t-73.5 30q-45 0 -76 -30.5t-34 -74.5l2 -108q7 -40 37 -64l248 -196l-7 -276l-369 293q-116 91 -130 237v131q11 128 104.5 217.5t224.5 89.5q132 0 224.5 -90t103.5 -218v-191l-219 -52v230zM310 40q-41 43 -41 104q0 64 41 106.5t104 42.5
q64 0 106 -42.5t42 -106.5q0 -61 -43 -104t-105 -43q-63 0 -104 43z" />
    <glyph glyph-name="uni0621" unicode="&#x621;" horiz-adv-x="749" 
d="M313 350q0 -35 22 -58t56 -23q10 0 17 2l187 59l84 -138l-609 -192l2 161l131 46q-46 61 -46 128q0 88 37 147.5t112 82.5l153 47l73 -140l-168 -51q-22 -6 -36.5 -25.5t-14.5 -45.5z" />
    <glyph glyph-name="uni0627" unicode="&#x627;" horiz-adv-x="388" 
d="M70 0v1249l248 52v-1252z" />
    <glyph glyph-name="uni0628" unicode="&#x628;" horiz-adv-x="1629" 
d="M964 -340l-159 -159l-160 159l160 160zM318 299q0 -21 15 -36t36 -15h890q22 0 37 15t15 36v351l248 50v-405q0 -124 -86.5 -209.5t-212.5 -85.5h-891q-127 0 -213 85t-86 210v355l248 50v-401z" />
    <glyph glyph-name="uni0629" unicode="&#x629;" horiz-adv-x="873" 
d="M470 1270l-159 -159l-160 159l160 160zM790 1270l-159 -159l-160 159l160 160zM508 945q124 0 208 -85.5t87 -212.5v-280q0 -105 -51 -187t-131 -130q-83 -50 -184 -50q-105 0 -187.5 51t-130.5 131q-49 82 -49 185v245l248 71v-316q0 -49 35 -84q34 -34 82 -35h3
q48 0 83 35t35 84v279q0 22 -15 37t-36 15h-435l50 247h388z" />
    <glyph glyph-name="uni062A" unicode="&#x62a;" horiz-adv-x="1629" 
d="M846 758l-159 -159l-160 159l160 160zM1166 758l-159 -159l-160 159l160 160zM318 299q0 -21 15 -36t36 -15h890q22 0 37 15t15 36v351l248 50v-405q0 -124 -86.5 -209.5t-212.5 -85.5h-891q-127 0 -213 85t-86 210v355l248 50v-401z" />
    <glyph glyph-name="uni062B" unicode="&#x62b;" horiz-adv-x="1629" 
d="M826 758l-159 -159l-160 159l160 160zM1146 758l-159 -159l-160 159l160 160zM986 989l-159 -159l-160 159l160 160zM318 299q0 -21 15 -36t36 -15h890q22 0 37 15t15 36v351l248 50v-405q0 -124 -86.5 -209.5t-212.5 -85.5h-891q-127 0 -213 85t-86 210v355l248 50v-401
z" />
    <glyph glyph-name="uni062C" unicode="&#x62c;" horiz-adv-x="1070" 
d="M919 -142l-159 -159l-160 159l160 160zM713 519h-541l50 248h542q116 0 189 -88q58 -71 58 -162q0 -130 -123 -213l-422 -284q-22 -16 -56.5 -46.5t-49.5 -47.5q-38 -50 -42 -115q0 -157 106 -261q105 -103 257 -103h389l-50 -248h-338q-238 0 -413 157
q-94 85 -146.5 202.5t-52.5 252.5q0 118 64 227t179 184l408 268q4 5 4 12t-5 13q-4 3 -7 4z" />
    <glyph glyph-name="uni062D" unicode="&#x62d;" horiz-adv-x="1070" 
d="M713 519h-541l50 248h542q116 0 189 -88q58 -71 58 -162q0 -130 -123 -213l-422 -284q-22 -16 -56.5 -46.5t-49.5 -47.5q-38 -50 -42 -115q0 -157 106 -261q105 -103 257 -103h389l-50 -248h-338q-238 0 -413 157q-94 85 -146.5 202.5t-52.5 252.5q0 118 64 227t179 184
l408 268q4 5 4 12t-5 13q-4 3 -7 4z" />
    <glyph glyph-name="uni062E" unicode="&#x62e;" horiz-adv-x="1070" 
d="M768 1057l-159 -159l-160 159l160 160zM713 519h-541l50 248h542q116 0 189 -88q58 -71 58 -162q0 -130 -123 -213l-422 -284q-22 -16 -56.5 -46.5t-49.5 -47.5q-38 -50 -42 -115q0 -157 106 -261q105 -103 257 -103h389l-50 -248h-338q-238 0 -413 157
q-94 85 -146.5 202.5t-52.5 252.5q0 118 64 227t179 184l408 268q4 5 4 12t-5 13q-4 3 -7 4z" />
    <glyph glyph-name="uni062F" unicode="&#x62f;" horiz-adv-x="974" 
d="M635 248q9 0 16 7q5 5 6 13v2q0 9 -7 16l-412 413l149 201l439 -440q78 -84 78 -190q0 -113 -78 -191.5t-191 -78.5h-615l52 248h563z" />
    <glyph glyph-name="uni0630" unicode="&#x630;" horiz-adv-x="974" 
d="M486 1130l-159 -159l-160 159l160 160zM635 248q9 0 16 7q5 5 6 13v2q0 9 -7 16l-412 413l149 201l439 -440q78 -84 78 -190q0 -113 -78 -191.5t-191 -78.5h-615l52 248h563z" />
    <glyph glyph-name="uni0631" unicode="&#x631;" horiz-adv-x="521" 
d="M5 -209q82 0 139.5 57.5t57.5 139.5v662l248 50v-751q0 -120 -85 -222q-59 -83 -151 -133.5t-209 -50.5h-156l49 248h107z" />
    <glyph glyph-name="uni0632" unicode="&#x632;" horiz-adv-x="521" 
d="M464 958l-159 -159l-160 159l160 160zM5 -209q82 0 139.5 57.5t57.5 139.5v662l248 50v-751q0 -120 -85 -222q-59 -83 -151 -133.5t-209 -50.5h-156l49 248h107z" />
    <glyph glyph-name="uni0633" unicode="&#x633;" horiz-adv-x="2225" 
d="M1856 248q21 0 36.5 15t15.5 36v382l247 53v-439q0 -124 -86 -207t-213 -88h-79q-95 0 -176 57q-77 -57 -175 -57h-80q-23 0 -51 5v-56q0 -119 -86 -222q-59 -82 -151.5 -133t-208.5 -51h-167q-176 0 -312.5 84.5t-216.5 219.5q-83 140 -83 308v341l248 50v-392
q4 -153 107.5 -255.5t256.5 -107.5h167q82 0 140 57.5t58 139.5v661l248 50v-401q0 -21 14.5 -35.5t36.5 -14.5h80q22 0 36.5 14.5t14.5 35.5v351l248 50v-401q0 -21 15 -35.5t37 -14.5h79z" />
    <glyph glyph-name="uni0634" unicode="&#x634;" horiz-adv-x="2225" 
d="M1621 958l-159 -159l-160 159l160 160zM1941 958l-159 -159l-160 159l160 160zM1781 1189l-159 -159l-160 159l160 160zM1856 248q21 0 36.5 15t15.5 36v382l247 53v-439q0 -124 -86 -207t-213 -88h-79q-95 0 -176 57q-77 -57 -175 -57h-80q-23 0 -51 5v-56
q0 -119 -86 -222q-59 -82 -151.5 -133t-208.5 -51h-167q-176 0 -312.5 84.5t-216.5 219.5q-83 140 -83 308v341l248 50v-392q4 -153 107.5 -255.5t256.5 -107.5h167q82 0 140 57.5t58 139.5v661l248 50v-401q0 -21 14.5 -35.5t36.5 -14.5h80q22 0 36.5 14.5t14.5 35.5v351
l248 50v-401q0 -21 15 -35.5t37 -14.5h79z" />
    <glyph glyph-name="uni0635" unicode="&#x635;" horiz-adv-x="2440" 
d="M2124 367q-1 47 -35 82q-36 36 -84 36l-348 -1q-22 0 -37 -15t-15 -36v-102l-247 -70v176q0 62 23 114t65 94q84 84 210 86h349q106 0 188 -51t128 -130q49 -82 49 -185q0 -105 -51 -186q-53 -83 -134 -131t-180 -48h-662q-27 0 -52 5v-57q0 -60 -22 -114.5t-64 -107.5
q-60 -80 -151 -132q-92 -51 -208 -51h-166q-174 0 -312 85q-137 86 -216 218q-82 139 -82 307v340l247 52v-393q0 -105 50 -185q51 -80 131 -128q82 -49 182 -49h166q82 0 140 58q58 57 58 139v657l247 54v-400q1 -20 16 -35t36 -15h662q49 0 84 34t35 82v3z" />
    <glyph glyph-name="uni0636" unicode="&#x636;" horiz-adv-x="2440" 
d="M1992 1012l-159 -159l-160 159l160 160zM2124 367q-1 47 -35 82q-36 36 -84 36l-348 -1q-22 0 -37 -15t-15 -36v-102l-247 -70v176q0 62 23 114t65 94q84 84 210 86h349q106 0 188 -51t128 -130q49 -82 49 -185q0 -105 -51 -186q-53 -83 -134 -131t-180 -48h-662
q-27 0 -52 5v-57q0 -60 -22 -114.5t-64 -107.5q-60 -80 -151 -132q-92 -51 -208 -51h-166q-174 0 -312 85q-137 86 -216 218q-82 139 -82 307v340l247 52v-393q0 -105 50 -185q51 -80 131 -128q82 -49 182 -49h166q82 0 140 58q58 57 58 139v657l247 54v-400q1 -20 16 -35
t36 -15h662q49 0 84 34t35 82v3z" />
    <glyph glyph-name="uni0637" unicode="&#x637;" horiz-adv-x="1561" 
d="M270 248q22 0 37 15t15 36v952l248 50v-1002q0 -21 15 -36t36 -15h503q50 0 85 35q34 35 34 83v3q-1 48 -35 82q-35 35 -84 35h-540l71 247h469q105 0 187.5 -51t130.5 -131q49 -82 49 -184q0 -107 -51 -188t-132 -129q-85 -50 -184 -50h-1054l50 248h150z" />
    <glyph glyph-name="uni0638" unicode="&#x638;" horiz-adv-x="1561" 
d="M1108 1012l-159 -159l-160 159l160 160zM270 248q22 0 37 15t15 36v952l248 50v-1002q0 -21 15 -36t36 -15h503q50 0 85 35q34 35 34 83v3q-1 48 -35 82q-35 35 -84 35h-540l71 247h469q105 0 187.5 -51t130.5 -131q49 -82 49 -184q0 -107 -51 -188t-132 -129
q-85 -50 -184 -50h-1054l50 248h150z" />
    <glyph glyph-name="uni0639" unicode="&#x639;" horiz-adv-x="1000" 
d="M490 0q-70 0 -118.5 -55.5t-53.5 -132.5q0 -105 50.5 -186.5t129.5 -127.5q86 -50 183 -50h342l-50 -248h-291q-177 0 -314 85t-216 219q-82 139 -82 308q10 208 162 334q-74 98 -74 220q0 106 51 188.5t131 129.5q85 50 185 50h275l-50 -247h-225q-49 0 -84 -35.5
t-35 -85.5q0 -49 35 -84t84 -35h409l-51 -247h-393z" />
    <glyph glyph-name="uni063A" unicode="&#x63a;" horiz-adv-x="1000" 
d="M743 1012l-159 -159l-160 159l160 160zM490 0q-70 0 -118.5 -55.5t-53.5 -132.5q0 -105 50.5 -186.5t129.5 -127.5q86 -50 183 -50h342l-50 -248h-291q-177 0 -314 85t-216 219q-82 139 -82 308q10 208 162 334q-74 98 -74 220q0 106 51 188.5t131 129.5q85 50 185 50
h275l-50 -247h-225q-49 0 -84 -35.5t-35 -85.5q0 -49 35 -84t84 -35h409l-51 -247h-393z" />
    <glyph glyph-name="uni0640" unicode="&#x640;" horiz-adv-x="600" 
d="M-9 0q-49 0 -86 37q-38 37 -38 86v4q1 48 38 84q37 37 86 37h609v-248h-609z" />
    <glyph glyph-name="uni0641" unicode="&#x641;" horiz-adv-x="1685" 
d="M1406 1241l-159 -159l-160 159l160 160zM1615 295q0 -125 -86.5 -210t-212.5 -85h-947q-127 0 -213 85t-86 210v353l248 50v-399q0 -21 15 -36t36 -15h947q20 0 36 15.5t16 35.5v406q0 22 -15 37t-37 15h-134q-36 0 -61.5 -26t-25.5 -62q0 -37 25.5 -62t61.5 -25h174
l-68 -248h-106q-139 0 -237 97.5t-98 237.5q0 137 99 236t236 99h138q124 0 209.5 -86.5t85.5 -212.5v-410z" />
    <glyph glyph-name="uni0642" unicode="&#x642;" horiz-adv-x="1365" 
d="M921 965l-159 -159l-160 159l160 160zM1241 965l-159 -159l-160 159l160 160zM999 734q126 0 211 -86.5t85 -212.5v-486q0 -119 -86 -222q-59 -82 -151.5 -133t-208.5 -51h-167q-180 0 -314 84t-215 220q-83 140 -83 308v341l248 49v-391q5 -154 108.5 -258.5
t255.5 -104.5h167q82 0 139 57.5t59 139.5v446q0 22 -15 37t-36 15h-134q-36 0 -62 -25.5t-26 -61.5q0 -37 25.5 -62.5t61.5 -25.5h170l-71 -247h-91q-143 0 -242.5 97t-99.5 238q0 137 98 237q97 98 237 98h137z" />
    <glyph glyph-name="uni0643" unicode="&#x643;" horiz-adv-x="1517" 
d="M369 0q-126 0 -212.5 85.5t-86.5 209.5v353l248 50v-399q0 -21 15 -36t36 -15h779q22 0 37 16t15 38v948l247 51v-1006q0 -124 -86.5 -209.5t-212.5 -85.5h-779zM738 751q0 -20 13 -33t32 -13q6 0 10 1l106 33l48 -78l-347 -110l1 92l75 26q-26 35 -26 73q0 50 21 84
t63 47l88 27l41 -80l-95 -29q-13 -3 -21.5 -14t-8.5 -26z" />
    <glyph glyph-name="uni0644" unicode="&#x644;" horiz-adv-x="1365" 
d="M849 -209q82 0 140 57.5t58 139.5v1263l248 50v-1352q0 -161 -125 -279q-64 -60 -147.5 -93.5t-173.5 -33.5h-169q-176 0 -312.5 85t-215.5 220q-82 139 -82 307v341l248 51v-393q0 -105 50.5 -185.5t130.5 -128.5q82 -49 183 -49h167z" />
    <glyph glyph-name="uni0645" unicode="&#x645;" horiz-adv-x="1251" 
d="M70 438q0 124 86.5 209.5t212.5 85.5h517q124 0 209.5 -86.5t85.5 -212.5v-242q0 -154 -102 -258q-106 -109 -265 -109q-106 0 -187 51t-129 132q-50 85 -50 184v207l247 71v-278q0 -49 35 -84t83 -35h2q48 0 83 35t35 84v241q0 21 -15 37t-36 16h-513q-21 0 -36 -15
t-15 -37v-841l-248 -50v895z" />
    <glyph glyph-name="uni0646" unicode="&#x646;" horiz-adv-x="1365" 
d="M850 457l-159 -159l-160 159l160 160zM849 -209q82 0 140 57.5t58 139.5v659l248 52v-750q0 -119 -86 -222q-59 -82 -151.5 -133t-208.5 -51h-167q-175 0 -313 85.5t-217 218.5q-82 139 -82 308v341l248 52v-394q0 -105 50.5 -185.5t130.5 -128.5q82 -49 183 -49h167z
" />
    <glyph glyph-name="uni0647" unicode="&#x647;" horiz-adv-x="873" 
d="M508 945q124 0 208 -85.5t87 -212.5v-280q0 -105 -51 -187t-131 -130q-83 -50 -184 -50q-105 0 -187.5 51t-130.5 131q-49 82 -49 185v245l248 71v-316q0 -49 35 -84q34 -34 82 -35h3q48 0 83 35t35 84v279q0 22 -15 37t-36 15h-435l50 247h388z" />
    <glyph glyph-name="uni0648" unicode="&#x648;" horiz-adv-x="910" 
d="M394 -209q82 0 140 57.5t58 139.5v447q0 20 -16 35.5t-36 15.5h-123q-49 0 -84 -35t-35 -83v-2q0 -48 35 -83t84 -35h162l-69 -250l-99 2q-104 0 -185 51.5t-128 132.5q-48 82 -48 183q0 105 51.5 187.5t130.5 129.5q85 50 185 50h124q125 0 209.5 -84.5t89.5 -211.5
v-489q0 -161 -125 -279q-64 -60 -147.5 -93.5t-173.5 -33.5h-344l50 248h294z" />
    <glyph glyph-name="uni0649" unicode="&#x649;" horiz-adv-x="1365" 
d="M875 52q-126 0 -212.5 85t-86.5 211v76q0 132 83.5 221t211.5 89h424l-56 -248h-364q-21 0 -36 -14t-15 -35v-86q0 -21 15 -36t37 -15h123q123 0 209.5 -87.5t86.5 -212.5v-51q0 -94 -59 -188q-63 -97 -162 -157.5t-225 -60.5h-167q-175 0 -313 85.5t-217 218.5
q-82 139 -82 308v341l248 47v-389q0 -105 50.5 -185.5t130.5 -128.5q82 -49 183 -49h167q82 0 140 57.5t58 139.5v12q0 22 -15 37t-36 15h-121z" />
    <glyph glyph-name="uni064A" unicode="&#x64a;" horiz-adv-x="1365" 
d="M693 -675l-159 -159l-160 159l160 160zM1013 -675l-159 -159l-160 159l160 160zM875 52q-126 0 -212.5 85t-86.5 211v76q0 132 83.5 221t211.5 89h424l-56 -248h-364q-21 0 -36 -14t-15 -35v-86q0 -21 15 -36t37 -15h123q123 0 209.5 -87.5t86.5 -212.5v-51
q0 -94 -59 -188q-63 -97 -162 -157.5t-225 -60.5h-167q-175 0 -313 85.5t-217 218.5q-82 139 -82 308v341l248 47v-389q0 -105 50.5 -185.5t130.5 -128.5q82 -49 183 -49h167q82 0 140 57.5t58 139.5v12q0 22 -15 37t-36 15h-121z" />
    <glyph glyph-name="uni064B" unicode="&#x64b;" 
d="M172 1841l-340 -120v72l340 119v-71zM172 1701l-340 -120v72l340 119v-71z" />
    <glyph glyph-name="uni064C" unicode="&#x64c;" 
d="M-53 1682q0 45 33.5 78t78.5 33q46 0 79.5 -33t33.5 -79q0 -79 -79 -107l-261 -93v66l49 17q18 6 18 22q0 28 -24 28q-3 0 -11 -2l-32 -11v66q27 9 44 9q33 0 57 -23.5t27 -55.5l18 7q-31 31 -31 78zM59 1635q19 0 32.5 13.5t13.5 32.5t-13 32q-14 13 -33 13v0
q-19 0 -32 -13t-13 -32q0 -20 13 -33t32 -13z" />
    <glyph glyph-name="uni064D" unicode="&#x64d;" 
d="M172 -53l-340 -120v72l340 119v-71zM172 -193l-340 -120v72l340 119v-71z" />
    <glyph glyph-name="uni064E" unicode="&#x64e;" 
d="M172 1701l-340 -120v72l340 119v-71z" />
    <glyph glyph-name="uni064F" unicode="&#x64f;" 
d="M-54 1782q0 46 33.5 79t79.5 33q47 0 80 -33t33 -80q0 -79 -79 -107l-261 -93v72l145 51q-31 31 -31 78zM59 1735q19 0 32.5 13.5t13.5 32.5t-13.5 32.5t-32.5 13.5t-32.5 -13.5t-13.5 -32.5t13.5 -32.5t32.5 -13.5z" />
    <glyph glyph-name="uni0650" unicode="&#x650;" 
d="M172 -53l-340 -120v72l340 119v-71z" />
    <glyph glyph-name="uni0651" unicode="&#x651;" 
d="M-99 1723q0 -12 9 -21t21 -9t21 9t9 21v68l73 26v-65q0 -13 9 -21.5t22 -8.5t21 8.5t8 21.5v87l74 26v-115q0 -37 -29.5 -69t-66.5 -32q-36 0 -58 13q-32 -42 -79 -42q-45 0 -76 29t-31 72v23l73 26v-47z" />
    <glyph glyph-name="uni0652" unicode="&#x652;" 
d="M114 1726q0 -45 -33.5 -77.5t-80.5 -32.5t-80.5 33.5t-33.5 80.5t33 80t81 33t81 -34t33 -83zM-47 1730q0 -18 14.5 -32t32.5 -14t32.5 14t14.5 32t-14.5 31.5t-32.5 13.5t-32.5 -13.5t-14.5 -31.5z" />
    <glyph glyph-name="uni0653" unicode="&#x653;" 
d="M-541 1654l28 21q101 84 219 84h645l-48 -238h-558q-78 0 -131 -47z" />
    <glyph glyph-name="uni0654" unicode="&#x654;" 
d="M-40 1671q0 -21 14 -35.5t36 -14.5q7 0 11 2l121 36l54 -85l-393 -119l1 100l85 28q-30 38 -30 79q0 54 24 91t72 51l99 29l47 -86l-108 -32q-14 -4 -23.5 -16t-9.5 -28z" />
    <glyph glyph-name="uni0655" unicode="&#x655;" 
d="M-40 -171q0 -21 14 -35.5t36 -14.5q7 0 11 2l121 36l54 -85l-393 -119l1 100l85 28q-30 38 -30 79q0 54 24 91t72 51l99 29l47 -86l-108 -32q-14 -4 -23.5 -16t-9.5 -28z" />
    <glyph glyph-name="uni0660" unicode="&#x660;" horiz-adv-x="863" 
d="M542.5 490q7.5 23 7.5 36q0 46 -34.5 81t-80.5 35q-47 0 -81.5 -35t-34.5 -81t35 -80.5t81 -34.5t81 35q19 21 26.5 44zM641 278q-92 -78 -210 -78q-134 0 -232.5 99t-98.5 233q0 135 98 233t233 98q134 0 233 -98.5t99 -232.5q0 -103 -59 -186q-14 -19 -32.5 -38.5
t-30.5 -29.5z" />
    <glyph glyph-name="uni0661" unicode="&#x661;" horiz-adv-x="548" 
d="M347 50l-248 -50v964q0 70 -16 154l-15 63l-19 69l241 50l17 -64l18 -73q15 -54 23 -169z" />
    <glyph glyph-name="uni0662" unicode="&#x662;" horiz-adv-x="905" 
d="M349 935q5 -32 30 -56q30 -31 70 -31h7q42 0 71.5 30t29.5 72v300l248 50v-351q-5 -145 -103.5 -244.5t-242.5 -103.5h-12q-53 0 -99 15v-566l-248 -50v964q0 70 -16 154l-15 63l-19 69l241 50l17 -64l18 -73q15 -54 23 -169v-59z" />
    <glyph glyph-name="uni0663" unicode="&#x663;" horiz-adv-x="1362" 
d="M349 935q5 -32 30 -56q30 -31 70 -31h7q42 0 71.5 30t29.5 72v300l248 49v-349q0 -42 29.5 -72t71.5 -30h7q40 0 70.5 30.5t30.5 71.5v299l248 50v-350q-5 -145 -103.5 -244.5t-242.5 -103.5h-12q-132 3 -223 82q-91 -79 -222 -82h-12q-53 0 -99 15v-566l-248 -51v965
q0 70 -16 154l-15 63l-19 69l241 50l17 -64l18 -73q15 -54 23 -169v-59z" />
    <glyph glyph-name="uni0664" unicode="&#x664;" horiz-adv-x="1174" 
d="M349 843h67q-15 48 -15 77v35q4 144 103.5 242t244.5 103h290l-52 -247h-237q-42 0 -72 -30t-30 -72v-6q0 -42 30 -72t72 -30h374l-50 -247h-726v-546l-248 -50v964q0 70 -16 154l-15 63l-19 69l241 50l17 -64l18 -73q15 -54 23 -169v-151z" />
    <glyph glyph-name="uni0665" unicode="&#x665;" horiz-adv-x="1416" 
d="M455 949l226 -118l-317 -404q-16 -28 -16 -60q0 -48 34 -83q33 -35 78 -36h8q46 1 80 32q35 31 37 94v161l247 51v-221q3 -60 38 -88.5t81 -28.5h2q46 0 81 36t35 83q0 39 -24 71v1l-578 659l143 207q294 -335 408 -461q216 -243 219 -249q79 -97 79 -215
q0 -222 -182 -330q-83 -50 -184 -50q-139 0 -242 91q-103 -91 -223 -91q-170 0 -277.5 106.5t-107.5 277.5q0 120 90 223z" />
    <glyph glyph-name="uni0666" unicode="&#x666;" horiz-adv-x="1176" 
d="M397 713q49 -48 112 -48q62 1 112 48l209 212l246 -103l-810 -820l-139 211l230 233q-73 30 -135 90q-121 125 -122 283v7q2 167 135 302l173 172l231 -118l-245 -245q-45 -49 -46 -108v-5q0 -63 49 -111z" />
    <glyph glyph-name="uni0667" unicode="&#x667;" horiz-adv-x="1148" 
d="M568 0q-111 0 -193 71.5t-104 172.5q0 6 -1 7l-170 981l238 68l173 -992q12 -60 57 -60q47 0 56 56q0 3 1 4l162 925l261 67l-182 -1052q-19 -102 -102.5 -175t-195.5 -73z" />
    <glyph glyph-name="uni0668" unicode="&#x668;" horiz-adv-x="1148" 
d="M580 1300q111 0 193 -71.5t104 -172.5q0 -6 1 -7l170 -981l-238 -68l-173 992q-12 60 -57 60q-47 0 -56 -56q0 -3 -1 -4l-162 -925l-261 -67l182 1052q19 102 102.5 175t195.5 73z" />
    <glyph glyph-name="uni0669" unicode="&#x669;" horiz-adv-x="1018" 
d="M438 572q-99 0 -176.5 52.5t-117.5 129.5q-44 86 -44 184q0 107 51 188.5t131 129.5q83 50 185 50h163q122 -4 203.5 -89t84.5 -210v-957l-248 -50v1006q0 22 -15 37t-36 15h-152q-49 0 -84 -35q-34 -34 -35 -82v-2q0 -49 35 -84t84 -35h183l-73 -248h-139z" />
    <glyph glyph-name="uni066A" unicode="&#x66a;" horiz-adv-x="941" 
d="M59 1150q0 62 44.5 106t105.5 44t105.5 -44t44.5 -106t-44.5 -106t-105.5 -44t-105.5 44t-44.5 106zM591 250q0 62 44.5 106t105.5 44t105.5 -44t44.5 -106t-44.5 -106t-105.5 -44t-105.5 44t-44.5 106zM838 1400l-629 -1400h-159l629 1400h159z" />
    <glyph glyph-name="uni066B" unicode="&#x66b;" horiz-adv-x="341" 
d="M156 370q70 -40 98 -73q37 -47 37 -124q0 -84 -33 -165t-124 -182l-84 87q73 80 93 178q16 82 -81 129z" />
    <glyph glyph-name="uni066C" unicode="&#x66c;" horiz-adv-x="391" 
d="M91.5 142q-41.5 42 -41.5 101q0 58 41.5 99t99.5 41q75 0 112.5 -46.5t37.5 -123.5q0 -84 -33 -165t-124 -182l-84 87q73 80 97 147h-6q-58 0 -99.5 42z" />
    <glyph glyph-name="uni066D" unicode="&#x66d;" horiz-adv-x="767" 
d="M717 357l-224 -70l146 -207l-109 -80l-143 212l-147 -212l-111 80l151 207l-230 76l42 128l230 -81l-3 237h138l-4 -236l221 74z" />
    <glyph glyph-name="uni066E" unicode="&#x66e;" horiz-adv-x="1629" 
d="M318 299q0 -21 15 -36t36 -15h890q22 0 37 15t15 36v351l248 50v-405q0 -124 -86.5 -209.5t-212.5 -85.5h-891q-127 0 -213 85t-86 210v355l248 50v-401z" />
    <glyph glyph-name="uni066F" unicode="&#x66f;" horiz-adv-x="1365" 
d="M999 734q126 0 211 -86.5t85 -212.5v-486q0 -119 -86 -222q-59 -82 -151.5 -133t-208.5 -51h-167q-180 0 -314 84t-215 220q-83 140 -83 308v341l248 49v-391q5 -154 108.5 -258.5t255.5 -104.5h167q82 0 139 57.5t59 139.5v446q0 22 -15 37t-36 15h-134q-36 0 -62 -25.5
t-26 -61.5q0 -37 25.5 -62.5t61.5 -25.5h170l-71 -247h-91q-143 0 -242.5 97t-99.5 238q0 137 98 237q97 98 237 98h137z" />
    <glyph glyph-name="uni067E" unicode="&#x67e;" horiz-adv-x="1629" 
d="M318 299q0 -21 15 -36t36 -15h890q22 0 37 15t15 36v351l248 50v-405q0 -124 -86.5 -209.5t-212.5 -85.5h-891q-127 0 -213 85t-86 210v355l248 50v-401zM808 -330l-159 -159l-160 159l160 160zM1128 -330l-159 -159l-160 159l160 160zM968 -561l-159 -159l-160 159
l160 160z" />
    <glyph glyph-name="uni0686" unicode="&#x686;" horiz-adv-x="1070" 
d="M775 -128l-136 -136l-135 136l135 135zM1047 -128l-136 -136l-135 136l135 135zM911 -325l-136 -135l-135 135l135 136zM713 519h-541l50 248h542q116 0 189 -88q58 -71 58 -162q0 -130 -123 -213l-422 -284q-22 -16 -56.5 -46.5t-49.5 -47.5q-38 -50 -42 -115
q0 -157 106 -261q105 -103 257 -103h389l-50 -248h-338q-238 0 -413 157q-94 85 -146.5 202.5t-52.5 252.5q0 118 64 227t179 184l408 268q4 5 4 12t-5 13q-4 3 -7 4z" />
    <glyph glyph-name="uni0698" unicode="&#x698;" horiz-adv-x="521" 
d="M297 977l-159 -159l-160 159l160 160zM617 977l-159 -159l-160 159l160 160zM457 1208l-159 -159l-160 159l160 160zM5 -209q82 0 139.5 57.5t57.5 139.5v662l248 50v-751q0 -120 -85 -222q-59 -83 -151 -133.5t-209 -50.5h-156l49 248h107z" />
    <glyph glyph-name="uni06A1" unicode="&#x6a1;" horiz-adv-x="1685" 
d="M1615 295q0 -125 -86.5 -210t-212.5 -85h-947q-127 0 -213 85t-86 210v353l248 50v-399q0 -21 15 -36t36 -15h947q20 0 36 15.5t16 35.5v406q0 22 -15 37t-37 15h-134q-36 0 -61.5 -26t-25.5 -62q0 -37 25.5 -62t61.5 -25h174l-68 -248h-106q-139 0 -237 97.5t-98 237.5
q0 137 99 236t236 99h138q124 0 209.5 -86.5t85.5 -212.5v-410z" />
    <glyph glyph-name="uni06A9" unicode="&#x6a9;" horiz-adv-x="1643" 
d="M70 649l248 50v-400q0 -21 15 -36t36 -15h920q22 0 22 22q0 9 -7 16l-373 373q-44 47 -44 137q0 142 122 212l508 293l76 -244l-456 -258l338 -338q84 -85 84 -191q0 -109 -72.5 -189.5t-171.5 -80.5h-944q-125 0 -213 85.5t-88 209.5v354z" />
    <glyph glyph-name="uni06AF" unicode="&#x6af;" horiz-adv-x="1643" 
d="M1508 1334l-476 -274l-32 110l482 278zM70 649l248 50v-400q0 -21 15 -36t36 -15h920q22 0 22 22q0 9 -7 16l-373 373q-44 47 -44 137q0 142 122 212l508 293l76 -244l-456 -258l338 -338q84 -85 84 -191q0 -109 -72.5 -189.5t-171.5 -80.5h-944q-125 0 -213 85.5
t-88 209.5v354z" />
    <glyph glyph-name="uni06BA" unicode="&#x6ba;" horiz-adv-x="1365" 
d="M849 -209q82 0 140 57.5t58 139.5v659l248 52v-750q0 -119 -86 -222q-59 -82 -151.5 -133t-208.5 -51h-167q-175 0 -313 85.5t-217 218.5q-82 139 -82 308v341l248 52v-394q0 -105 50.5 -185.5t130.5 -128.5q82 -49 183 -49h167z" />
    <glyph glyph-name="uni06C0" unicode="&#x6c0;" horiz-adv-x="873" 
d="M385 1284q0 -21 14 -35.5t36 -14.5q7 0 11 2l121 36l54 -85l-393 -119l1 100l85 28q-30 38 -30 79q0 54 24 91t72 51l99 29l47 -86l-108 -32q-14 -4 -23.5 -16t-9.5 -28zM508 945q124 0 208 -85.5t87 -212.5v-280q0 -105 -51 -187t-131 -130q-83 -50 -184 -50
q-105 0 -187.5 51t-130.5 131q-49 82 -49 185v245l248 71v-316q0 -49 35 -84q34 -34 82 -35h3q48 0 83 35t35 84v279q0 22 -15 37t-36 15h-435l50 247h388z" />
    <glyph glyph-name="uni06CA" unicode="&#x6ca;" horiz-adv-x="910" 
d="M473 999l-159 -159l-160 159l160 160zM793 999l-159 -159l-160 159l160 160zM394 -209q82 0 140 57.5t58 139.5v447q0 20 -16 35.5t-36 15.5h-123q-49 0 -84 -35t-35 -83v-2q0 -48 35 -83t84 -35h162l-69 -250l-99 2q-104 0 -185 51.5t-128 132.5q-48 82 -48 183
q0 105 51.5 187.5t130.5 129.5q85 50 185 50h124q125 0 209.5 -84.5t89.5 -211.5v-489q0 -161 -125 -279q-64 -60 -147.5 -93.5t-173.5 -33.5h-344l50 248h294z" />
    <glyph glyph-name="uni06CC" unicode="&#x6cc;" horiz-adv-x="1365" 
d="M875 52q-126 0 -212.5 85t-86.5 211v76q0 132 83.5 221t211.5 89h424l-56 -248h-364q-21 0 -36 -14t-15 -35v-86q0 -21 15 -36t37 -15h123q123 0 209.5 -87.5t86.5 -212.5v-51q0 -94 -59 -188q-63 -97 -162 -157.5t-225 -60.5h-167q-175 0 -313 85.5t-217 218.5
q-82 139 -82 308v341l248 47v-389q0 -105 50.5 -185.5t130.5 -128.5q82 -49 183 -49h167q82 0 140 57.5t58 139.5v12q0 22 -15 37t-36 15h-121z" />
    <glyph glyph-name="uni06F0" unicode="&#x6f0;" horiz-adv-x="863" 
d="M542.5 490q7.5 23 7.5 36q0 46 -34.5 81t-80.5 35q-47 0 -81.5 -35t-34.5 -81t35 -80.5t81 -34.5t81 35q19 21 26.5 44zM641 278q-92 -78 -210 -78q-134 0 -232.5 99t-98.5 233q0 135 98 233t233 98q134 0 233 -98.5t99 -232.5q0 -103 -59 -186q-14 -19 -32.5 -38.5
t-30.5 -29.5z" />
    <glyph glyph-name="uni06F1" unicode="&#x6f1;" horiz-adv-x="548" 
d="M347 50l-248 -50v964q0 70 -16 154l-15 63l-19 69l241 50l17 -64l18 -73q15 -54 23 -169z" />
    <glyph glyph-name="uni06F2" unicode="&#x6f2;" horiz-adv-x="905" 
d="M349 935q5 -32 30 -56q30 -31 70 -31h7q42 0 71.5 30t29.5 72v300l248 50v-351q-5 -145 -103.5 -244.5t-242.5 -103.5h-12q-53 0 -99 15v-566l-248 -50v964q0 70 -16 154l-15 63l-19 69l241 50l17 -64l18 -73q15 -54 23 -169v-59z" />
    <glyph glyph-name="uni06F3" unicode="&#x6f3;" horiz-adv-x="1362" 
d="M349 935q5 -32 30 -56q30 -31 70 -31h7q42 0 71.5 30t29.5 72v300l248 49v-349q0 -42 29.5 -72t71.5 -30h7q40 0 70.5 30.5t30.5 71.5v299l248 50v-350q-5 -145 -103.5 -244.5t-242.5 -103.5h-12q-132 3 -223 82q-91 -79 -222 -82h-12q-53 0 -99 15v-566l-248 -51v965
q0 70 -16 154l-15 63l-19 69l241 50l17 -64l18 -73q15 -54 23 -169v-59z" />
    <glyph glyph-name="uni06F4" unicode="&#x6f4;" horiz-adv-x="1174" 
d="M349 843h67q-15 48 -15 77v35q4 144 103.5 242t244.5 103h290l-52 -247h-237q-42 0 -72 -30t-30 -72v-6q0 -42 30 -72t72 -30h374l-50 -247h-726v-546l-248 -50v964q0 70 -16 154l-15 63l-19 69l241 50l17 -64l18 -73q15 -54 23 -169v-151z" />
    <glyph glyph-name="uni06F5" unicode="&#x6f5;" horiz-adv-x="1416" 
d="M446 938l235 -107l-317 -404q-16 -28 -16 -60q0 -48 34 -83q33 -35 78 -36h8q46 1 80 32q35 31 37 94v161l247 51v-221q3 -60 38 -88.5t81 -28.5h2q46 0 81 36t35 83q0 39 -24 71v1l-578 659l143 207q294 -335 408 -461q216 -243 219 -249q79 -97 79 -215
q0 -222 -182 -330q-83 -50 -184 -50q-139 0 -242 91q-103 -91 -223 -91q-170 0 -277.5 106.5t-107.5 277.5q0 120 90 223z" />
    <glyph glyph-name="uni06F6" unicode="&#x6f6;" horiz-adv-x="1136" 
d="M397 713q49 -48 112 -48q62 1 112 48l209 212l246 -103l-810 -820l-139 211l230 233q-73 30 -135 90q-121 125 -122 283v7q2 167 135 302l173 172l231 -118l-245 -245q-45 -49 -46 -108v-5q0 -63 49 -111z" />
    <glyph glyph-name="uni06F7" unicode="&#x6f7;" horiz-adv-x="1048" 
d="M518 0q-111 0 -193 71.5t-104 172.5q0 6 -1 7l-170 981l238 68l173 -992q12 -60 57 -60q47 0 56 56q0 3 1 4l162 925l261 67l-182 -1052q-19 -102 -102.5 -175t-195.5 -73z" />
    <glyph glyph-name="uni06F8" unicode="&#x6f8;" horiz-adv-x="1048" 
d="M530 1300q111 0 193 -71.5t104 -172.5q0 -6 1 -7l170 -981l-238 -68l-173 992q-12 60 -57 60q-47 0 -56 -56q0 -3 -1 -4l-162 -925l-261 -67l182 1052q19 102 102.5 175t195.5 73z" />
    <glyph glyph-name="uni06F9" unicode="&#x6f9;" horiz-adv-x="1018" 
d="M438 572q-99 0 -176.5 52.5t-117.5 129.5q-44 86 -44 184q0 107 51 188.5t131 129.5q83 50 185 50h163q122 -4 203.5 -89t84.5 -210v-957l-248 -50v1006q0 22 -15 37t-36 15h-152q-49 0 -84 -35q-34 -34 -35 -82v-2q0 -49 35 -84t84 -35h183l-73 -248h-139z" />
    <glyph glyph-name="uni200C" unicode="&#x200c;" 
 />
    <glyph glyph-name="uni200D" unicode="&#x200d;" 
 />
    <glyph glyph-name="uni200E" unicode="&#x200e;" horiz-adv-x="37" 
d="M243 1294l-108 -110l-27 23l71 71h-142v-1278h-37v1312h174l-66 67l27 25z" />
    <glyph glyph-name="uni200F" unicode="&#x200f;" horiz-adv-x="37" 
d="M37 0h-37v1278h-142l69 -71l-23 -23l-113 110l113 110l23 -25l-67 -67h177v-1312z" />
    <glyph glyph-name="quoteleft" unicode="&#x2018;" horiz-adv-x="405" 
d="M297 1169q38 -38 38 -92q0 -52 -38 -89.5t-91 -37.5q-67 0 -101.5 42t-34.5 113q0 75 30 149t113 166l76 -79q-66 -74 -88 -134h5q53 0 91 -38z" />
    <glyph glyph-name="quoteright" unicode="&#x2019;" horiz-adv-x="465" 
d="M138 1201q-38 38 -38 92q0 52 38 89.5t90 37.5q68 0 102.5 -42t34.5 -113q0 -75 -30 -149t-113 -166l-77 79q67 74 89 134h-6q-52 0 -90 38z" />
    <glyph glyph-name="quotedblleft" unicode="&#x201c;" horiz-adv-x="519" 
d="M238 1500v-411l-138 -44l1 404zM419 1500v-411l-138 -44l1 404z" />
    <glyph glyph-name="quotedblright" unicode="&#x201d;" horiz-adv-x="459" 
d="M251 1500l137 -41l1 -414l-138 44v411zM70 1500l137 -41l1 -414l-138 44v411z" />
    <glyph glyph-name="guilsinglleft" unicode="&#x2039;" horiz-adv-x="446" 
d="M300 670l76 -137l-167 -199l152 -193l-63 -141l-206 259q-22 27 -22 59q0 67 38 111z" />
    <glyph glyph-name="guilsinglright" unicode="&#x203a;" horiz-adv-x="446" 
d="M146 670l192 -241q38 -44 38 -111q0 -32 -22 -59l-206 -259l-63 141l152 193l-167 199z" />
    <glyph glyph-name="glyph127" unicode="&#xe000;" horiz-adv-x="369" 
d="M344 158l-159 -159l-160 159l160 160z" />
    <glyph glyph-name="glyph128" unicode="&#xe001;" horiz-adv-x="689" 
d="M344 158l-159 -159l-160 159l160 160zM664 158l-159 -159l-160 159l160 160z" />
    <glyph glyph-name="glyph129" unicode="&#xe002;" horiz-adv-x="689" 
d="M344 158l-159 -159l-160 159l160 160zM664 158l-159 -159l-160 159l160 160zM504 389l-159 -159l-160 159l160 160z" />
    <glyph glyph-name="glyph130" unicode="&#xe003;" horiz-adv-x="689" 
d="M344 158l-159 -159l-160 159l160 160zM664 158l-159 -159l-160 159l160 160zM504 -73l-159 -159l-160 159l160 160z" />
    <glyph glyph-name="glyph131" unicode="&#xe004;" horiz-adv-x="1656" 
d="M70 648l248 50v-399q0 -21 15 -36t36 -15h890q22 0 37 15t15 36v348l248 51v-399q0 -21 15 -36t36 -15h46v-248h-46q-98 0 -175 56q-77 -56 -175 -56h-891q-125 0 -212 85.5t-87 209.5v353z" />
    <glyph glyph-name="glyph132" unicode="&#xe005;" horiz-adv-x="1412" 
d="M527 398q0 137 99.5 236.5t235.5 99.5h137q125 0 210.5 -86.5t85.5 -212.5v-137q0 -21 14.5 -35.5t36.5 -14.5h66v-248h-66q-19 0 -51 5v-56q0 -118 -86 -222q-58 -81 -150.5 -132.5t-209.5 -51.5h-167q-177 0 -314 85.5t-216 218.5q-82 139 -82 308v341l248 53v-395
q0 -105 50.5 -186t130.5 -128q82 -49 183 -49h167q83 0 140.5 57.5t57.5 138.5v447q0 22 -15 37t-36 15h-134q-36 0 -62 -26q-24 -24 -26 -58v-7q1 -34 26 -58q26 -26 61 -26h175l-68 -247h-107q-135 0 -234.5 98t-99.5 236z" />
    <glyph glyph-name="glyph133" unicode="&#xe006;" horiz-adv-x="969" 
d="M573 1004q125 0 210.5 -86.5t85.5 -212.5v-410q0 -124 -86.5 -209.5t-212.5 -85.5h-580q-43 0 -73 30t-30 73v42q0 41 30.5 72t72.5 31h579q22 0 37 15t15 36v406q0 21 -15 36.5t-36 15.5h-134q-36 0 -62 -26q-25 -25 -26 -58v-5q0 -35 26 -60q26 -26 61 -26h176
l-70 -248h-106q-133 0 -233.5 98.5t-100.5 237.5q0 136 99.5 235t235.5 99h137z" />
    <glyph glyph-name="glyph134" unicode="&#xe007;" horiz-adv-x="1011" 
d="M573 984q124 0 209.5 -85.5t86.5 -213.5v-387q0 -21 15 -35.5t36 -14.5h91v-248h-91q-98 0 -175 56q-75 -54 -175 -56h-580q-43 0 -73 30t-30 73v42q0 41 30.5 72t72.5 31h579q22 0 37 15t15 36v386q0 21 -15 36.5t-36 15.5h-134q-36 0 -62 -26q-25 -25 -26 -59v-4
q0 -35 26 -60q26 -26 61 -26h176l-70 -248h-106q-135 0 -234.5 98.5t-99.5 237.5q0 136 99.5 235t235.5 99h137z" />
    <glyph glyph-name="glyph135" unicode="&#xe008;" horiz-adv-x="1412" 
d="M1295 -51q0 -119 -86 -222q-59 -82 -151.5 -133t-208.5 -51h-167q-175 0 -313 85.5t-217 218.5q-82 139 -82 308v341l248 48v-390q0 -105 50.5 -185.5t130.5 -128.5q82 -49 183 -49h167q82 0 140 57.5t58 139.5v662l248 50v-405q0 -19 15.5 -33t35.5 -14h66v-248h-66
q-21 0 -51 5v-56z" />
    <glyph glyph-name="glyph136" unicode="&#xe009;" horiz-adv-x="1720" 
d="M1320 984q124 0 209.5 -86.5t85.5 -212.5v-390q0 -19 15.5 -33t36.5 -14h53v-248h-54q-98 0 -175 56q-77 -56 -175 -56h-947q-125 0 -209.5 85t-89.5 210v353l248 50v-399q0 -21 15 -36t36 -15h947q20 0 36 14t16 33v390q0 22 -15 37t-37 15h-136q-35 0 -61 -26.5
t-26 -61.5q0 -36 26 -61.5t61 -25.5h179l-71 -248h-108q-134 0 -234.5 99t-100.5 237q0 136 99.5 235t235.5 99h140z" />
    <glyph glyph-name="uni0009" horiz-adv-x="700" 
 />
    <glyph glyph-name="GAFbar" horiz-adv-x="1812" 
d="M1508 1334l-476 -274l-32 110l482 278z" />
    </font>
</defs>
</svg>
